SplineFontDB: 3.2
FontName: Fraktica
FullName: Fraktica
FamilyName: Fraktica
Weight: Condensed
Copyright: Copyright (C) 2023 Elias BD21BDES11009, IIT Hyderabad.\n\nThis typeface, named Fraktica, was created by Harikrishna (Elias) Manoj, BD21BDES11009 as part of the "Type Design" course conducted at IIT Hyderabad under the guidance of Professors Mohammed Shahid and visiting faculty Udaya Kumar.\n\nFraktica is a Extra-Condensed, Extra-Light, Old Style fontface with Bracketed Serifs drawing inspiration from the architectural wonders of the Gothic Germany era. With a nod to the pointed angles and soaring heights of structures like the Cologne Cathedral, this font attempts to echo the essence of sharpness and acute angles prevalent in that time.\n\nFraktica pays homage to the towering spires and verticality of Gothic architecture. Its use of Bracketed Serifs echoes the intricate angles and heavy black-lettering found in the traditional Fraktur script of the Old German Script.\n\nAll rights reserved. This typeface is protected under copyright laws and international treaties. It is intended for personal and non-commercial use only. Any unauthorized reproduction, distribution, or modification is strictly prohibited.\n\nFor inquiries regarding commercial or other use permissions, please contact:\n\nElias, BD21BDES11009\nbd21bdes11009@iith.ac.in\nInstagram - @eliasmaketh\n\nDepartment of Design,\nIndian Institute of Technology, Hyderabad\nIITH Road, Near NH-65, Sangareddy, Kandi, Telangana 502285, India\n\nProf. Mohammed Shahid\nmohammad.shahid@des.iith.ac.in\n\nProf. Udaya Kumar\nd.udaya@iitg.ac.in\n\nThank you for respecting the creator's rights and the efforts put into the creation of this typeface.\n
UComments: "2023-11-17: Created with FontForge (http://fontforge.org)"
Version: 001.000
ItalicAngle: 0
UnderlinePosition: -100
UnderlineWidth: 50
Ascent: 800
Descent: 200
InvalidEm: 0
LayerCount: 2
Layer: 0 0 "Back" 1
Layer: 1 0 "Fore" 0
XUID: [1021 601 -1200783230 15954]

StartChar: x
Encoding: 120 120 0
Width: 275
VWidth: 1145
Flags: W
VStem: 6.36816 48.96<31.5572 235.321 398.324 535.68> 174.413 46.5<64.0727 127.486 127.517 266.37 503.896 535.723>
LayerCount: 2
Fore
SplineSet
85.015625 322.259765625 m 4
 87.048828125 324.043945312 88.1318359375 326.67578125 87.9423828125 329.374023438 c 4
 87.7529296875 332.07421875 86.3125 334.529296875 84.05078125 336.01171875 c 4
 67.8662109375 346.62109375 36.0908203125 367.4453125 36.0908203125 367.4453125 c 6
 16.0087890625 380.60546875 3.91015625 418.600585938 3.91015625 442.609375 c 5
 3.892578125 493.133789062 4.5107421875 535.294921875 -11.5908203125 535.73046875 c 5
 -11.5908203125 535.73046875 27.6806640625 593.951171875 43.7138671875 617.72265625 c 4
 44.615234375 619.056640625 46.2802734375 619.647460938 47.8203125 619.17578125 c 4
 49.3583984375 618.706054688 50.41015625 617.28515625 50.41015625 615.67578125 c 6
 50.41015625 463.620117188 l 6
 50.41015625 443.052734375 60.8359375 408.288085938 78.103515625 397.114257812 c 6
 78.103515625 397.114257812 102.006835938 381.646484375 114.31640625 373.6796875 c 4
 118.284179688 371.112304688 123.576171875 372.197265625 126.212890625 376.119140625 c 4
 129.314453125 380.732421875 132.793945312 385.908203125 132.793945312 385.908203125 c 6
 153.133789062 416.162109375 165.892578125 467.668945312 169.986328125 503.892578125 c 6
 169.986328125 503.892578125 170.44140625 507.915039062 170.84375 511.497070312 c 4
 171.443359375 516.810546875 170.685546875 522.189453125 168.63671875 527.12890625 c 4
 166.385742188 532.54296875 163.258789062 535.612304688 158.912109375 535.73046875 c 5
 158.912109375 535.73046875 198.18359375 593.951171875 214.216796875 617.72265625 c 4
 214.91015625 618.751953125 216.060546875 619.338867188 217.2578125 619.336914062 c 4
 217.620117188 619.33984375 217.985351562 619.287109375 218.346679688 619.178710938 c 4
 219.87109375 618.711914062 220.913085938 617.303710938 220.913085938 615.708984375 c 6
 220.913085938 562.009765625 l 6
 220.913085938 507.870117188 172.549804688 417.975585938 136.206054688 370.690429688 c 4
 134.724609375 368.7734375 134.115234375 366.323242188 134.5234375 363.935546875 c 4
 134.932617188 361.547851562 136.321289062 359.44140625 138.35546875 358.125 c 4
 140.270507812 356.883789062 141.776367188 355.91015625 141.776367188 355.91015625 c 6
 191.100585938 323.990234375 220.88671875 269.247070312 220.899414062 210.495117188 c 4
 220.90625 169.69140625 220.913085938 127.486328125 220.913085938 127.486328125 c 6
 220.9140625 115.62890625 220.915039062 99.796875 220.915039062 84.6171875 c 4
 220.915039062 75.4072265625 226.62109375 67.1611328125 235.241210938 63.9169921875 c 4
 242.158203125 61.3134765625 249.790039062 62.3681640625 255.672851562 66.4658203125 c 5
 256.463867188 65.2919921875 l 5
 243.75390625 46.44921875 196.721679688 -23.2783203125 180.198242188 -47.7763671875 c 4
 179.419921875 -48.9296875 177.98046875 -49.4384765625 176.651367188 -49.033203125 c 4
 175.321289062 -48.6259765625 174.413085938 -47.3984375 174.413085938 -46.0068359375 c 6
 174.413085938 183.201171875 l 6
 174.413085938 236.6015625 149.811523438 286.716796875 108.259765625 319.3828125 c 4
 106.303710938 320.895507812 103.794921875 321.5 101.365234375 321.041992188 c 4
 98.9365234375 320.581054688 96.8193359375 319.104492188 95.5517578125 316.981445312 c 4
 91.9140625 310.9375 87.6162109375 303.741210938 87.6162109375 303.741210938 c 6
 74.9453125 286.110351562 68.3720703125 256.3359375 61.279296875 235.81640625 c 5
 61.279296875 235.81640625 61.279296875 235.81640625 61.2998046875 235.807617188 c 4
 57.7158203125 225.436523438 55.150390625 214.58984375 55.328125 203.616210938 c 4
 56.69921875 118.948242188 43.642578125 -13.12109375 -27.4072265625 -57.5712890625 c 5
 -30.44921875 -52.8271484375 l 5
 -30.44921875 -52.8271484375 -27.4404296875 -45.4267578125 -22.814453125 -34.0537109375 c 4
 3.90625 31.6591796875 4.7255859375 131.28515625 6.3681640625 192.919921875 c 4
 6.4248046875 195.059570312 6.4619140625 197.99609375 6.4814453125 201.231445312 c 4
 6.7724609375 219.517578125 12.1484375 237.361328125 22.0087890625 252.762695312 c 5
 22.0087890625 252.763671875 l 5
 37.7802734375 277.401367188 57.3359375 299.352539062 79.9208984375 317.825195312 c 4
 81.3671875 319.0078125 83.1875 320.609375 85.015625 322.259765625 c 4
EndSplineSet
EndChar

StartChar: y
Encoding: 121 121 1
Width: 249
VWidth: 1168
Flags: W
VStem: 10.1689 46.5<132.24 533.446> 148.812 46.9297<-194.907 10.7539 27.3471 441.469 441.716 533.446>
LayerCount: 2
Fore
SplineSet
148.811523438 10.8017578125 m 2
 99.796875 -51.599609375 l 1
 95.5732421875 -51.599609375 l 2
 86.001953125 -48.1748046875 62.7802734375 -27.0322265625 25.66796875 31.8017578125 c 0
 16.1640625 46.869140625 10.134765625 80.8056640625 10.16796875 100.551757812 c 0
 10.16796875 100.615234375 10.1689453125 100.869140625 10.1689453125 100.869140625 c 1
 10.1689453125 441.575195312 l 2
 10.150390625 492.099609375 10.76953125 533.060546875 -5.3310546875 533.49609375 c 1
 -5.3310546875 533.49609375 33.939453125 591.717773438 49.9716796875 615.489257812 c 0
 50.873046875 616.822265625 52.5380859375 617.413085938 54.078125 616.942382812 c 0
 55.6181640625 616.471679688 56.6689453125 615.051757812 56.6689453125 613.44140625 c 2
 56.6689453125 132.240234375 l 1
 56.669921875 132.240234375 l 1
 60.255859375 74.4912109375 73.9052734375 56.8720703125 92.3095703125 38.6806640625 c 0
 105.390625 25.7509765625 124.4140625 26.25390625 136.912109375 28.474609375 c 0
 137.40625 28.5634765625 137.900390625 28.6591796875 138.392578125 28.7587890625 c 0
 144.447265625 29.9794921875 148.806640625 35.296875 148.8125 41.4736328125 c 0
 148.887695312 101.118164062 149.240234375 441.715820312 149.240234375 441.715820312 c 2
 149.223632812 492.174804688 149.827148438 533.060546875 133.740234375 533.49609375 c 1
 133.740234375 533.49609375 173.010742188 591.717773438 189.044921875 615.489257812 c 0
 189.9453125 616.822265625 191.611328125 617.413085938 193.150390625 616.942382812 c 0
 194.689453125 616.471679688 195.741210938 615.051757812 195.741210938 613.44140625 c 2
 195.741210938 -56.7724609375 l 2
 195.741210938 -143.499023438 171.583984375 -228.512695312 125.98046875 -302.28125 c 0
 115.190429688 -319.735351562 107.543945312 -332.104492188 107.543945312 -332.104492188 c 1
 104.501953125 -327.360351562 l 1
 104.501953125 -327.360351562 107.510742188 -319.959960938 112.134765625 -308.586914062 c 0
 144.029296875 -230.159179688 153.517578125 -145.635742188 148.811523438 -61.1025390625 c 0
 148.479492188 -55.1474609375 148.811523438 10.8017578125 148.811523438 10.8017578125 c 2
EndSplineSet
EndChar

StartChar: a
Encoding: 97 97 2
Width: 241
VWidth: 1146
Flags: W
VStem: 2.88379 46.501<63.2481 374.821> 142.295 46.5117<79.2856 356.56 414.984 558.938>
LayerCount: 2
Fore
SplineSet
224.4375 80.505859375 m 5
 148.171875 -32.5634765625 l 6
 147.393554688 -33.716796875 145.955078125 -34.2265625 144.625 -33.8203125 c 4
 143.294921875 -33.4130859375 142.38671875 -32.185546875 142.38671875 -30.7958984375 c 6
 142.375 29.67578125 l 5
 142.294921875 29.5595703125 l 5
 92.5126953125 -33.8203125 l 6
 84.63671875 -40.2275390625 51.5625 -3.0146484375 18.3857421875 49.58203125 c 4
 7.0556640625 67.541015625 0.634765625 109.143554688 2.8837890625 150.020507812 c 5
 2.8837890625 150.020507812 2.8837890625 294.017578125 2.8837890625 328.052734375 c 4
 2.8837890625 346.3046875 10.9453125 363.624023438 24.912109375 375.375976562 c 6
 74.576171875 417.169921875 l 6
 91.306640625 431.900390625 120.439453125 430.9609375 142.294921875 414.984375 c 5
 142.294921875 425.780273438 l 5
 142.294921875 425.78125 l 6
 142.25390625 486.09765625 139.416992188 518.267578125 132.212890625 540.096679688 c 4
 123.245117188 566.892578125 96.1796875 583.2421875 68.2890625 578.713867188 c 4
 53.216796875 576.29296875 43.453125 571.434570312 17.1279296875 553.254882812 c 5
 16.822265625 553.698242188 16.341796875 554.361328125 15.966796875 554.857421875 c 5
 71.5546875 599.733398438 l 6
 87.5869140625 611.008789062 113.126953125 615.336914062 139.23046875 611.200195312 c 4
 158.541015625 608.100585938 173.955078125 593.440429688 178.018554688 574.309570312 c 4
 184.80859375 541.703125 189.309570312 480.180664062 188.88671875 425.78125 c 5
 188.853515625 315.403320312 188.8203125 201.1796875 188.806640625 150.020507812 c 5
 188.88671875 150.020507812 l 5
 188.887695312 129.510742188 188.887695312 108.721679688 188.887695312 99.830078125 c 4
 188.887695312 90.62109375 194.594726562 82.375 203.21484375 79.1298828125 c 4
 210.029296875 76.564453125 217.671875 77.5185546875 223.646484375 81.6787109375 c 5
 224.4375 80.505859375 l 5
142.294921875 253.55078125 m 6
 141.263671875 319.926757812 133.290039062 346.705078125 106.745117188 372.942382812 c 4
 95.39453125 384.162109375 76.8125 387.302734375 55.28515625 381.638671875 c 5
 51.3984375 373.250976562 49.3837890625 364.116210938 49.3837890625 354.872070312 c 6
 49.384765625 150.020507812 l 6
 49.421875 96.8271484375 55.83203125 76.8046875 80.6953125 52.2314453125 c 4
 91.5537109375 41.4970703125 110.049804688 39.40234375 133.053710938 46.30078125 c 4
 138.540039062 47.9560546875 142.294921875 53.0087890625 142.294921875 58.740234375 c 6
 142.294921875 253.55078125 l 6
EndSplineSet
EndChar

StartChar: b
Encoding: 98 98 3
Width: 260
VWidth: 1120
Flags: W
VStem: 12.8213 46.6055<59.5202 543.516 543.797 855.255> 167.812 46.502<47.1079 564.203>
LayerCount: 2
Fore
SplineSet
12.8212890625 -29.8203125 m 2
 12.8212890625 763.384765625 l 2
 12.8017578125 813.908203125 13.421875 854.868164062 -2.6787109375 855.3046875 c 1
 -2.6787109375 855.3046875 36.5927734375 913.526367188 52.6259765625 937.296875 c 0
 53.5244140625 938.630859375 55.1923828125 939.221679688 56.7314453125 938.750976562 c 0
 58.2705078125 938.28125 59.322265625 936.859375 59.322265625 935.25 c 2
 59.322265625 574.76953125 l 1
 96.9833984375 605.173828125 l 2
 114.918945312 617.788085938 141.830078125 620.258789062 164.659179688 616.639648438 c 0
 183.969726562 613.540039062 199.383789062 598.879882812 203.447265625 579.749023438 c 0
 214.379882812 527.255859375 214.357421875 441.669921875 214.3203125 432.1015625 c 1
 214.313476562 109.291992188 l 2
 214.313476562 86.7236328125 206.705078125 64.814453125 192.717773438 47.1025390625 c 0
 182.763671875 34.494140625 124.853515625 -33.03125 124.853515625 -33.03125 c 2
 120.924804688 -36.228515625 86.8037109375 -25.3369140625 49.2744140625 20.87890625 c 1
 40.7119140625 5.0263671875 27.7373046875 -18.0537109375 18.607421875 -31.58984375 c 0
 17.8291015625 -32.7421875 16.390625 -33.251953125 15.0595703125 -32.8447265625 c 0
 13.73046875 -32.4384765625 12.8212890625 -31.2109375 12.8212890625 -29.8203125 c 2
167.721679688 432.021484375 m 2
 167.662109375 488.54296875 165.1953125 522.650390625 157.642578125 545.536132812 c 0
 148.672851562 572.33203125 121.608398438 588.682617188 93.716796875 584.154296875 c 1
 93.7158203125 584.153320312 l 1
 73.896484375 580.971679688 59.322265625 563.870117188 59.322265625 543.796875 c 2
 59.322265625 543.796875 59.4462890625 156.587890625 59.4267578125 154.802734375 c 0
 60.53125 89.9501953125 67.3779296875 59.580078125 110.375 35.998046875 c 1
 110.375 35.998046875 110.375976562 35.998046875 110.381835938 36.0048828125 c 0
 122.258789062 28.419921875 137.497070312 28.568359375 149.22265625 36.3857421875 c 0
 150.778320312 37.4267578125 152.212890625 38.2666015625 153.403320312 38.775390625 c 0
 153.715820312 39.30859375 153.9921875 39.8671875 154.228515625 40.4521484375 c 0
 157.51953125 48.52734375 160.282226562 55.349609375 162.080078125 59.7978515625 c 0
 163.719726562 63.837890625 164.938476562 68.037109375 165.717773438 72.3271484375 c 0
 169.009765625 90.14453125 169.096679688 101.076171875 167.811523438 145.12109375 c 2
 167.721679688 432.021484375 l 2
EndSplineSet
EndChar

StartChar: c
Encoding: 99 99 4
Width: 230
VWidth: 1145
Flags: W
VStem: 0.500977 46.5<52.5576 111.503 111.503 554.043> 151.258 44.377<518.048 568.488>
LayerCount: 2
Fore
SplineSet
0.5009765625 507.150390625 m 0
 0.5009765625 525.780273438 8.8974609375 543.416992188 23.3583984375 555.161132812 c 2
 69.6103515625 595.6484375 l 2
 87.5458984375 608.262695312 114.455078125 610.732421875 137.286132812 607.115234375 c 0
 156.596679688 604.015625 165.358398438 593.78515625 176.073242188 578.624023438 c 0
 192.5 555.384765625 195.634765625 524.774414062 195.634765625 524.646484375 c 0
 195.634765625 520.881835938 192.620117188 518.045898438 192.620117188 518.045898438 c 1
 130.52734375 453.9453125 l 1
 128.837890625 457.205078125 l 1
 128.837890625 457.205078125 137.58203125 469.515625 144.170898438 478.791992188 c 0
 148.897460938 485.446289062 151.379882812 493.432617188 151.2578125 501.59375 c 0
 150.520507812 551.084960938 139.700195312 560.184570312 130.099609375 568.584960938 c 0
 116.896484375 580.138671875 94.2431640625 579.107421875 66.34375 574.629882812 c 0
 62.6123046875 574.030273438 60.3720703125 574.149414062 59.1279296875 571.98828125 c 2
 55.4833984375 565.657226562 l 2
 49.92578125 555.998046875 47.0009765625 545.049804688 47.0009765625 533.907226562 c 2
 47.0009765625 180.315429688 l 2
 47.0595703125 91.7861328125 48.3701171875 55.37109375 98.1650390625 28.0625 c 0
 123.270507812 14.2939453125 174.828125 54.634765625 180.69921875 58.001953125 c 0
 185.294921875 60.615234375 191.5390625 64.1953125 196.24609375 66.8955078125 c 0
 196.872070312 67.25390625 197.6640625 67.119140625 198.13671875 66.57421875 c 0
 198.607421875 66.0283203125 198.625976562 65.2236328125 198.182617188 64.6572265625 c 0
 181.170898438 43.0009765625 112.642578125 -40.9677734375 112.642578125 -40.9677734375 c 2
 107.986328125 -44.7578125 60.904296875 -28.7509765625 16 42.43359375 c 0
 6.49609375 57.5009765625 0.466796875 91.4384765625 0.5 111.184570312 c 0
 0.5 111.248046875 0.5009765625 111.502929688 0.5009765625 111.502929688 c 1
 0.5009765625 507.150390625 l 0
EndSplineSet
EndChar

StartChar: d
Encoding: 100 100 5
Width: 245
VWidth: 1120
Flags: W
VStem: -3.68652 47.0146<53.3355 511.634 511.901 558.794> 151.235 46.6787<77.563 438.892 439.17 540.755 606.776 846.88>
LayerCount: 2
Fore
SplineSet
-3.6865234375 133.715820312 m 1
 -3.869140625 142.560546875 -3.7275390625 511.901367188 -3.7275390625 511.901367188 c 2
 -3.7275390625 530.530273438 4.669921875 548.166992188 19.1298828125 559.912109375 c 2
 68.982421875 600.3984375 l 2
 86.9169921875 613.012695312 113.828125 615.483398438 136.658203125 611.8671875 c 0
 141.969726562 611.012695312 146.887695312 609.260742188 151.337890625 606.776367188 c 1
 151.337890625 755.009765625 l 2
 151.318359375 805.534179688 151.938476562 846.495117188 135.836914062 846.9296875 c 1
 135.836914062 846.9296875 175.107421875 905.15234375 191.142578125 928.921875 c 0
 192.041015625 930.256835938 193.708984375 930.846679688 195.248046875 930.376953125 c 0
 196.786132812 929.905273438 197.838867188 928.485351562 197.838867188 926.875 c 2
 197.9140625 98.107421875 l 2
 197.9140625 88.8974609375 203.622070312 80.65234375 212.241210938 77.4072265625 c 0
 219.157226562 74.8037109375 226.790039062 75.859375 232.671875 79.955078125 c 1
 233.463867188 78.783203125 l 1
 157.198242188 -34.2861328125 l 2
 156.419921875 -35.439453125 154.98046875 -35.94921875 153.649414062 -35.54296875 c 0
 152.3203125 -35.1357421875 151.411132812 -33.908203125 151.411132812 -32.517578125 c 2
 151.399414062 27.953125 l 1
 151.3203125 27.8369140625 l 1
 85.9453125 -35.54296875 l 2
 81.2900390625 -39.3310546875 56.7216796875 -23.326171875 11.8173828125 47.859375 c 0
 -1.98828125 69.7470703125 -3.67578125 111.572265625 -3.6865234375 133.715820312 c 1
151.337890625 439.169921875 m 2
 150.599609375 488.66015625 136.646484375 519.529296875 129.638671875 540.76171875 c 0
 120.671875 567.55859375 93.607421875 583.908203125 65.71484375 579.379882812 c 0
 61.9853515625 578.78125 58.3828125 577.876953125 54.8994140625 576.740234375 c 2
 51.255859375 570.408203125 l 2
 45.69921875 560.75 42.7724609375 549.80078125 42.7724609375 538.657226562 c 2
 43.3330078125 133.037109375 l 1
 43.328125 133.037109375 l 1
 44.6591796875 85.220703125 52.40234375 65.287109375 72.05859375 45.376953125 c 0
 115.24609375 1.6328125 142.32421875 36.345703125 149.510742188 45.685546875 c 0
 150.596679688 46.513671875 151.235351562 47.80078125 151.235351562 49.166015625 c 0
 151.258789062 56.1142578125 151.337890625 439.169921875 151.337890625 439.169921875 c 2
EndSplineSet
EndChar

StartChar: e
Encoding: 101 101 6
Width: 228
VWidth: 1146
Flags: W
HStem: 583.823 32.4854<66.8883 118.997>
VStem: 2.5 46.5029<55.9516 306.919 335.394 545.402 545.501 565.637> 137.262 48.373<428.032 570.945>
LayerCount: 2
Fore
SplineSet
82.8837890625 326.301757812 m 4
 78.099609375 321.2265625 49.0009765625 273.2265625 49.0009765625 240.913085938 c 6
 49.0009765625 183.708984375 l 6
 49.0595703125 95.1796875 50.3701171875 58.7646484375 100.1640625 31.45703125 c 4
 125.268554688 17.6884765625 164.827148438 58.029296875 170.69921875 61.3955078125 c 4
 175.294921875 64.0087890625 181.5390625 67.5888671875 186.245117188 70.2890625 c 4
 186.87109375 70.6474609375 187.663085938 70.5126953125 188.13671875 69.9677734375 c 4
 188.607421875 69.421875 188.625976562 68.6181640625 188.180664062 68.05078125 c 4
 171.170898438 46.39453125 114.641601562 -37.57421875 114.641601562 -37.57421875 c 6
 109.985351562 -41.36328125 62.9033203125 -25.357421875 18 45.8271484375 c 4
 8.4951171875 60.8955078125 2.466796875 94.8330078125 2.5 114.579101562 c 4
 2.5 114.642578125 2.5 114.896484375 2.5 114.896484375 c 5
 2.5 518.744140625 l 6
 2.5 537.374023438 10.896484375 555.010742188 25.357421875 566.754882812 c 6
 72.80859375 604.841796875 l 6
 90.744140625 617.456054688 117.65625 619.926757812 140.484375 616.30859375 c 4
 159.795898438 613.208984375 173.893554688 598.22265625 179.272460938 579.41796875 c 4
 187.948242188 549.099609375 185.634765625 439.16796875 185.634765625 439.041015625 c 4
 185.634765625 435.275390625 183.700195312 428.026367188 183.700195312 428.026367188 c 5
 183.700195312 428.026367188 119.856445312 365.530273438 82.8837890625 326.301757812 c 4
69.501953125 336.697265625 m 4
 95.6484375 367.19140625 126.103515625 407.25390625 130.172851562 412.982421875 c 4
 134.899414062 419.63671875 136.849609375 427.6328125 137.26171875 435.784179688 c 4
 139.766601562 485.274414062 141.395507812 523.97265625 133.467773438 545.205078125 c 4
 123.583007812 571.677734375 97.4345703125 588.3515625 69.54296875 583.823242188 c 4
 65.8125 583.224609375 64.6103515625 584.719726562 61.1259765625 583.58203125 c 6
 57.484375 577.251953125 l 6
 51.92578125 567.591796875 49.0009765625 556.64453125 49.0009765625 545.500976562 c 6
 49.0009765625 545.500976562 49.0009765625 408.974609375 49.0029296875 347.5 c 4
 49.0029296875 342.05078125 52.4033203125 337.181640625 57.5185546875 335.303710938 c 4
 62.6337890625 333.426757812 65.9765625 332.541992188 69.501953125 336.697265625 c 4
EndSplineSet
EndChar

StartChar: f
Encoding: 102 102 7
Width: 154
VWidth: 1148
Flags: W
HStem: 560.948 46.3252<-24.0162 14.7982 61.3258 147.154>
VStem: 14.7998 46.501<-241.836 -98.5329 -98.5303 560.863 607.271 868.771>
LayerCount: 2
Fore
SplineSet
14.8017578125 424.310546875 m 6
 14.7998046875 424.310546875 l 5
 14.7998046875 560.948242188 l 5
 -50.6044921875 560.779296875 l 5
 -50.6044921875 560.779296875 -21.9033203125 587.384765625 -7.919921875 600.346679688 c 4
 -3.1103515625 604.8046875 3.2060546875 607.278320312 9.763671875 607.2734375 c 4
 12.541015625 607.272460938 14.7998046875 607.271484375 14.7998046875 607.271484375 c 5
 14.7998046875 832.528320312 l 6
 14.7998046875 843.091796875 19.21875 853.172851562 26.9853515625 860.333007812 c 6
 80.251953125 909.4296875 l 6
 100.5 927.258789062 134.158203125 943.265625 179.0625 872.081054688 c 4
 182.555664062 866.541992188 177.236328125 861.534179688 177.236328125 861.534179688 c 5
 115.145507812 797.43359375 l 5
 113.455078125 800.6953125 l 5
 113.455078125 800.6953125 121.311523438 812.099609375 127.44921875 821.010742188 c 4
 131.979492188 827.587890625 133.264648438 835.87109375 130.938476562 843.509765625 c 4
 130.659179688 844.428710938 130.370117188 845.37890625 130.072265625 846.35546875 c 4
 123.202148438 868.91796875 104.049804688 885.575195312 80.7529296875 889.249023438 c 5
 77.7802734375 889.71875 74.7451171875 888.970703125 72.3310546875 887.173828125 c 6
 72.3310546875 887.173828125 68.1416015625 884.056640625 64.9267578125 881.6640625 c 4
 62.64453125 879.965820312 61.30078125 877.2890625 61.30078125 874.443359375 c 6
 61.30078125 607.240234375 l 5
 173.7421875 607.322265625 l 5
 173.7421875 607.322265625 145.041992188 580.71875 131.056640625 567.756835938 c 4
 126.247070312 563.298828125 119.930664062 560.82421875 113.374023438 560.829101562 c 4
 95.7099609375 560.83984375 61.30078125 560.86328125 61.30078125 560.86328125 c 5
 61.30078125 -103.703125 l 6
 61.30078125 -190.4296875 37.14453125 -275.442382812 -8.4599609375 -349.2109375 c 4
 -19.2509765625 -366.666015625 -26.8984375 -379.03515625 -26.8984375 -379.03515625 c 5
 -29.9404296875 -374.291015625 l 5
 -29.9404296875 -374.291015625 -26.9296875 -366.889648438 -22.3056640625 -355.516601562 c 4
 9.5869140625 -277.088867188 23.158203125 -192.564453125 18.4521484375 -108.033203125 c 4
 18.1201171875 -102.077148438 18.4521484375 -98.5302734375 18.4521484375 -98.5302734375 c 5
 14.8017578125 424.310546875 l 6
EndSplineSet
EndChar

StartChar: g
Encoding: 103 103 8
Width: 235
VWidth: 1170
Flags: W
HStem: 599.701 20G<176.905 190.396>
VStem: 5.25098 46.501<-216.691 -84.6657 69.3056 115.529 115.529 568.743> 143.895 46.501<-229.288 25.4619 42.0069 566.977>
LayerCount: 2
Fore
SplineSet
51.78515625 -102.541015625 m 0
 52.5361328125 -185.328125 66.0732421875 -212.830078125 87.392578125 -233.903320312 c 0
 98.8779296875 -245.2578125 114.948242188 -246.254882812 127.154296875 -244.82421875 c 1
 131.717773438 -233.817382812 135.645507812 -224.340820312 138.01171875 -218.622070312 c 0
 139.762695312 -214.404296875 141.053710938 -210.010742188 141.86328125 -205.515625 c 0
 145.092773438 -187.8984375 145.170898438 -176.828125 143.89453125 -133.064453125 c 2
 143.89453125 25.4619140625 l 1
 94.8779296875 -23.9462890625 l 2
 90.2236328125 -27.736328125 65.6552734375 -11.7294921875 20.7509765625 59.455078125 c 0
 11.2470703125 74.5224609375 5.2177734375 95.46484375 5.2509765625 115.2109375 c 0
 5.2509765625 115.274414062 5.251953125 115.529296875 5.251953125 115.529296875 c 1
 5.251953125 178.677734375 l 1
 5.2509765625 178.677734375 l 1
 5.2509765625 521.97265625 l 2
 5.2509765625 540.224609375 13.3125 557.544921875 27.27734375 569.297851562 c 2
 73.4765625 607.009765625 l 2
 91.4091796875 619.3671875 118.078125 621.771484375 140.729492188 618.182617188 c 0
 154.918945312 615.903320312 167.004882812 607.384765625 174.028320312 595.436523438 c 1
 190.395507812 619.701171875 l 1
 190.395507812 -167.305664062 l 2
 190.395507812 -189.784179688 182.84765625 -211.614257812 168.9609375 -229.29296875 c 2
 94.8779296875 -324.184570312 l 2
 94.666015625 -324.356445312 94.4130859375 -324.489257812 94.119140625 -324.576171875 c 2
 94.0205078125 -324.701171875 l 1
 94.06640625 -324.58984375 l 1
 87.8076171875 -326.302734375 63.4912109375 -308.536132812 20.7509765625 -240.783203125 c 0
 11.3232421875 -225.8359375 5.3154296875 -192.321289062 5.251953125 -172.5078125 c 1
 5.2509765625 -174.267578125 l 1
 5.2509765625 -138.631835938 l 2
 5.2509765625 -120.37890625 13.3125 -95.859375 27.27734375 -84.10546875 c 0
 48.3505859375 -66.375 76.9443359375 -42.314453125 76.9443359375 -42.314453125 c 1
 76.9443359375 -42.314453125 66.96875 -60.5302734375 59.5732421875 -74.0380859375 c 0
 54.7744140625 -82.806640625 52.109375 -92.5703125 51.78515625 -102.541015625 c 0
143.89453125 432.763671875 m 1
 143.793945312 432.763671875 l 1
 143.754882812 489.762695312 141.299804688 524.083984375 133.711914062 547.079101562 c 0
 124.743164062 573.875 97.6787109375 590.223632812 69.787109375 585.6953125 c 0
 67.021484375 585.252929688 64.5107421875 584.780273438 62.19921875 584.271484375 c 0
 61.3486328125 582.647460938 60.470703125 581.004882812 59.5732421875 579.365234375 c 0
 54.44140625 569.991210938 51.751953125 559.478515625 51.751953125 548.791015625 c 2
 51.751953125 184.341796875 l 1
 51.810546875 95.8134765625 65.498046875 74.982421875 87.392578125 53.33984375 c 0
 100.473632812 40.412109375 119.497070312 40.9130859375 131.995117188 43.134765625 c 0
 136.078125 43.8671875 140.067382812 45.0263671875 143.89453125 46.5908203125 c 2
 143.89453125 432.763671875 l 1
EndSplineSet
EndChar

StartChar: h
Encoding: 104 104 9
Width: 259
VWidth: 1126
Flags: W
VStem: 7.69434 46.457<73.1058 93.6309 133.088 567.136 750.825 842.607> 162.509 46.4961<14.9298 161.761>
LayerCount: 2
Fore
SplineSet
209.004882812 161.764648438 m 2
 209.075195312 161.764648438 209.00390625 423.733398438 209.00390625 423.733398438 c 1
 209.00390625 423.733398438 209.7265625 516.510742188 198.147460938 572.119140625 c 0
 194.086914062 591.231445312 178.6875 605.877929688 159.39453125 608.974609375 c 0
 136.587890625 612.588867188 109.704101562 610.120117188 91.7861328125 597.51953125 c 2
 54.1513671875 567.135742188 l 1
 54.1513671875 922.524414062 l 2
 54.1513671875 924.1328125 53.1015625 925.551757812 51.5625 926.022460938 c 0
 50.025390625 926.493164062 48.359375 925.903320312 47.4609375 924.569335938 c 0
 31.4423828125 900.821289062 -7.7890625 842.657226562 -7.7890625 842.657226562 c 1
 8.294921875 842.220703125 7.67578125 801.299804688 7.6943359375 750.825195312 c 2
 7.6943359375 -36.8681640625 l 2
 7.6943359375 -38.2578125 8.6025390625 -39.4853515625 9.9306640625 -39.890625 c 0
 11.2607421875 -40.296875 12.697265625 -39.787109375 13.4755859375 -38.6357421875 c 0
 29.9833984375 -14.1611328125 76.9697265625 55.5 89.66796875 74.3251953125 c 1
 88.87890625 75.4970703125 l 1
 83 71.4033203125 75.3759765625 70.3486328125 68.4658203125 72.9501953125 c 0
 59.8544921875 76.1923828125 54.15234375 84.4287109375 54.15234375 93.630859375 c 0
 54.15234375 108.795898438 54.15234375 121.01171875 54.1513671875 132.859375 c 2
 54.1513671875 132.859375 54.1513671875 447.616210938 54.1650390625 536.189453125 c 0
 54.1650390625 555.041015625 67.0673828125 571.447265625 85.3896484375 575.889648438 c 0
 86.423828125 576.139648438 87.4677734375 576.349609375 88.521484375 576.51953125 c 0
 116.38671875 581.043945312 143.424804688 564.709960938 152.384765625 537.938476562 c 0
 159.965820312 514.967773438 162.41796875 480.678710938 162.45703125 423.733398438 c 2
 162.45703125 423.732421875 l 1
 162.508789062 161.764648438 l 1
 162.508789062 161.764648438 161.99609375 157.12890625 162.328125 151.172851562 c 0
 167.03515625 66.6396484375 153.461914062 -17.8837890625 121.5703125 -96.3115234375 c 0
 116.946289062 -107.684570312 113.936523438 -115.084960938 113.936523438 -115.084960938 c 1
 116.977539062 -119.829101562 l 1
 116.977539062 -119.829101562 124.625 -107.459960938 135.415039062 -90.005859375 c 0
 181.016601562 -16.2353515625 209.005859375 41.7646484375 209.004882812 161.764648438 c 2
209.004882812 161.764648438 m 1025
162.508789062 161.764648438 m 1025
EndSplineSet
EndChar

StartChar: i
Encoding: 105 105 10
Width: 131
VWidth: 1135
Flags: W
VStem: 22.209 46.502<76.2612 531.07>
LayerCount: 2
Fore
SplineSet
76.7529296875 739.80859375 m 4
 77.4794921875 738.764648438 78.1943359375 737.734375 78.8974609375 736.724609375 c 4
 86.875 725.248046875 86.875 710.01953125 78.8974609375 698.541992188 c 4
 66.3037109375 680.427734375 49.291015625 655.953125 49.291015625 655.953125 c 5
 49.291015625 655.953125 32.2763671875 680.427734375 19.6845703125 698.541992188 c 4
 11.705078125 710.01953125 11.705078125 725.248046875 19.6845703125 736.724609375 c 4
 20.38671875 737.734375 21.1015625 738.764648438 21.828125 739.80859375 c 4
 28.080078125 748.801757812 38.3388671875 754.163085938 49.291015625 754.163085938 c 4
 60.2431640625 754.163085938 70.501953125 748.801757812 76.7529296875 739.80859375 c 4
103.46875 78.654296875 m 5
 104.260742188 77.4814453125 l 5
 91.5498046875 58.638671875 44.517578125 -11.08984375 27.994140625 -35.587890625 c 4
 27.2177734375 -36.740234375 25.7783203125 -37.25 24.447265625 -36.8427734375 c 4
 23.1171875 -36.4365234375 22.208984375 -35.2080078125 22.208984375 -33.818359375 c 6
 28.208984375 439.19921875 l 6
 28.1904296875 489.723632812 28.810546875 530.684570312 12.708984375 531.120117188 c 5
 12.708984375 531.120117188 51.9794921875 589.340820312 68.013671875 613.112304688 c 4
 68.9130859375 614.446289062 70.580078125 615.037109375 72.119140625 614.564453125 c 4
 73.6572265625 614.094726562 74.7099609375 612.674804688 74.7099609375 611.064453125 c 6
 68.7099609375 139.676757812 l 6
 68.7109375 127.818359375 68.7109375 111.986328125 68.7109375 96.8056640625 c 4
 68.7109375 87.5966796875 74.41796875 79.3505859375 83.037109375 76.10546875 c 4
 89.955078125 73.5029296875 97.5859375 74.5576171875 103.46875 78.654296875 c 5
EndSplineSet
EndChar

StartChar: j
Encoding: 106 106 11
Width: 133
VWidth: 1158
Flags: W
VStem: 33.3184 46.2617<-159.353 -16.0485 -16.0459 443.555 443.908 547.4>
LayerCount: 2
Fore
SplineSet
80.7294921875 755.76953125 m 0
 81.4560546875 754.725585938 82.1708984375 753.6953125 82.8740234375 752.685546875 c 0
 90.8525390625 741.208984375 90.8525390625 725.98046875 82.8740234375 714.502929688 c 0
 70.28125 696.388671875 53.267578125 671.9140625 53.267578125 671.9140625 c 1
 53.267578125 671.9140625 36.25390625 696.388671875 23.662109375 714.502929688 c 0
 15.6826171875 725.98046875 15.6826171875 741.208984375 23.662109375 752.685546875 c 0
 24.36328125 753.6953125 25.078125 754.725585938 25.8046875 755.76953125 c 0
 32.056640625 764.762695312 42.3154296875 770.124023438 53.267578125 770.124023438 c 0
 64.220703125 770.124023438 74.478515625 764.762695312 80.7294921875 755.76953125 c 0
79.580078125 -21.21875 m 2
 79.580078125 -107.9453125 55.423828125 -192.958984375 9.8193359375 -266.727539062 c 0
 -0.9697265625 -284.181640625 -8.6171875 -296.55078125 -8.6171875 -296.55078125 c 1
 -11.658203125 -291.806640625 l 1
 -11.658203125 -291.806640625 -8.6494140625 -284.40625 -4.025390625 -273.033203125 c 0
 27.8662109375 -194.60546875 41.439453125 -110.08203125 36.732421875 -25.548828125 c 0
 36.4013671875 -19.59375 36.732421875 -16.0458984375 36.732421875 -16.0458984375 c 1
 33.080078125 443.5546875 l 1
 33.318359375 443.908203125 l 1
 33.080078125 455.669921875 l 2
 33.0625 506.12890625 33.666015625 547.013671875 17.580078125 547.450195312 c 1
 17.580078125 547.450195312 56.8505859375 605.670898438 72.8837890625 629.442382812 c 0
 73.7841796875 630.776367188 75.4501953125 631.3671875 76.9892578125 630.895507812 c 0
 78.529296875 630.42578125 79.580078125 629.005859375 79.580078125 627.395507812 c 2
 79.580078125 -21.21875 l 2
EndSplineSet
EndChar

StartChar: k
Encoding: 107 107 12
Width: 260
VWidth: 1126
Flags: W
VStem: 7.67773 46.4561<71.9358 92.4609 352.736 390.736 753.255 845.037> 147.968 47.2188<475.159 544.749> 161.966 46.5469<13.6179 160.45>
LayerCount: 2
Fore
SplineSet
208.513671875 160.453125 m 2xa0
 207.928710938 160.453125 208.512695312 239.724609375 208.512695312 239.724609375 c 1xa0
 208.512695312 239.724609375 209.235351562 332.501953125 197.655273438 388.109375 c 0
 193.595703125 407.221679688 178.196289062 421.866210938 158.904296875 424.963867188 c 0
 147.315429688 426.80078125 134.674804688 427.067382812 122.694335938 425.232421875 c 1
 162.758789062 462.0390625 l 2
 183.424804688 481.025390625 195.186523438 525.803710938 195.186523438 553.865234375 c 0
 195.186523438 589.759765625 195.16796875 624.6484375 195.16796875 624.6484375 c 2
 195.16796875 626.255859375 194.118164062 627.67578125 192.581054688 628.145507812 c 0
 191.041992188 628.6171875 189.376953125 628.02734375 188.477539062 626.692382812 c 0
 172.459960938 602.9453125 133.2265625 544.78125 133.2265625 544.78125 c 1
 149.3125 544.34375 149.919921875 528.073242188 147.967773438 514.084960938 c 0xc0
 146.708984375 505.064453125 144.385742188 476.55859375 139.528320312 468.852539062 c 0
 135.419921875 462.333984375 133.528320312 459.252929688 126.329101562 450.852539062 c 0
 122.852539062 446.797851562 109.475585938 433.438476562 99.728515625 426.123046875 c 0
 89.537109375 418.473632812 79.9677734375 410.030273438 71.078125 400.904296875 c 0
 66.818359375 396.53125 62.4228515625 392.018554688 59.1767578125 388.6875 c 0
 58.3427734375 387.829101562 57.072265625 387.564453125 55.96484375 388.014648438 c 0
 54.8583984375 388.465820312 54.1337890625 389.540039062 54.1337890625 390.736328125 c 2
 54.1337890625 924.955078125 l 2
 54.1337890625 926.5625 53.083984375 927.981445312 51.5458984375 928.453125 c 0
 50.0078125 928.922851562 48.3427734375 928.333007812 47.4443359375 927 c 0
 31.4248046875 903.251953125 -7.80859375 845.086914062 -7.80859375 845.086914062 c 1
 8.27734375 844.650390625 7.6591796875 803.73046875 7.677734375 753.254882812 c 2
 7.677734375 -38.0380859375 l 2
 7.677734375 -39.427734375 8.5859375 -40.6552734375 9.9130859375 -41.060546875 c 0
 11.2421875 -41.466796875 12.6806640625 -40.95703125 13.4580078125 -39.8056640625 c 0
 29.9658203125 -15.3310546875 76.9521484375 54.330078125 89.650390625 73.1552734375 c 1
 88.8603515625 74.3271484375 l 1
 82.9833984375 70.2333984375 75.359375 69.1787109375 68.447265625 71.7802734375 c 0
 59.837890625 75.021484375 54.1357421875 83.2587890625 54.1357421875 92.4609375 c 0
 54.1357421875 107.625976562 54.1357421875 123.44140625 54.1337890625 135.2890625 c 2
 54.1337890625 135.2890625 54.1337890625 291.162109375 54.1337890625 352.736328125 c 0
 54.1337890625 372.518554688 68.498046875 389.374023438 88.0302734375 392.509765625 c 1
 115.895507812 397.034179688 142.934570312 380.698242188 151.893554688 353.927734375 c 0
 159.473632812 330.958007812 161.926757812 296.668945312 161.965820312 239.724609375 c 2
 161.965820312 239.72265625 l 1
 161.965820312 239.72265625 161.985351562 160.453125 162.016601562 160.453125 c 1
 162.016601562 160.453125 161.504882812 155.81640625 161.836914062 149.861328125 c 0
 166.543945312 65.328125 152.969726562 -19.1953125 121.079101562 -97.623046875 c 0
 116.454101562 -108.99609375 113.4453125 -116.396484375 113.4453125 -116.396484375 c 1
 116.486328125 -121.140625 l 1
 116.486328125 -121.140625 124.133789062 -108.771484375 134.922851562 -91.3173828125 c 0
 180.525390625 -17.5478515625 207.928710938 40.453125 208.513671875 160.453125 c 2xa0
208.513671875 160.453125 m 1025
162.016601562 160.453125 m 1025
EndSplineSet
EndChar

StartChar: l
Encoding: 108 108 13
Width: 117
VWidth: 1120
Flags: W
VStem: 17.4326 46.457<63.6741 831.975>
LayerCount: 2
Fore
SplineSet
98.6162109375 66.0654296875 m 0
 99.4052734375 64.8935546875 l 1
 86.7080078125 46.068359375 39.720703125 -23.5927734375 23.212890625 -48.0673828125 c 0
 22.4365234375 -49.21875 20.998046875 -49.728515625 19.669921875 -49.322265625 c 0
 18.33984375 -48.9169921875 17.4326171875 -47.689453125 17.4326171875 -46.2998046875 c 2
 17.4326171875 740.193359375 l 2
 17.4150390625 790.66796875 18.033203125 831.588867188 1.9482421875 832.025390625 c 1
 1.9482421875 832.025390625 41.1806640625 890.189453125 57.19921875 913.9375 c 0
 58.0986328125 915.271484375 59.763671875 915.861328125 61.30078125 915.390625 c 0
 62.8388671875 914.919921875 63.8896484375 913.500976562 63.8896484375 911.892578125 c 2
 63.8896484375 127.02734375 l 2
 63.890625 115.1796875 63.890625 99.3642578125 63.890625 84.19921875 c 0
 63.890625 74.9970703125 69.591796875 66.759765625 78.203125 63.5185546875 c 0
 85.1142578125 60.9169921875 92.7373046875 61.9716796875 98.6162109375 66.0654296875 c 0
EndSplineSet
EndChar

StartChar: m
Encoding: 109 109 14
Width: 420
VWidth: 1146
Flags: W
VStem: -1.91309 46.501<74.5815 137.996 138.214 536.59> 168.658 46.501<70.981 437.878> 323.77 46.502<73.3813 427.078>
LayerCount: 2
Fore
SplineSet
75.4365234375 578.951171875 m 4
 56.6796875 570.60546875 44.59375 552.000976562 44.59375 531.471679688 c 4
 44.587890625 438.072265625 44.587890625 137.99609375 44.587890625 137.99609375 c 6
 44.58984375 126.137695312 44.58984375 110.305664062 44.58984375 95.125 c 4
 44.58984375 85.9169921875 50.2978515625 77.669921875 58.916015625 74.42578125 c 4
 65.833984375 71.822265625 73.4658203125 72.876953125 79.3486328125 76.974609375 c 5
 80.1396484375 75.80078125 l 5
 67.4296875 56.958984375 20.3974609375 -12.7705078125 3.8740234375 -37.2685546875 c 4
 3.095703125 -38.419921875 1.65625 -38.9296875 0.3251953125 -38.5234375 c 4
 -1.00390625 -38.1171875 -1.9130859375 -36.888671875 -1.9130859375 -35.4990234375 c 6
 -1.9130859375 444.71875 l 6
 -1.9306640625 495.243164062 -1.3115234375 536.204101562 -17.4130859375 536.639648438 c 5
 -17.4130859375 536.639648438 21.857421875 594.861328125 37.892578125 618.6328125 c 4
 38.7919921875 619.965820312 40.458984375 620.556640625 41.998046875 620.083984375 c 4
 43.537109375 619.614257812 44.587890625 618.194335938 44.587890625 616.583984375 c 6
 44.587890625 562.849609375 l 5
 97.8271484375 605.830078125 l 6
 115.760742188 618.443359375 142.672851562 620.9140625 165.501953125 617.294921875 c 4
 184.8125 614.1953125 200.227539062 599.53515625 204.290039062 580.403320312 c 4
 205.092773438 576.552734375 205.8359375 572.522460938 206.5234375 568.359375 c 5
 252.938476562 601.029296875 l 6
 270.875 613.643554688 297.78515625 616.114257812 320.614257812 612.495117188 c 4
 339.923828125 609.395507812 355.338867188 594.735351562 359.40234375 575.603515625 c 4
 370.993164062 519.943359375 370.26953125 427.078125 370.26953125 427.078125 c 5
 370.271484375 136.795898438 l 6
 370.272460938 124.9375 370.272460938 109.10546875 370.272460938 93.92578125 c 4
 370.272460938 84.716796875 375.979492188 76.470703125 384.598632812 73.2255859375 c 4
 391.514648438 70.623046875 399.142578125 71.677734375 405.024414062 75.76953125 c 6
 405.03125 75.7744140625 l 5
 405.822265625 74.6015625 l 5
 329.555664062 -38.46875 l 6
 328.778320312 -39.6201171875 327.33984375 -40.1298828125 326.0078125 -39.7236328125 c 4
 324.678710938 -39.31640625 323.76953125 -38.0888671875 323.76953125 -36.69921875 c 6
 323.678710938 427.076171875 l 5
 323.678710938 427.078125 l 6
 323.639648438 484.078125 321.184570312 518.3984375 313.596679688 541.391601562 c 4
 304.62890625 568.1875 277.564453125 584.538085938 249.671875 580.008789062 c 4
 244.501953125 579.1796875 239.578125 577.763671875 234.873046875 575.950195312 c 4
 218.25 569.520507812 208.108398438 557.434570312 210.23828125 539.740234375 c 4
 215.598632812 488.44921875 215.158203125 437.877929688 215.158203125 437.877929688 c 5
 215.159179688 134.396484375 l 6
 215.16015625 122.538085938 215.16015625 106.706054688 215.16015625 91.525390625 c 4
 215.16015625 82.31640625 220.8671875 74.0703125 229.486328125 70.8251953125 c 4
 236.40234375 68.22265625 244.03125 69.27734375 249.913085938 73.369140625 c 6
 249.919921875 73.3740234375 l 5
 250.7109375 72.201171875 l 5
 174.444335938 -40.8681640625 l 6
 173.666992188 -42.0205078125 172.2265625 -42.5302734375 170.896484375 -42.123046875 c 4
 169.56640625 -41.716796875 168.658203125 -40.48828125 168.658203125 -39.0986328125 c 6
 168.565429688 431.876953125 l 5
 168.565429688 431.877929688 l 6
 168.528320312 488.877929688 166.073242188 523.198242188 158.484375 546.19140625 c 4
 149.516601562 572.98828125 122.452148438 589.337890625 94.5595703125 584.80859375 c 4
 87.783203125 583.72265625 81.4287109375 581.625976562 75.4365234375 578.951171875 c 4
EndSplineSet
EndChar

StartChar: n
Encoding: 110 110 15
Width: 268
VWidth: 1145
Flags: W
VStem: 1.29004 46.501<65.481 128.896 129.113 525.09> 171.86 46.502<65.481 420.377>
LayerCount: 2
Fore
SplineSet
210.227539062 553.740234375 m 4
 218.963867188 497.90625 218.360351562 420.377929688 218.360351562 420.377929688 c 5
 218.362304688 128.896484375 l 6
 218.362304688 117.038085938 218.36328125 101.206054688 218.36328125 86.025390625 c 4
 218.36328125 76.81640625 224.0703125 68.5703125 232.689453125 65.3251953125 c 4
 239.604492188 62.72265625 247.233398438 63.77734375 253.114257812 67.869140625 c 6
 253.12109375 67.8740234375 l 5
 253.912109375 66.701171875 l 5
 177.646484375 -46.3681640625 l 6
 176.869140625 -47.5205078125 175.428710938 -48.0302734375 174.098632812 -47.623046875 c 4
 172.768554688 -47.216796875 171.860351562 -45.98828125 171.860351562 -44.5986328125 c 6
 171.768554688 420.376953125 l 5
 171.766601562 420.377929688 l 5
 171.73046875 477.377929688 169.274414062 511.698242188 161.686523438 534.69140625 c 4
 152.717773438 561.48828125 125.653320312 577.837890625 97.76171875 573.30859375 c 4
 90.986328125 572.22265625 84.6298828125 570.125976562 78.6376953125 567.451171875 c 4
 59.8818359375 559.10546875 47.796875 540.500976562 47.796875 519.971679688 c 4
 47.791015625 426.572265625 47.791015625 128.896484375 47.791015625 128.896484375 c 6
 47.7919921875 117.038085938 47.7919921875 101.206054688 47.7919921875 86.025390625 c 4
 47.7919921875 76.81640625 53.4990234375 68.5703125 62.1181640625 65.3251953125 c 4
 69.0361328125 62.72265625 76.6669921875 63.77734375 82.5498046875 67.8740234375 c 5
 83.341796875 66.701171875 l 5
 70.630859375 47.8583984375 23.5986328125 -21.8701171875 7.0751953125 -46.3681640625 c 4
 6.2978515625 -47.5205078125 4.859375 -48.0302734375 3.5283203125 -47.623046875 c 4
 2.1982421875 -47.216796875 1.2900390625 -45.98828125 1.2900390625 -44.5986328125 c 6
 1.2900390625 433.21875 l 6
 1.2705078125 483.743164062 1.890625 524.704101562 -14.2109375 525.139648438 c 5
 -14.2109375 525.139648438 25.0595703125 583.361328125 41.0947265625 607.1328125 c 4
 41.9931640625 608.465820312 43.6611328125 609.056640625 45.2001953125 608.583984375 c 4
 46.73828125 608.114257812 47.791015625 606.694335938 47.791015625 605.083984375 c 6
 47.791015625 551.349609375 l 5
 101.029296875 594.330078125 l 6
 118.963867188 606.943359375 145.874023438 609.4140625 168.705078125 605.794921875 c 4
 188.014648438 602.6953125 203.4296875 588.03515625 207.493164062 568.903320312 c 4
 208.295898438 565.052734375 209.037109375 561.022460938 209.7265625 556.859375 c 6
 210.227539062 553.740234375 l 4
EndSplineSet
EndChar

StartChar: o
Encoding: 111 111 16
Width: 255
VWidth: 1145
Flags: W
VStem: 4.0166 46.5<52.0907 564.687> 159.117 46.501<38.7045 560.384>
LayerCount: 2
Fore
SplineSet
4.0166015625 111.03515625 m 5
 4.0166015625 517.916015625 l 6
 4.0166015625 536.169921875 12.0771484375 553.490234375 26.04296875 565.2421875 c 6
 26.19140625 565.365234375 l 6
 44.4912109375 580.76171875 88.4873046875 602.806640625 88.4873046875 602.806640625 c 6
 96.3818359375 608.3046875 109.221679688 611.588867188 121.120117188 613.543945312 c 4
 140.689453125 616.853515625 160.668945312 610.674804688 174.955078125 596.897460938 c 4
 181.018554688 591.130859375 186.758789062 584.388671875 190.41015625 577.235351562 c 4
 206.59375 545.533203125 205.622070312 448.370117188 205.618164062 431.805664062 c 5
 205.618164062 100.888671875 l 6
 205.618164062 78.3203125 198.010742188 56.4111328125 184.024414062 38.69921875 c 4
 174.069335938 26.091796875 116.159179688 -41.4345703125 116.159179688 -41.4345703125 c 6
 111.501953125 -45.2236328125 64.4208984375 -29.216796875 19.5166015625 41.9677734375 c 4
 10.0126953125 57.0341796875 3.9833984375 90.9716796875 4.0166015625 110.717773438 c 4
 4.0166015625 110.782226562 4.0166015625 111.03515625 4.0166015625 111.03515625 c 5
144.708984375 30.373046875 m 4
 145.020507812 30.9052734375 145.297851562 31.46484375 145.533203125 32.048828125 c 4
 148.826171875 40.125 151.587890625 46.9482421875 153.38671875 51.39453125 c 4
 155.025390625 55.4345703125 156.244140625 59.634765625 157.0234375 63.9248046875 c 4
 160.315429688 81.7431640625 160.401367188 92.671875 159.1171875 136.716796875 c 6
 159.1171875 431.805664062 l 5
 159.01171875 431.805664062 l 5
 158.887695312 486.955078125 156.384765625 520.44921875 148.934570312 543.0234375 c 4
 148.486328125 544.365234375 147.733398438 545.943359375 146.752929688 547.689453125 c 4
 132.479492188 573.073242188 103.813476562 586.7734375 75.0966796875 581.93359375 c 4
 67.287109375 580.9921875 61.3740234375 580.306640625 60.9638671875 580.216796875 c 4
 60.1142578125 578.592773438 59.2353515625 576.94921875 58.3388671875 575.310546875 c 4
 53.20703125 565.936523438 50.5166015625 555.423828125 50.5166015625 544.736328125 c 6
 50.5166015625 179.84765625 l 6
 50.576171875 91.318359375 51.884765625 54.904296875 101.680664062 27.595703125 c 5
 101.680664062 27.595703125 101.681640625 27.5947265625 101.686523438 27.6025390625 c 5
 113.563476562 20.015625 128.801757812 20.166015625 140.528320312 27.984375 c 4
 142.083984375 29.0244140625 143.518554688 29.8642578125 144.708984375 30.373046875 c 4
EndSplineSet
EndChar

StartChar: p
Encoding: 112 112 17
Width: 256
VWidth: 1170
Flags: W
HStem: 579.837 32.4863<85.2703 136.98>
VStem: 6.15527 46.501<-232.748 15.4492 77.929 527.848> 161.18 46.5391<50.9887 426.906>
LayerCount: 2
Fore
SplineSet
6.1552734375 435.977539062 m 4
 6.1376953125 486.502929688 6.7578125 527.461914062 -9.34375 527.8984375 c 5
 -9.34375 527.8984375 29.9267578125 586.120117188 45.9599609375 609.890625 c 4
 46.8603515625 611.225585938 48.525390625 611.815429688 50.0654296875 611.34375 c 4
 51.60546875 610.874023438 52.65625 609.452148438 52.65625 607.84375 c 6
 52.65625 570.3984375 l 5
 90.384765625 600.856445312 l 6
 108.3203125 613.471679688 135.231445312 615.942382812 158.060546875 612.323242188 c 4
 177.372070312 609.223632812 192.78515625 594.563476562 196.848632812 575.432617188 c 4
 208.440429688 519.771484375 207.717773438 426.90625 207.717773438 426.90625 c 5
 207.71875 147.2109375 l 5
 207.717773438 147.2109375 l 5
 207.717773438 112.969726562 l 6
 207.717773438 90.490234375 200.169921875 68.6611328125 186.283203125 50.9833984375 c 6
 111.342773438 -44.42578125 l 6
 107.25 -47.7548828125 87.78515625 -35.7998046875 52.65625 15.44921875 c 5
 52.65625 -169.33203125 l 6
 52.6572265625 -181.190429688 52.6572265625 -197.022460938 52.6572265625 -212.202148438 c 4
 52.658203125 -221.411132812 58.3642578125 -229.658203125 66.984375 -232.903320312 c 4
 73.9013671875 -235.505859375 81.533203125 -234.450195312 87.416015625 -230.352539062 c 5
 88.20703125 -231.526367188 l 5
 75.4970703125 -250.370117188 28.46484375 -320.098632812 11.94140625 -344.595703125 c 4
 11.162109375 -345.749023438 9.7236328125 -346.258789062 8.3935546875 -345.8515625 c 4
 7.064453125 -345.4453125 6.1552734375 -344.216796875 6.1552734375 -342.826171875 c 6
 6.1552734375 107.536132812 l 5
 6.1552734375 107.727539062 l 6
 6.1552734375 107.790039062 6.1552734375 108.044921875 6.1552734375 108.044921875 c 5
 6.1552734375 435.977539062 l 4
52.65625 539.40234375 m 5
 52.65625 176.856445312 l 6
 52.6865234375 131.045898438 65.1201171875 95.677734375 77.1123046875 72.2119140625 c 4
 88.9208984375 49.2431640625 108.232421875 34.7880859375 134.05859375 34.75 c 4
 134.440429688 34.74609375 134.9375 34.7451171875 135.508789062 34.744140625 c 4
 140.76171875 34.74609375 145.49609375 37.91015625 147.506835938 42.7626953125 c 4
 150.760742188 50.6103515625 153.509765625 57.2470703125 155.333984375 61.6552734375 c 4
 157.083984375 65.8720703125 158.375976562 70.265625 159.185546875 74.759765625 c 4
 162.415039062 92.376953125 162.4921875 103.447265625 161.216796875 147.2109375 c 5
 161.1796875 147.2109375 l 5
 161.125 426.905273438 l 5
 161.125 426.90625 l 6
 161.0859375 483.905273438 158.630859375 518.2265625 151.04296875 541.219726562 c 4
 142.075195312 568.016601562 115.009765625 584.366210938 87.119140625 579.837890625 c 4
 87.1171875 579.837890625 87.1171875 579.836914062 87.1162109375 579.836914062 c 4
 67.2587890625 576.649414062 52.65625 559.512695312 52.65625 539.40234375 c 5
EndSplineSet
EndChar

StartChar: q
Encoding: 113 113 18
Width: 242
VWidth: 1170
Flags: W
VStem: 3.0459 46.5<55.6005 571.234> 142.549 46.5<-225.866 12.8506 28.3412 569.468>
LayerCount: 2
Fore
SplineSet
142.548828125 12.8505859375 m 6
 92.6748046875 -41.9833984375 l 6
 88.017578125 -45.7724609375 63.44921875 -29.7666015625 18.5478515625 41.41796875 c 4
 9.041015625 56.486328125 3.0146484375 81.759765625 3.0458984375 101.505859375 c 4
 3.0458984375 101.5703125 3.0458984375 101.823242188 3.0458984375 101.823242188 c 5
 3.0458984375 140.991210938 l 5
 3.0458984375 524.462890625 l 6
 3.0458984375 542.715820312 11.1083984375 560.036132812 25.07421875 571.7890625 c 6
 25.2216796875 571.912109375 l 6
 46.2578125 589.609375 71.70703125 609.20703125 71.70703125 609.20703125 c 5
 71.91796875 609.353515625 l 6
 89.8525390625 621.83984375 116.642578125 624.27734375 139.3828125 620.673828125 c 4
 151.891601562 618.665039062 162.764648438 611.80859375 169.978515625 602.025390625 c 5
 182.352539062 620.37109375 l 6
 183.251953125 621.706054688 184.918945312 622.295898438 186.458984375 621.82421875 c 4
 187.997070312 621.354492188 189.048828125 619.934570312 189.048828125 618.32421875 c 6
 189.048828125 -162.452148438 l 6
 189.049804688 -174.309570312 189.049804688 -190.141601562 189.049804688 -205.321289062 c 4
 189.049804688 -214.53125 194.7578125 -222.776367188 203.376953125 -226.021484375 c 4
 210.294921875 -228.625 217.92578125 -227.569335938 223.80859375 -223.47265625 c 5
 224.599609375 -224.645507812 l 5
 211.890625 -243.489257812 164.858398438 -313.216796875 148.333984375 -337.713867188 c 4
 147.555664062 -338.868164062 146.1171875 -339.377929688 144.787109375 -338.971679688 c 4
 143.45703125 -338.564453125 142.548828125 -337.336914062 142.548828125 -335.946289062 c 6
 142.548828125 12.8505859375 l 6
142.548828125 438.352539062 m 5
 142.443359375 438.352539062 l 5
 142.317382812 493.501953125 139.815429688 526.995117188 132.366210938 549.5703125 c 4
 123.397460938 576.366210938 96.3330078125 592.71484375 68.44140625 588.186523438 c 4
 65.67578125 587.743164062 63.1640625 587.270507812 60.853515625 586.762695312 c 4
 60.0029296875 585.138671875 58.265625 583.495117188 57.3681640625 581.856445312 c 4
 52.236328125 572.482421875 49.5458984375 561.969726562 49.5458984375 551.282226562 c 6
 49.5458984375 170.635742188 l 5
 49.546875 170.635742188 l 5
 49.60546875 82.1083984375 63.2919921875 61.2763671875 85.1884765625 39.6357421875 c 4
 98.267578125 26.7060546875 117.291015625 27.2080078125 129.790039062 29.4296875 c 4
 130.643554688 29.58203125 131.493164062 29.7548828125 132.33984375 29.9267578125 c 4
 138.301757812 31.2353515625 142.548828125 36.5166015625 142.548828125 42.6181640625 c 6
 142.548828125 438.352539062 l 5
EndSplineSet
EndChar

StartChar: r
Encoding: 114 114 19
Width: 208
VWidth: 1146
Flags: W
VStem: 8.40918 46.5<75.4936 526.701>
LayerCount: 2
Fore
SplineSet
54.9091796875 552.079101562 m 5
 104.823242188 598.083984375 l 6
 125.069335938 615.9140625 158.729492188 631.920898438 203.631835938 560.735351562 c 4
 207.126953125 555.197265625 201.807617188 550.188476562 201.807617188 550.188476562 c 5
 139.71484375 486.087890625 l 5
 138.026367188 489.350585938 l 5
 138.026367188 489.350585938 145.879882812 500.752929688 152.020507812 509.666015625 c 4
 156.55078125 516.243164062 157.834960938 524.524414062 155.508789062 532.165039062 c 4
 155.229492188 533.083007812 154.939453125 534.033203125 154.643554688 535.009765625 c 4
 147.7734375 557.572265625 128.620117188 574.229492188 105.322265625 577.904296875 c 5
 102.350585938 578.372070312 99.3154296875 577.625 96.90234375 575.829101562 c 6
 96.90234375 575.829101562 86.3701171875 567.9921875 75.85546875 560.166015625 c 4
 62.67578125 550.359375 54.9091796875 534.899414062 54.9091796875 518.471679688 c 6
 54.9091796875 138.90625 l 6
 54.9091796875 127.047851562 54.9111328125 111.215820312 54.9111328125 96.037109375 c 4
 54.9111328125 86.8271484375 60.6181640625 78.58203125 69.2373046875 75.337890625 c 4
 76.1552734375 72.732421875 83.787109375 73.7890625 89.669921875 77.8857421875 c 5
 90.4609375 76.7138671875 l 5
 77.7509765625 57.8701171875 30.71875 -11.857421875 14.1943359375 -36.35546875 c 4
 13.4169921875 -37.509765625 11.9765625 -38.0185546875 10.6474609375 -37.6123046875 c 4
 9.31640625 -37.205078125 8.4091796875 -35.978515625 8.4091796875 -34.587890625 c 6
 8.4091796875 434.830078125 l 6
 8.390625 485.354492188 9.009765625 526.315429688 -7.091796875 526.750976562 c 5
 -7.091796875 526.750976562 32.1796875 584.970703125 48.2119140625 608.7421875 c 4
 49.11328125 610.078125 50.7783203125 610.666992188 52.318359375 610.197265625 c 4
 53.8583984375 609.725585938 54.9091796875 608.305664062 54.9091796875 606.6953125 c 6
 54.9091796875 552.079101562 l 5
EndSplineSet
EndChar

StartChar: s
Encoding: 115 115 20
Width: 248
VWidth: 1145
Flags: W
VStem: -6.45801 46.4941<58.3045 159.309 159.361 214.439> 10.3008 46.501<467.548 554.954> 154.584 46.5215<45.9418 196.199 196.28 305.928>
LayerCount: 2
Fore
SplineSet
152.524414062 71.1630859375 m 4xa0
 155.81640625 88.9814453125 154.55859375 196.276367188 154.55859375 196.276367188 c 5
 154.583984375 196.280273438 l 5
 154.114257812 265.243164062 144.9375 291.4609375 129.853515625 310.338867188 c 4
 126.270507812 314.811523438 121.715820312 318.409179688 116.53515625 320.85546875 c 4
 109.10546875 324.3671875 94.087890625 330.326171875 79.8203125 337.065429688 c 4
 29.341796875 360.905273438 10.30078125 411.72265625 10.30078125 467.547851562 c 6
 10.30078125 508.185546875 l 6
 10.30078125 526.436523438 18.36328125 543.7578125 32.328125 555.508789062 c 6
 32.4775390625 555.631835938 l 6
 34.3115234375 557.176757812 83.376953125 609.23046875 83.376953125 609.23046875 c 6
 103.624023438 627.060546875 145.9453125 625.7421875 190.849609375 554.557617188 c 4
 194.342773438 549.018554688 189.025390625 544.010742188 189.025390625 544.010742188 c 5
 126.932617188 479.91015625 l 5
 125.2421875 483.171875 l 5
 125.2421875 483.171875 133.09765625 494.575195312 139.236328125 503.487304688 c 4
 143.767578125 510.063476562 145.052734375 518.34765625 142.7265625 525.986328125 c 4
 142.446289062 526.905273438 142.158203125 527.85546875 141.859375 528.830078125 c 4
 134.989257812 551.393554688 109.774414062 577.580078125 86.4775390625 581.25390625 c 4
 86.4765625 581.25390625 86.4765625 581.25390625 86.4765625 581.25390625 c 6
 83.50390625 581.72265625 66.142578125 573.272460938 66.142578125 573.272460938 c 6
 65.29296875 571.647460938 62.9228515625 567.215820312 62.025390625 565.577148438 c 4
 56.8935546875 556.204101562 56.8017578125 545.690429688 56.8017578125 535.00390625 c 6
 56.8017578125 467.547851562 l 5x60
 56.8017578125 467.547851562 56.8994140625 465.866210938 57.0654296875 463.005859375 c 4
 59.490234375 421.3984375 78.578125 386.504882812 119.306640625 377.659179688 c 4
 119.4453125 377.629882812 119.58203125 377.599609375 119.713867188 377.5703125 c 4
 122.098632812 377.053710938 124.498046875 376.600585938 126.907226562 376.21484375 c 4
 144.235351562 373.538085938 165.1015625 361.59765625 185.60546875 329.094726562 c 4
 195.109375 314.028320312 201.13671875 280.091796875 201.10546875 260.345703125 c 6
 201.10546875 193.995117188 l 5
 201.119140625 193.995117188 l 5
 201.119140625 108.125976562 l 6
 201.119140625 85.5576171875 193.51171875 63.6484375 179.525390625 45.9365234375 c 4
 169.5703125 33.330078125 109.259765625 -34.197265625 109.259765625 -34.197265625 c 6
 104.602539062 -37.9853515625 53.921875 -21.9794921875 9.017578125 49.205078125 c 4
 2.58984375 59.3935546875 -2.24609375 78.2099609375 -4.697265625 95.4365234375 c 4
 -5.8173828125 99.5439453125 -6.4638671875 103.399414062 -6.4580078125 106.829101562 c 4
 -6.4580078125 106.891601562 -6.482421875 159.346679688 -6.482421875 159.346679688 c 5
 -6.45703125 159.361328125 l 5
 -6.45703125 174.788085938 l 6
 -6.45703125 186.001953125 -2.09375 196.774414062 5.70703125 204.830078125 c 4
 23.78515625 223.491210938 55.6357421875 256.372070312 55.6357421875 256.372070312 c 5
 57.326171875 253.110351562 l 5
 57.326171875 253.110351562 53.990234375 247.90234375 50.24609375 242.057617188 c 4
 43.556640625 231.616210938 40.009765625 219.470703125 40.0244140625 207.071289062 c 4
 40.0361328125 198.42578125 40.0537109375 180.712890625 40.0361328125 176.172851562 c 4
 40.2724609375 95.505859375 43.482421875 60.9912109375 91.181640625 34.8330078125 c 5
 91.181640625 34.8330078125 91.1826171875 34.83203125 91.1875 34.8408203125 c 5
 103.064453125 27.25390625 124.302734375 27.4033203125 136.029296875 35.22265625 c 4
 137.584960938 36.26171875 139.01953125 37.1025390625 140.209960938 37.6103515625 c 4
 140.521484375 38.142578125 140.798828125 38.703125 141.034179688 39.2861328125 c 4
 144.327148438 47.36328125 147.088867188 54.185546875 148.887695312 58.6318359375 c 4
 150.526367188 62.6728515625 151.745117188 66.8720703125 152.524414062 71.1630859375 c 4xa0
EndSplineSet
EndChar

StartChar: t
Encoding: 116 116 21
Width: 208
VWidth: 1120
Flags: W
HStem: 564.954 46.4902<-20.161 33.6764 80.1843 181.81>
VStem: 33.8633 46.2871<59.5763 565.016 611.425 840.837>
LayerCount: 2
Fore
SplineSet
33.6845703125 611.424804688 m 5
 33.6494140625 748.966796875 l 6
 33.6318359375 799.490234375 34.2509765625 840.451171875 18.1494140625 840.88671875 c 5
 18.1494140625 840.88671875 57.419921875 899.108398438 73.455078125 922.879882812 c 4
 74.3544921875 924.212890625 76.021484375 924.803710938 77.55859375 924.333007812 c 4
 79.0986328125 923.861328125 80.150390625 922.44140625 80.150390625 920.831054688 c 6
 80.150390625 611.392578125 l 5
 208.395507812 611.444335938 l 5
 208.395507812 611.444335938 179.69921875 584.84375 165.713867188 571.880859375 c 4
 160.903320312 567.421875 154.583007812 564.947265625 148.024414062 564.954101562 c 4
 126.860351562 564.973632812 80.150390625 565.015625 80.150390625 565.015625 c 5
 80.150390625 174.288085938 l 6
 80.2080078125 85.759765625 94.109375 64.9287109375 116.00390625 43.2880859375 c 4
 129.084960938 30.3583984375 148.109375 30.8603515625 160.60546875 33.08203125 c 4
 167.267578125 34.2763671875 173.67578125 36.609375 179.547851562 39.9765625 c 4
 184.142578125 42.58984375 190.38671875 46.1708984375 195.09375 48.869140625 c 4
 195.719726562 49.228515625 196.512695312 49.09375 196.985351562 48.546875 c 4
 197.45703125 48.001953125 197.475585938 47.1982421875 197.030273438 46.630859375 c 4
 180.020507812 24.9765625 123.490234375 -46.9931640625 123.490234375 -46.9931640625 c 6
 118.8359375 -50.7822265625 94.267578125 -34.7763671875 49.36328125 36.4091796875 c 4
 39.859375 51.4755859375 33.830078125 85.412109375 33.86328125 105.158203125 c 6
 33.7021484375 565.150390625 l 5
 -46.75 564.943359375 l 5
 -46.75 564.943359375 -18.048828125 591.546875 -4.0634765625 604.509765625 c 4
 0.74609375 608.966796875 7.0625 611.442382812 13.619140625 611.4375 c 4
 22.40625 611.431640625 33.6845703125 611.424804688 33.6845703125 611.424804688 c 5
EndSplineSet
EndChar

StartChar: u
Encoding: 117 117 22
Width: 258
VWidth: 1146
Flags: W
VStem: 5 46.501<149.452 536.252> 160.002 46.501<78.7163 436.925 437.188 536.252>
LayerCount: 2
Fore
SplineSet
51.5009765625 149.452148438 m 5
 51.5400390625 90.373046875 59.1123046875 68.4365234375 80.7412109375 46.529296875 c 4
 123.927734375 2.787109375 151.006835938 37.4990234375 158.192382812 46.8388671875 c 4
 159.280273438 47.666015625 159.916992188 48.9541015625 159.916992188 50.3203125 c 4
 160.001953125 75.185546875 160.001953125 437.1875 160.001953125 437.1875 c 6
 159.984375 487.7109375 160.604492188 535.872070312 144.502929688 536.307617188 c 5
 144.502929688 536.307617188 183.7734375 594.529296875 199.806640625 618.30078125 c 4
 200.70703125 619.633789062 202.373046875 620.224609375 203.913085938 619.75390625 c 4
 205.452148438 619.283203125 206.502929688 617.862304688 206.502929688 616.252929688 c 6
 206.502929688 616.252929688 206.595703125 114.439453125 206.595703125 99.2607421875 c 4
 206.596679688 90.05078125 212.303710938 81.8046875 220.922851562 78.560546875 c 4
 227.840820312 75.95703125 235.471679688 77.01171875 241.35546875 81.109375 c 5
 242.146484375 79.9365234375 l 5
 165.879882812 -33.1328125 l 6
 165.1015625 -34.2861328125 163.663085938 -34.794921875 162.331054688 -34.388671875 c 4
 161.002929688 -33.9814453125 160.092773438 -32.7548828125 160.092773438 -31.36328125 c 6
 160.081054688 29.1064453125 l 5
 160.001953125 28.9892578125 l 5
 94.62890625 -34.388671875 l 6
 89.9716796875 -38.1796875 65.4033203125 -22.171875 20.5009765625 49.0126953125 c 4
 1.1611328125 79.6728515625 5 149.452148438 5 149.452148438 c 5
 5 437.1875 l 6
 4.9814453125 487.7109375 5.6005859375 535.872070312 -10.5 536.307617188 c 5
 -10.5 536.307617188 28.7705078125 594.529296875 44.8037109375 618.30078125 c 4
 45.7041015625 619.633789062 47.3701171875 620.224609375 48.91015625 619.75390625 c 4
 50.4501953125 619.283203125 51.5009765625 617.862304688 51.5009765625 616.252929688 c 6
 51.5009765625 149.452148438 l 5
EndSplineSet
EndChar

StartChar: v
Encoding: 118 118 23
Width: 271
VWidth: 1146
Flags: W
VStem: 7.31934 46.501<63.4416 535.988> 7.31934 5.78711<-42.7039 -41.4688> 178.131 46.2861<259.286 395.971 396.078 441.713 441.719 543.183>
LayerCount: 2
Fore
SplineSet
178.172851562 441.71875 m 6xa0
 178.154296875 492.243164062 178.774414062 542.803710938 162.673828125 543.240234375 c 5
 162.673828125 543.240234375 201.943359375 601.4609375 217.977539062 625.232421875 c 4
 218.876953125 626.56640625 220.543945312 627.15625 222.083007812 626.684570312 c 4
 223.623046875 626.21484375 224.673828125 624.793945312 224.673828125 623.18359375 c 4
 224.673828125 587.876953125 224.416992188 395.938476562 224.416992188 395.938476562 c 5
 224.322265625 395.970703125 l 5
 222.645507812 312.506835938 198.615234375 218.953125 154.657226562 147.84765625 c 4
 143.866210938 130.392578125 13.1064453125 -41.46875 13.1064453125 -41.46875 c 6
 12.328125 -42.6201171875 10.8876953125 -43.1298828125 9.55859375 -42.7236328125 c 4
 8.228515625 -42.31640625 7.3193359375 -41.0888671875 7.3193359375 -39.69921875 c 6x60
 7.3193359375 441.71875 l 6
 7.3017578125 492.243164062 7.9208984375 535.603515625 -8.1796875 536.040039062 c 5
 -8.1796875 536.040039062 31.0908203125 594.260742188 47.123046875 618.032226562 c 4
 48.0244140625 619.366210938 49.689453125 619.95703125 51.2294921875 619.484375 c 4
 52.76953125 619.014648438 53.8203125 617.59375 53.8203125 615.984375 c 4
 53.8203125 543.881835938 53.2451171875 177.17578125 53.0859375 73.5615234375 c 4
 53.0791015625 68.9677734375 55.986328125 64.875 60.3251953125 63.369140625 c 4
 64.6650390625 61.86328125 69.4833984375 63.275390625 72.3232421875 66.8857421875 c 4
 76.365234375 71.716796875 80.1396484375 76.439453125 82.5927734375 79.9765625 c 4
 91.5986328125 92.966796875 104.62109375 118.169921875 118.161132812 146.41796875 c 4
 157.452148438 228.466796875 177.938476562 330.249023438 178.130859375 421.219726562 c 4
 178.155273438 433.634765625 178.172851562 441.71875 178.172851562 441.71875 c 6xa0
EndSplineSet
EndChar

StartChar: w
Encoding: 119 119 24
Width: 431
VWidth: 1146
Flags: W
VStem: -7.48242 46.501<72.9034 530.998> -7.48242 5.78613<-33.2958 -32.0605> 163.282 45.7715<67.8193 193.785 232.285 393.349 393.487 530.946> 163.283 5.78418<-36.8963 -35.6611> 333.524 46.2461<259.655 389.778 389.878 527.346>
LayerCount: 2
Fore
SplineSet
209.522460938 393.348632812 m 5x88
 209.40625 321.006835938 209.125 142.9140625 209.053710938 77.615234375 c 4xa8
 209.045898438 73.2255859375 211.762695312 69.291015625 215.870117188 67.7451171875 c 4
 219.979492188 66.197265625 224.6171875 67.3623046875 227.506835938 70.666015625 c 4
 232.663085938 76.0595703125 237.637695312 81.625 240.521484375 85.7841796875 c 4
 251.212890625 101.204101562 278.364257812 133.827148438 291.766601562 168.317382812 c 4
 319.20703125 238.706054688 333.364257812 313.571289062 333.524414062 389.119140625 c 4
 333.578125 414.98828125 334.221679688 527.01171875 318.12109375 527.447265625 c 5
 318.12109375 527.447265625 357.391601562 585.668945312 373.424804688 609.440429688 c 4
 374.325195312 610.7734375 375.991210938 611.364257812 377.53125 610.891601562 c 4
 379.0703125 610.421875 380.12109375 609.001953125 380.12109375 607.391601562 c 4
 380.12109375 572.083984375 379.864257812 389.74609375 379.864257812 389.74609375 c 5
 379.770507812 389.778320312 l 5
 378.09375 306.314453125 354.063476562 224.760742188 310.104492188 153.655273438 c 4
 299.313476562 136.200195312 169.067382812 -35.6611328125 169.067382812 -35.6611328125 c 6
 168.291015625 -36.8125 166.850585938 -37.322265625 165.521484375 -36.916015625 c 4
 164.190429688 -36.5087890625 163.283203125 -35.28125 163.283203125 -33.8916015625 c 6x18
 163.283203125 -33.8916015625 163.283203125 150.786132812 163.282226562 191.92578125 c 4
 163.282226562 192.815429688 162.668945312 193.58984375 161.803710938 193.794921875 c 4
 160.936523438 194 160.041992188 193.581054688 159.643554688 192.784179688 c 4
 153.555664062 180.693359375 146.924804688 168.834960938 139.766601562 157.255859375 c 4
 128.9765625 139.80078125 -1.6962890625 -32.060546875 -1.6962890625 -32.060546875 c 6
 -2.4736328125 -33.212890625 -3.9130859375 -33.72265625 -5.244140625 -33.3154296875 c 4
 -6.57421875 -32.9091796875 -7.482421875 -31.6806640625 -7.482421875 -30.291015625 c 6x68
 -7.482421875 439.126953125 l 6
 -7.5009765625 489.651367188 -6.880859375 530.611328125 -22.982421875 531.047851562 c 5
 -22.982421875 531.047851562 16.2880859375 589.268554688 32.3232421875 613.040039062 c 4
 33.2216796875 614.374023438 34.8896484375 614.963867188 36.427734375 614.4921875 c 4
 37.966796875 614.022460938 39.0185546875 612.6015625 39.0185546875 610.991210938 c 4
 39.0185546875 538.459960938 38.4287109375 183.629882812 38.279296875 82.7734375 c 4
 38.2724609375 78.3173828125 41.068359375 74.3359375 45.2646484375 72.8310546875 c 4
 49.458984375 71.328125 54.1474609375 72.625 56.974609375 76.0712890625 c 4
 61.2197265625 80.880859375 65.2265625 85.689453125 67.7900390625 89.3837890625 c 4
 78.48046875 104.803710938 108.024414062 137.427734375 121.427734375 171.916992188 c 4
 148.868164062 242.305664062 163.026367188 317.170898438 163.184570312 392.719726562 c 4
 163.239257812 418.588867188 163.883789062 530.611328125 147.782226562 531.047851562 c 5
 147.782226562 531.047851562 187.053710938 589.268554688 203.0859375 613.040039062 c 4
 203.987304688 614.374023438 205.65234375 614.963867188 207.192382812 614.4921875 c 4
 208.732421875 614.022460938 209.782226562 612.6015625 209.782226562 610.991210938 c 4
 209.782226562 586.762695312 209.526367188 393.346679688 209.526367188 393.346679688 c 5
 209.522460938 393.348632812 l 5x88
EndSplineSet
EndChar

StartChar: z
Encoding: 122 122 25
Width: 277
VWidth: 1146
Flags: W
HStem: -30.4199 49.9648<43.0068 215.814> 566.521 46.501<40.8907 177.914>
VStem: -7.92676 50.9336<19.5449 172.499>
LayerCount: 2
Fore
SplineSet
43.0068359375 19.544921875 m 5
 103.73828125 25.4599609375 139.477539062 16.90234375 180.18359375 18.8359375 c 4
 198.6328125 19.6904296875 216.264648438 26.7021484375 230.260742188 38.7509765625 c 4
 236.1796875 43.849609375 241.06640625 48.177734375 243.315429688 49.466796875 c 4
 243.94140625 49.826171875 244.733398438 49.69140625 245.205078125 49.14453125 c 4
 245.676757812 48.599609375 245.696289062 47.7958984375 245.25 47.228515625 c 4
 235.135742188 34.349609375 224.3828125 4.2919921875 210.873046875 -18.2548828125 c 4
 206.250976562 -25.779296875 198.053710938 -30.365234375 189.223632812 -30.365234375 c 4
 142.852539062 -30.419921875 -7.9267578125 -30.419921875 -7.9267578125 -30.419921875 c 5
 -7.2958984375 -5.302734375 -5.5703125 24.6396484375 -3.2587890625 56.0859375 c 4
 6.4560546875 188.146484375 44.697265625 316.530273438 108.831054688 432.3828125 c 4
 128.291015625 467.475585938 151.225585938 511.483398438 177.9140625 566.520507812 c 5
 43.8232421875 566.520507812 l 6
 33.2646484375 566.520507812 -3.962890625 532.748046875 -3.962890625 532.748046875 c 5
 -3.962890625 537.487304688 l 5
 -3.962890625 537.487304688 20.8232421875 573.107421875 45.0361328125 595.42578125 c 4
 57.3125 606.740234375 73.3955078125 613.021484375 90.0888671875 613.021484375 c 6
 233.075195312 613.021484375 l 5
 107.724609375 410.696289062 52.078125 368.201171875 43.0068359375 19.544921875 c 5
EndSplineSet
EndChar

StartChar: Z
Encoding: 90 90 27
Width: 244
VWidth: 1119
Flags: W
HStem: -67.2119 49.918<43.3154 215.956> 850.711 46.4561<41.2013 178.093>
VStem: -7.56934 50.8848<-17.2939 146.727>
LayerCount: 2
Fore
SplineSet
43.3154296875 -17.2939453125 m 1
 103.98828125 -11.38671875 139.694335938 -19.9345703125 180.360351562 -18.0029296875 c 0
 198.791992188 -17.150390625 216.40625 -10.14453125 230.388671875 1.892578125 c 0
 236.302734375 6.9853515625 241.184570312 11.3095703125 243.430664062 12.59765625 c 0
 244.055664062 12.9580078125 244.84765625 12.8212890625 245.3203125 12.2763671875 c 0
 245.790039062 11.7314453125 245.809570312 10.9287109375 245.364257812 10.3623046875 c 0
 235.2578125 -2.50390625 224.515625 -32.533203125 211.020507812 -55.0576171875 c 0
 206.40234375 -62.5751953125 198.213867188 -67.15625 189.390625 -67.15625 c 0
 143.065429688 -67.2119140625 -7.5693359375 -67.2119140625 -7.5693359375 -67.2119140625 c 1
 -3.2783203125 110.040039062 10.2685546875 316.33984375 23.1865234375 432.981445312 c 0
 38.5673828125 572.022460938 85.6318359375 705.684570312 160.759765625 823.688476562 c 0
 166.275390625 832.313476562 172.044921875 841.319335938 178.092773438 850.7109375 c 1
 44.130859375 850.7109375 l 2
 33.5830078125 850.7109375 -3.6083984375 816.969726562 -3.6083984375 816.969726562 c 1
 -3.6083984375 821.704101562 l 1
 -3.6083984375 821.704101562 21.15234375 857.290039062 45.3427734375 879.588867188 c 0
 57.6064453125 890.891601562 73.673828125 897.166992188 90.3525390625 897.166992188 c 2
 233.200195312 897.166992188 l 1
 107.971679688 695.036132812 33.7880859375 524.204101562 43.3154296875 -17.2939453125 c 1
EndSplineSet
EndChar

StartChar: f_i
Encoding: 256 -1 28
Width: 245
VWidth: 1143
Flags: W
HStem: 560.66 46.3447<-24.3044 14.5257 61.1023 145.803>
VStem: 14.5312 46.5156<-192.035 -48.6715 -48.6689 560.574 607.001 868.593> 148.635 46.5215<65.3862 548.353>
LayerCount: 2
Fore
SplineSet
196.467773438 731.607421875 m 0
 197.194335938 730.563476562 197.909179688 729.533203125 198.612304688 728.5234375 c 0
 206.590820312 717.046875 206.590820312 701.818359375 198.612304688 690.341796875 c 0
 186.01953125 672.2265625 169.005859375 647.751953125 169.005859375 647.751953125 c 1
 169.005859375 647.751953125 151.9921875 672.2265625 139.400390625 690.341796875 c 0
 131.420898438 701.818359375 131.420898438 717.046875 139.400390625 728.5234375 c 0
 140.1015625 729.533203125 140.81640625 730.563476562 141.54296875 731.607421875 c 0
 147.794921875 740.600585938 158.053710938 745.961914062 169.005859375 745.961914062 c 0
 179.958984375 745.961914062 190.216796875 740.600585938 196.467773438 731.607421875 c 0
146.033203125 548.3515625 m 1
 141.22265625 562.721679688 129.618164062 562.081054688 61.046875 560.57421875 c 1
 61.046875 -53.8427734375 l 2
 61.046875 -140.60546875 36.880859375 -225.654296875 -8.7421875 -299.453125 c 0
 -19.537109375 -316.916015625 -27.1865234375 -329.2890625 -27.1865234375 -329.2890625 c 1
 -30.23046875 -324.544921875 l 1
 -30.23046875 -324.544921875 -27.2197265625 -317.139648438 -22.5927734375 -305.76171875 c 0
 9.3125 -227.302734375 22.8896484375 -142.743164062 18.1826171875 -58.1748046875 c 0
 17.849609375 -52.216796875 18.1826171875 -48.6689453125 18.1826171875 -48.6689453125 c 1
 14.53125 422.764648438 l 1
 14.52734375 422.764648438 l 1
 14.52734375 560.66015625 l 1
 -50.904296875 560.4921875 l 1
 -50.904296875 560.4921875 -22.19140625 587.106445312 -8.2001953125 600.07421875 c 0
 -3.3896484375 604.533203125 2.9296875 607.009765625 9.4892578125 607.004882812 c 0
 12.26953125 607.00390625 14.52734375 607.000976562 14.52734375 607.000976562 c 1
 14.52734375 832.334960938 l 2
 14.52734375 842.903320312 18.947265625 852.98828125 26.71875 860.150390625 c 2
 80.0068359375 909.268554688 l 2
 100.262695312 927.10546875 133.936523438 943.118164062 178.858398438 871.904296875 c 0
 182.353515625 866.36328125 177.033203125 861.353515625 177.033203125 861.353515625 c 1
 114.915039062 797.2265625 l 1
 113.223632812 800.489257812 l 1
 113.223632812 800.489257812 121.08203125 811.897460938 127.224609375 820.813476562 c 0
 131.756835938 827.392578125 133.041015625 835.678710938 130.71484375 843.321289062 c 0
 130.435546875 844.240234375 130.145507812 845.190429688 129.84765625 846.16796875 c 0
 122.9765625 868.739257812 103.81640625 885.404296875 80.5087890625 889.080078125 c 1
 80.5078125 889.080078125 l 2
 77.5341796875 889.548828125 74.498046875 888.80078125 72.083984375 887.00390625 c 2
 72.083984375 887.00390625 67.892578125 883.884765625 64.67578125 881.490234375 c 0
 62.392578125 879.79296875 61.046875 877.115234375 61.046875 874.268554688 c 2
 61.046875 606.970703125 l 1
 61.046875 606.970703125 137.41796875 606.421875 145.852539062 605.084960938 c 0
 165.171875 601.984375 185.275390625 580.990234375 190.658203125 562.1796875 c 0
 199.3359375 531.84765625 196.009765625 503.612304688 196.35546875 470.27734375 c 2
 195.155273438 128.826171875 l 2
 195.15625 116.962890625 195.15625 101.125 195.15625 85.9384765625 c 0
 195.15625 76.7255859375 200.866210938 68.4755859375 209.48828125 65.23046875 c 0
 216.41015625 62.625 224.044921875 63.681640625 229.9296875 67.7802734375 c 1
 230.720703125 66.6064453125 l 1
 218.005859375 47.755859375 170.954101562 -22.001953125 154.423828125 -46.5087890625 c 0
 153.645507812 -47.6630859375 152.205078125 -48.1728515625 150.874023438 -47.7666015625 c 0
 149.543945312 -47.359375 148.634765625 -46.1318359375 148.634765625 -44.7392578125 c 0
 148.634765625 44.4931640625 150.044921875 469.400390625 150.078125 479.646484375 c 0
 150.213867188 521.94140625 151.337890625 532.274414062 146.033203125 548.352539062 c 1
 146.033203125 548.3515625 l 1
EndSplineSet
Ligature2: "liga-1" f i
LCarets2: 1 -17
EndChar

StartChar: f_f
Encoding: 257 -1 29
Width: 290
VWidth: 1148
Flags: W
HStem: 559.709 46.3525<-23.9155 14.9212 61.4502 148.858 195.411 281.291>
VStem: 14.9258 46.5244<-242.313 -98.9254 -98.9229 559.624 606.059 872.487> 148.861 46.5244<-254.312 -110.924 -110.922 559.625 606.094 873.443>
LayerCount: 2
Fore
SplineSet
182.927734375 881.809570312 m 1
 214.349609375 905.971679688 l 1
 234.608398438 923.8125 268.287109375 935.028320312 313.217773438 863.801757812 c 0
 316.713867188 858.258789062 311.392578125 853.249023438 311.392578125 853.249023438 c 1
 249.262695312 789.111328125 l 1
 247.572265625 792.373046875 l 1
 247.572265625 792.373046875 255.431640625 803.784179688 261.575195312 812.702148438 c 0
 266.107421875 819.282226562 267.393554688 827.569335938 265.065429688 835.213867188 c 0
 264.787109375 836.1328125 264.49609375 837.083007812 264.200195312 838.060546875 c 0
 257.325195312 860.63671875 238.162109375 882.103515625 214.850585938 885.780273438 c 0
 214.849609375 885.780273438 214.849609375 885.780273438 214.849609375 885.780273438 c 0
 211.876953125 886.249023438 208.838867188 886.700195312 206.423828125 884.903320312 c 2
 206.423828125 884.903320312 202.232421875 881.784179688 199.015625 879.389648438 c 0
 196.731445312 877.690429688 195.385742188 875.012695312 195.385742188 872.166015625 c 2
 195.385742188 606.029296875 l 1
 307.895507812 606.111328125 l 1
 307.895507812 606.111328125 279.176757812 579.4921875 265.184570312 566.521484375 c 0
 260.372070312 562.061523438 254.052734375 559.584960938 247.491210938 559.58984375 c 0
 229.817382812 559.6015625 195.385742188 559.625 195.385742188 559.625 c 1
 195.385742188 -116.095703125 l 2
 195.385742188 -202.874023438 171.215820312 -287.938476562 125.584960938 -361.75 c 0
 114.788085938 -379.21484375 107.13671875 -391.591796875 107.13671875 -391.591796875 c 1
 104.092773438 -386.845703125 l 1
 104.092773438 -386.845703125 107.104492188 -379.439453125 111.731445312 -368.059570312 c 0
 143.643554688 -289.5859375 157.22265625 -205.01171875 152.512695312 -120.4296875 c 0
 152.181640625 -114.470703125 152.512695312 -110.921875 152.512695312 -110.921875 c 1
 148.861328125 422.990234375 l 1
 148.858398438 422.990234375 l 1
 148.858398438 559.708984375 l 1
 114.874023438 559.62109375 l 2
 114.436523438 559.599609375 113.99609375 559.588867188 113.555664062 559.588867188 c 2
 104.448242188 559.595703125 l 1
 83.416015625 559.541015625 l 1
 83.48828125 559.608398438 l 1
 61.4501953125 559.624023438 l 1
 61.4501953125 -104.096679688 l 2
 61.4501953125 -190.875 37.2802734375 -275.938476562 -8.3515625 -349.750976562 c 0
 -19.1474609375 -367.215820312 -26.798828125 -379.591796875 -26.798828125 -379.591796875 c 1
 -29.84375 -374.845703125 l 1
 -29.84375 -374.845703125 -26.83203125 -367.440429688 -22.2041015625 -356.060546875 c 0
 9.70703125 -277.586914062 23.287109375 -193.012695312 18.578125 -108.430664062 c 0
 18.2451171875 -102.471679688 18.578125 -98.9228515625 18.578125 -98.9228515625 c 1
 14.92578125 422.989257812 l 1
 14.9228515625 422.989257812 l 1
 14.9228515625 559.708984375 l 1
 -50.5205078125 559.541015625 l 1
 -50.5205078125 559.541015625 -21.8017578125 586.16015625 -7.80859375 599.129882812 c 0
 -2.9970703125 603.58984375 3.3232421875 606.06640625 9.8837890625 606.061523438 c 0
 12.6630859375 606.059570312 14.9228515625 606.05859375 14.9228515625 606.05859375 c 1
 14.9228515625 836.224609375 l 2
 14.9228515625 846.793945312 19.34375 856.881835938 27.115234375 864.043945312 c 2
 80.4130859375 913.169921875 l 1
 98.638671875 929.21875 141.74609375 932.651367188 182.927734375 881.80859375 c 1
 182.927734375 881.809570312 l 1
148.858398438 829.008789062 m 1
 148.826171875 830.649414062 148.720703125 832.924804688 148.583984375 835.37890625 c 0
 148.151367188 845.705078125 144.163085938 855.56640625 137.293945312 863.2890625 c 0
 125.814453125 876.141601562 105.581054688 893.637695312 80.9150390625 892.98046875 c 0
 80.9140625 892.98046875 l 0
 77.9404296875 893.450195312 74.9033203125 892.701171875 72.48828125 890.903320312 c 2
 72.48828125 890.903320312 68.2958984375 887.784179688 65.0791015625 885.389648438 c 0
 62.796875 883.690429688 61.4501953125 881.012695312 61.4501953125 878.166015625 c 2
 61.4501953125 606.029296875 l 1
 148.858398438 606.09375 l 1
 148.858398438 829.008789062 l 1
EndSplineSet
Ligature2: "liga-1" f f
LCarets2: 1 -24
EndChar

StartChar: f_l
Encoding: 258 -1 30
Width: 260
VWidth: 1148
Flags: W
HStem: 562.029 46.4102<-23.7432 15.0706 61.5809 123.426>
VStem: 15.0723 46.501<-241.836 -98.5329 -98.5303 562.062 608.472 868.771> 167.276 46.457<68.1233 740.406>
LayerCount: 2
Fore
SplineSet
15.07421875 424.310546875 m 2
 15.072265625 424.310546875 l 1
 15.072265625 562.1484375 l 1
 -50.3310546875 561.979492188 l 1
 -50.3310546875 561.979492188 -21.630859375 588.584960938 -7.646484375 601.546875 c 0
 -2.837890625 606.004882812 3.478515625 608.478515625 10.037109375 608.473632812 c 0
 12.814453125 608.47265625 15.072265625 608.471679688 15.072265625 608.471679688 c 1
 15.072265625 832.528320312 l 2
 15.072265625 843.091796875 19.4912109375 853.172851562 27.2587890625 860.333007812 c 2
 80.525390625 909.4296875 l 2
 100.772460938 927.258789062 134.431640625 943.265625 179.334960938 872.081054688 c 0
 182.828125 866.541992188 177.509765625 861.534179688 177.509765625 861.534179688 c 1
 115.418945312 797.43359375 l 1
 113.727539062 800.6953125 l 1
 113.727539062 800.6953125 121.583984375 812.099609375 127.72265625 821.010742188 c 0
 132.252929688 827.587890625 133.537109375 835.87109375 131.2109375 843.509765625 c 0
 130.931640625 844.428710938 130.642578125 845.37890625 130.344726562 846.35546875 c 0
 123.475585938 868.91796875 104.322265625 885.575195312 81.025390625 889.249023438 c 1
 78.0537109375 889.71875 75.0185546875 888.970703125 72.6044921875 887.173828125 c 2
 72.6044921875 887.173828125 68.4150390625 884.056640625 65.19921875 881.6640625 c 0
 62.91796875 879.965820312 61.5732421875 877.2890625 61.5732421875 874.443359375 c 2
 61.5732421875 608.439453125 l 1
 150.014648438 608.521484375 l 1
 150.014648438 608.521484375 121.314453125 581.918945312 107.329101562 568.95703125 c 0
 102.51953125 564.499023438 96.203125 562.024414062 89.646484375 562.029296875 c 0
 71.9833984375 562.0390625 61.5732421875 562.0625 61.5732421875 562.0625 c 1
 61.5732421875 -103.703125 l 2
 61.5732421875 -190.4296875 37.41796875 -275.442382812 -8.1875 -349.2109375 c 0
 -18.9775390625 -366.666015625 -26.625 -379.03515625 -26.625 -379.03515625 c 1
 -29.66796875 -374.291015625 l 1
 -29.66796875 -374.291015625 -26.6572265625 -366.889648438 -22.033203125 -355.516601562 c 0
 9.859375 -277.088867188 23.431640625 -192.564453125 18.724609375 -108.033203125 c 0
 18.3935546875 -102.077148438 18.724609375 -98.5302734375 18.724609375 -98.5302734375 c 1
 15.07421875 424.310546875 l 2
248.458984375 70.513671875 m 0
 249.249023438 69.341796875 l 1
 236.551757812 50.517578125 189.564453125 -19.1435546875 173.056640625 -43.6181640625 c 0
 172.280273438 -44.7705078125 170.841796875 -45.2802734375 169.513671875 -44.873046875 c 0
 168.18359375 -44.4677734375 167.276367188 -43.2412109375 167.276367188 -41.8515625 c 2
 167.276367188 624.642578125 l 2
 167.258789062 675.1171875 167.876953125 740.038085938 151.791015625 740.473632812 c 1
 151.791015625 740.473632812 191.024414062 798.638671875 207.04296875 822.38671875 c 0
 207.94140625 823.720703125 209.607421875 824.309570312 211.14453125 823.83984375 c 0
 212.681640625 823.369140625 213.733398438 821.94921875 213.733398438 820.341796875 c 2
 213.733398438 131.4765625 l 2
 213.734375 119.62890625 213.734375 103.8125 213.734375 88.6474609375 c 0
 213.734375 79.4462890625 219.435546875 71.208984375 228.046875 67.9677734375 c 0
 234.958007812 65.3662109375 242.581054688 66.4208984375 248.458984375 70.513671875 c 0
EndSplineSet
Ligature2: "liga-1" f l
LCarets2: 1 -18
EndChar

StartChar: s_t
Encoding: 259 -1 31
Width: 403
VWidth: 1120
Flags: W
HStem: 574.154 46.4902<183.095 229.804 276.309 377.936>
VStem: -7.87695 46.4941<61.3317 159.312 159.365 214.442> 8.88086 46.501<469.951 557.357> 151.104 48.5947<43.5463 198.599 198.683 306.986> 229.987 46.2881<71.1328 574.216 620.625 846.437>
LayerCount: 2
Fore
SplineSet
109.904296875 618.805664062 m 1xb8
 109.981445312 618.805664062 156.490234375 609.10546875 172.790039062 605.704101562 c 0
 176.325195312 605.001953125 179.986328125 605.983398438 182.698242188 608.359375 c 0
 182.701171875 608.35546875 182.701171875 608.35546875 182.701171875 608.35546875 c 1
 191.059570312 615.68359375 201.821289062 619.677734375 212.936523438 619.577148438 c 0
 221.40625 619.500976562 229.810546875 620.625 229.810546875 620.625 c 1
 229.775390625 754.56640625 l 2
 229.756835938 805.090820312 230.376953125 846.05078125 214.275390625 846.487304688 c 1
 214.275390625 846.487304688 253.545898438 904.708007812 269.578125 928.479492188 c 0
 270.479492188 929.813476562 272.14453125 930.404296875 273.684570312 929.932617188 c 0
 275.224609375 929.461914062 276.275390625 928.041015625 276.275390625 926.431640625 c 2
 276.275390625 620.592773438 l 1
 404.522460938 620.64453125 l 1
 404.522460938 620.64453125 375.82421875 594.043945312 361.838867188 581.081054688 c 0
 357.02734375 576.622070312 350.708007812 574.146484375 344.1484375 574.154296875 c 0
 322.986328125 574.173828125 276.275390625 574.215820312 276.275390625 574.215820312 c 1
 276.275390625 189.48828125 l 2
 276.333984375 100.959960938 290.233398438 75.3291015625 312.129882812 53.6875 c 0
 325.209960938 40.7587890625 344.232421875 41.259765625 356.731445312 43.482421875 c 0
 363.393554688 44.67578125 369.801757812 47.009765625 375.672851562 50.3759765625 c 0
 380.268554688 52.9892578125 386.512695312 56.5703125 391.219726562 59.26953125 c 0
 391.845703125 59.6279296875 392.637695312 59.4931640625 393.109375 58.947265625 c 0
 393.581054688 58.40234375 393.600585938 57.5986328125 393.155273438 57.03125 c 0
 376.145507812 35.3759765625 319.616210938 -36.59375 319.616210938 -36.59375 c 2
 314.958984375 -40.3818359375 290.390625 -24.376953125 245.489257812 46.80859375 c 0
 235.983398438 61.8759765625 229.956054688 95.8125 229.987304688 115.55859375 c 2
 229.826171875 574.350585938 l 1
 208.029296875 574.313476562 187.168945312 564.2890625 171.959960938 548.673828125 c 0
 158.952148438 535.20703125 144.9296875 521.971679688 143.706054688 525.990234375 c 0
 143.42578125 526.90625 143.13671875 527.859375 142.83984375 528.833984375 c 0
 135.970703125 551.397460938 108.354492188 577.583007812 85.0556640625 581.256835938 c 1
 82.083984375 581.725585938 64.72265625 575.674804688 64.72265625 575.674804688 c 2
 63.873046875 574.05078125 61.5009765625 569.619140625 60.6064453125 567.98046875 c 0
 55.4736328125 558.606445312 55.3818359375 548.09375 55.3818359375 537.40625 c 2
 55.3818359375 469.951171875 l 1xb8
 55.3818359375 469.951171875 55.48046875 468.26953125 55.646484375 465.41015625 c 0
 58.0703125 423.802734375 74.7587890625 388.90625 115.487304688 380.0625 c 0
 115.625976562 380.03125 115.76171875 380.00390625 115.895507812 379.974609375 c 0
 118.280273438 379.456054688 120.678710938 379.00390625 123.087890625 378.618164062 c 0
 140.415039062 375.940429688 163.681640625 364 184.184570312 331.498046875 c 0
 193.688476562 316.430664062 199.717773438 282.495117188 199.685546875 262.747070312 c 2
 199.685546875 196.3984375 l 1
 199.69921875 196.3984375 l 1
 199.69921875 105.729492188 l 2
 199.69921875 83.162109375 192.091796875 61.251953125 178.10546875 43.541015625 c 0
 168.150390625 30.9326171875 107.838867188 -34.193359375 107.838867188 -34.193359375 c 2
 103.182617188 -37.982421875 52.5 -21.9765625 7.59765625 49.208984375 c 0
 1.1708984375 59.3974609375 -3.6669921875 78.212890625 -6.1162109375 95.439453125 c 0
 -7.236328125 99.546875 -7.8828125 103.40234375 -7.876953125 106.830078125 c 0
 -7.876953125 106.89453125 -7.9033203125 159.349609375 -7.9033203125 159.349609375 c 1
 -7.8759765625 159.365234375 l 1
 -7.8759765625 174.791015625 l 2
 -7.8759765625 186.00390625 -3.5146484375 196.77734375 4.2880859375 204.83203125 c 0
 22.3662109375 223.495117188 54.2158203125 256.374023438 54.2158203125 256.374023438 c 1
 55.9052734375 253.114257812 l 1
 55.9052734375 253.114257812 52.5703125 247.90625 48.826171875 242.060546875 c 0
 42.1376953125 231.619140625 38.5888671875 219.474609375 38.60546875 207.072265625 c 0
 38.6171875 198.427734375 38.6337890625 180.715820312 38.6171875 176.17578125 c 0xd8
 38.853515625 95.509765625 44.4619140625 60.994140625 92.1611328125 34.8359375 c 1
 92.1611328125 34.8359375 92.1611328125 34.8359375 92.1669921875 34.8427734375 c 0
 104.044921875 27.2578125 120.483398438 25.005859375 132.209960938 32.82421875 c 0
 133.764648438 33.8642578125 135.198242188 34.705078125 136.389648438 35.212890625 c 0
 136.702148438 35.74609375 139.377929688 36.3056640625 139.614257812 36.890625 c 0
 142.907226562 44.9658203125 145.668945312 51.787109375 147.467773438 56.2353515625 c 0
 149.104492188 60.2763671875 150.325195312 64.474609375 151.104492188 68.765625 c 0
 154.395507812 86.58203125 153.137695312 198.680664062 153.137695312 198.680664062 c 1
 153.165039062 198.682617188 l 1
 152.6953125 267.646484375 141.1171875 292.662109375 126.033203125 311.541015625 c 0
 122.452148438 316.015625 117.896484375 319.612304688 112.71484375 322.05859375 c 0
 105.28515625 325.5703125 92.6669921875 331.530273438 78.3994140625 338.267578125 c 0
 27.9208984375 362.107421875 8.880859375 414.125 8.880859375 469.94921875 c 2
 8.880859375 510.586914062 l 2
 8.880859375 528.83984375 16.9423828125 546.16015625 30.908203125 557.912109375 c 2
 31.0556640625 558.036132812 l 2
 32.8916015625 559.580078125 81.9580078125 609.232421875 81.9580078125 609.232421875 c 2
 88.423828125 614.927734375 99.54296875 618.668945312 109.875 618.8046875 c 1
 109.904296875 618.805664062 l 1xb8
EndSplineSet
Ligature2: "liga-1" s t
LCarets2: 1 -36
EndChar

StartChar: t_t
Encoding: 260 -1 32
Width: 353
VWidth: 1120
Flags: W
HStem: 564.816 46.377<-20.5383 33.2994 79.7744 179.062 225.561 327.186>
VStem: 33.4854 46.2891<59.3761 564.816 611.225 846.637> 179.238 46.2891<55.7765 564.759 611.236 841.837>
LayerCount: 2
Fore
SplineSet
208.860351562 11.013671875 m 1
 123.11328125 -47.193359375 l 2
 118.458007812 -50.982421875 93.8896484375 -34.9765625 48.9853515625 36.208984375 c 0
 39.4814453125 51.275390625 33.453125 85.2119140625 33.4853515625 104.958007812 c 2
 33.32421875 564.951171875 l 1
 -47.126953125 564.743164062 l 1
 -47.126953125 564.743164062 -18.42578125 591.34765625 -4.44140625 604.309570312 c 0
 0.3681640625 608.767578125 6.6845703125 611.2421875 13.2412109375 611.237304688 c 0
 22.0283203125 611.231445312 33.3076171875 611.224609375 33.3076171875 611.224609375 c 1
 33.2724609375 754.766601562 l 2
 33.25390625 805.291015625 33.873046875 846.250976562 17.7734375 846.6875 c 1
 17.7734375 846.6875 57.04296875 904.908203125 73.0771484375 928.6796875 c 0
 73.9765625 930.013671875 75.6435546875 930.603515625 77.1826171875 930.1328125 c 0
 78.72265625 929.662109375 79.7744140625 928.241210938 79.7744140625 926.630859375 c 2
 79.7744140625 611.193359375 l 1
 179.061523438 611.217773438 l 1
 179.026367188 749.966796875 l 2
 179.008789062 800.490234375 179.626953125 841.451171875 163.526367188 841.88671875 c 1
 163.526367188 841.88671875 202.797851562 900.108398438 218.830078125 923.879882812 c 0
 219.731445312 925.212890625 221.396484375 925.803710938 222.936523438 925.333007812 c 0
 224.475585938 924.861328125 225.52734375 923.44140625 225.52734375 921.831054688 c 2
 225.52734375 611.236328125 l 1
 245.219726562 611.244140625 l 1
 245.172851562 611.201171875 l 1
 353.7734375 611.244140625 l 1
 353.7734375 611.244140625 325.075195312 584.64453125 311.088867188 571.680664062 c 0
 306.278320312 567.221679688 299.959960938 564.747070312 293.399414062 564.75390625 c 0
 272.237304688 564.7734375 225.52734375 564.81640625 225.52734375 564.81640625 c 1
 225.52734375 170.48828125 l 2
 225.5859375 81.9599609375 239.485351562 61.12890625 261.380859375 39.48828125 c 0
 274.4609375 26.55859375 293.484375 27.060546875 305.983398438 29.2822265625 c 0
 312.645507812 30.4765625 319.053710938 32.8095703125 324.922851562 36.17578125 c 0
 329.520507812 38.7890625 335.764648438 42.37109375 340.471679688 45.0693359375 c 0
 341.09765625 45.427734375 341.889648438 45.29296875 342.360351562 44.7470703125 c 0
 342.833007812 44.2021484375 342.8515625 43.3984375 342.40625 42.8310546875 c 0
 325.395507812 21.17578125 268.868164062 -50.79296875 268.868164062 -50.79296875 c 2
 264.725585938 -54.1650390625 244.819335938 -41.8662109375 208.860351562 11.013671875 c 1
179.077148438 564.758789062 m 2
 79.7744140625 564.81640625 l 1
 79.7744140625 174.087890625 l 2
 79.8330078125 85.560546875 93.732421875 64.728515625 115.625976562 43.087890625 c 0
 128.52734375 30.3369140625 184.407226562 27.048828125 196.90625 29.1904296875 c 1
 196.189453125 30.31640625 195.465820312 31.455078125 194.739257812 32.609375 c 0
 185.234375 47.67578125 179.206054688 81.6123046875 179.23828125 101.358398438 c 2
 179.077148438 564.758789062 l 2
EndSplineSet
Ligature2: "liga-1" t t
LCarets2: 1 -28
EndChar

StartChar: t_h
Encoding: 261 -1 33
Width: 450
VWidth: 1126
Flags: W
HStem: 564.731 46.377<-20.4969 33.3424 79.8154 202.816>
VStem: 33.5264 46.2891<65.2916 564.731 611.14 844.152> 202.816 46.502<70.2494 133.663 133.893 564.251 611.146 841.644> 357.876 46.4209<15.0836 161.614>
LayerCount: 2
Fore
SplineSet
201.875976562 20.0146484375 m 1
 123.155273438 -41.2783203125 l 2
 118.168945312 -45.16015625 93.9306640625 -29.0615234375 49.0283203125 42.1240234375 c 0
 39.5234375 57.19140625 33.4951171875 91.126953125 33.5263671875 110.873046875 c 2
 33.3662109375 564.866210938 l 1
 -47.0859375 564.658203125 l 1
 -47.0859375 564.658203125 -18.3837890625 591.262695312 -4.400390625 604.224609375 c 0
 0.4091796875 608.682617188 6.7255859375 611.157226562 13.2822265625 611.15234375 c 0
 22.0712890625 611.146484375 33.3505859375 611.139648438 33.3505859375 611.139648438 c 1
 33.314453125 752.28125 l 2
 33.2958984375 802.805664062 33.916015625 843.766601562 17.814453125 844.202148438 c 1
 17.814453125 844.202148438 57.0849609375 902.423828125 73.1181640625 926.1953125 c 0
 74.0185546875 927.528320312 75.6845703125 928.119140625 77.224609375 927.6484375 c 0
 78.7646484375 927.176757812 79.8154296875 925.756835938 79.8154296875 924.146484375 c 2
 79.8154296875 611.108398438 l 1
 202.81640625 611.145507812 l 1
 202.81640625 749.7734375 l 2
 202.797851562 800.297851562 203.41796875 841.2578125 187.31640625 841.694335938 c 1
 187.31640625 841.694335938 226.586914062 899.916015625 242.622070312 923.685546875 c 0
 243.520507812 925.020507812 245.188476562 925.611328125 246.725585938 925.140625 c 0
 248.265625 924.669921875 249.318359375 923.249023438 249.318359375 921.639648438 c 2
 249.318359375 570.751953125 l 1
 286.98828125 596.36328125 l 2
 304.923828125 608.977539062 331.833984375 611.448242188 354.6640625 607.829101562 c 0
 373.974609375 604.729492188 389.388671875 590.069335938 393.451171875 570.938476562 c 0
 405.04296875 515.27734375 404.319335938 433.211914062 404.319335938 433.211914062 c 1
 404.319335938 176.016601562 l 1
 404.334960938 166.919921875 404.297851562 161.620117188 404.296875 161.6171875 c 2
 404.11328125 42.4482421875 376.309570312 -16.3837890625 330.70703125 -90.1533203125 c 0
 319.91796875 -107.607421875 312.26953125 -119.9765625 312.26953125 -119.9765625 c 1
 309.228515625 -115.232421875 l 1
 309.228515625 -115.232421875 312.23828125 -107.83203125 316.862304688 -96.458984375 c 0
 348.750976562 -18.0302734375 362.583007812 66.283203125 357.875976562 150.81640625 c 0
 357.543945312 156.772460938 357.80078125 161.6171875 357.80078125 161.6171875 c 1
 357.80078125 161.6171875 357.818359375 176.016601562 357.798828125 176.016601562 c 1
 357.778320312 176.016601562 357.728515625 433.2109375 357.728515625 433.2109375 c 1
 357.7265625 433.211914062 l 1
 357.689453125 490.211914062 355.234375 518.533203125 347.646484375 541.525390625 c 0
 338.677734375 568.322265625 311.612304688 579.872070312 283.721679688 575.34375 c 0
 282.666015625 575.174804688 281.622070312 574.962890625 280.586914062 574.71484375 c 0
 262.24609375 570.265625 249.333007812 557.4453125 249.333007812 538.57421875 c 0
 249.318359375 449.916015625 249.318359375 133.663085938 249.318359375 133.663085938 c 2
 249.319335938 121.805664062 249.319335938 105.973632812 249.319335938 90.79296875 c 0
 249.319335938 81.583984375 255.026367188 73.3369140625 263.645507812 70.09375 c 0
 270.5625 67.490234375 278.194335938 68.5439453125 284.077148438 72.642578125 c 1
 284.869140625 71.46875 l 1
 272.158203125 52.625 225.125976562 -17.1025390625 208.602539062 -41.6005859375 c 0
 207.825195312 -42.751953125 206.384765625 -43.26171875 205.0546875 -42.85546875 c 0
 203.724609375 -42.44921875 202.81640625 -41.18359375 202.81640625 -39.8310546875 c 2
 202.81640625 -39.8310546875 203.076171875 21.216796875 202.81640625 20.7470703125 c 2
 203.076171875 21.216796875 202.81640625 564.64453125 202.81640625 564.64453125 c 1
 79.8154296875 564.731445312 l 1
 79.8154296875 180.00390625 l 2
 79.8740234375 91.4755859375 93.7734375 70.64453125 115.668945312 49.0029296875 c 0
 128.75 36.07421875 178.073242188 34.080078125 190.270507812 37.59765625 c 0
 194.62109375 38.8515625 201.875976562 41.6171875 203.076171875 46.4169921875 c 0
 215.110351562 94.5546875 207.48046875 24.5 201.875976562 20.0146484375 c 1
404.296875 161.6171875 m 1025
357.80078125 161.6171875 m 1025
EndSplineSet
LCarets2: 1 -33
Ligature2: "liga-1" t h
EndChar

StartChar: r_t
Encoding: 262 -1 34
Width: 411
VWidth: 1120
Flags: W
HStem: 567.254 46.4902<194.221 236.134 282.638 384.265>
VStem: 8.26855 46.501<75.2338 526.441> 236.317 46.2871<67.8761 567.316 613.725 845.537>
LayerCount: 2
Fore
SplineSet
54.76953125 606.436523438 m 2
 54.76953125 553.162109375 l 1
 66.0087890625 564.506835938 100.68359375 603.533203125 100.68359375 603.533203125 c 2
 107.150390625 609.228515625 115.869140625 612.96875 126.201171875 613.104492188 c 2
 126.231445312 613.10546875 l 2
 126.309570312 613.10546875 167.619140625 603.405273438 183.918945312 600.00390625 c 0
 187.454101562 599.302734375 191.116210938 600.283203125 193.827148438 602.66015625 c 0
 193.831054688 602.655273438 193.831054688 602.655273438 193.831054688 602.655273438 c 1
 202.188476562 609.984375 208.151367188 613.977539062 219.265625 613.876953125 c 0
 227.735351562 613.80078125 236.139648438 613.724609375 236.139648438 613.724609375 c 1
 236.104492188 753.666015625 l 2
 236.0859375 804.190429688 236.706054688 845.151367188 220.604492188 845.586914062 c 1
 220.604492188 845.586914062 259.875 903.80859375 275.908203125 927.580078125 c 0
 276.80859375 928.913085938 278.474609375 929.50390625 280.013671875 929.033203125 c 0
 281.553710938 928.561523438 282.604492188 927.141601562 282.604492188 925.53125 c 2
 282.604492188 613.693359375 l 1
 410.850585938 613.744140625 l 1
 410.850585938 613.744140625 382.154296875 587.14453125 368.16796875 574.180664062 c 0
 363.357421875 569.721679688 357.038085938 567.247070312 350.478515625 567.25390625 c 0
 329.315429688 567.2734375 282.604492188 567.31640625 282.604492188 567.31640625 c 1
 282.604492188 183.788085938 l 2
 282.663085938 95.259765625 296.5625 73.228515625 318.458984375 51.587890625 c 0
 331.538085938 38.658203125 350.561523438 39.16015625 363.060546875 41.3818359375 c 0
 369.72265625 42.576171875 376.130859375 44.9091796875 382.001953125 48.2763671875 c 0
 386.59765625 50.8896484375 392.841796875 54.470703125 397.548828125 57.169921875 c 0
 398.174804688 57.5283203125 398.966796875 57.3935546875 399.438476562 56.84765625 c 0
 399.911132812 56.302734375 399.928710938 55.498046875 399.483398438 54.931640625 c 0
 382.475585938 33.2763671875 325.9453125 -38.693359375 325.9453125 -38.693359375 c 2
 321.288085938 -42.482421875 296.719726562 -26.4765625 251.818359375 44.708984375 c 0
 242.313476562 59.775390625 236.28515625 93.7119140625 236.317382812 113.458007812 c 2
 236.15625 567.451171875 l 1
 214.358398438 567.413085938 198.297851562 558.588867188 183.088867188 542.973632812 c 0
 170.081054688 529.506835938 161.255859375 516.271484375 160.032226562 520.290039062 c 0
 159.752929688 521.206054688 159.462890625 522.159179688 159.166015625 523.133789062 c 0
 152.296875 545.697265625 127.080078125 571.8828125 103.782226562 575.556640625 c 1
 101.127929688 575.9765625 77.6318359375 560.528320312 72.6357421875 557.217773438 c 0
 71.9326171875 556.751953125 71.2744140625 556.225585938 70.6640625 555.642578125 c 0
 60.5771484375 545.903320312 54.76953125 532.419921875 54.76953125 518.212890625 c 2
 54.76953125 138.647460938 l 2
 54.7705078125 126.791015625 54.7705078125 110.958984375 54.7705078125 95.7783203125 c 0
 54.7705078125 86.568359375 60.4775390625 78.322265625 69.0966796875 75.078125 c 0
 76.0146484375 72.4755859375 83.6455078125 73.529296875 89.5283203125 77.626953125 c 1
 90.3193359375 76.4541015625 l 1
 77.609375 57.6103515625 30.5771484375 -12.1171875 14.0537109375 -36.615234375 c 0
 13.27734375 -37.767578125 11.8369140625 -38.27734375 10.5068359375 -37.87109375 c 0
 9.1767578125 -37.4638671875 8.2685546875 -36.2373046875 8.2685546875 -34.845703125 c 2
 8.2685546875 434.5703125 l 2
 8.25 485.095703125 8.8701171875 526.056640625 -7.2314453125 526.491210938 c 1
 -7.2314453125 526.491210938 32.0390625 584.713867188 48.072265625 608.484375 c 0
 48.97265625 609.818359375 50.638671875 610.408203125 52.177734375 609.9375 c 0
 53.7177734375 609.466796875 54.76953125 608.046875 54.76953125 606.436523438 c 2
EndSplineSet
LCarets2: 1 -37
Ligature2: "liga-1" r t
EndChar

StartChar: B
Encoding: 66 66 35
Width: 252
VWidth: 1120
Flags: W
VStem: 6.82129 46.6055<26.633 507.033 507.312 543.277 545.411 816.334> 148.562 48.7402<624.743 858.178> 161.812 46.502<14.2192 527.715>
LayerCount: 2
Fore
SplineSet
53.322265625 859.264648438 m 2xa0
 86.2412109375 890.325195312 l 2
 104.176757812 902.939453125 131.087890625 905.41015625 153.916992188 901.791992188 c 0
 173.228515625 898.69140625 187.326171875 883.704101562 192.706054688 864.901367188 c 0
 195.651367188 854.604492188 197.142578125 835.091796875 197.840820312 812.50390625 c 0
 198.811523438 781.172851562 197.633789062 682.64453125 197.301757812 657.436523438 c 0xc0
 197.170898438 647.034179688 192.250976562 637.2734375 183.96875 630.979492188 c 0
 167.887695312 618.756835938 139.782226562 597.395507812 115.806640625 579.174804688 c 1
 129.668945312 582.302734375 144.904296875 582.333007812 158.659179688 580.153320312 c 0
 177.969726562 577.052734375 193.383789062 562.392578125 197.447265625 543.26171875 c 0
 208.379882812 490.767578125 208.357421875 405.182617188 208.3203125 395.615234375 c 1
 208.313476562 76.404296875 l 2
 208.313476562 53.8369140625 200.705078125 31.9267578125 186.717773438 14.2138671875 c 0
 176.763671875 1.6083984375 118.853515625 -65.9189453125 118.853515625 -65.9189453125 c 2
 114.924804688 -69.115234375 80.8037109375 -58.2236328125 43.2744140625 -12.0087890625 c 1
 34.7119140625 -27.8603515625 21.7373046875 -50.9404296875 12.607421875 -64.4755859375 c 0
 11.8291015625 -65.6298828125 10.390625 -66.138671875 9.0595703125 -65.732421875 c 0
 7.73046875 -65.3271484375 6.8212890625 -64.0986328125 6.8212890625 -62.7080078125 c 2
 6.8212890625 677.697265625 l 2
 6.8017578125 728.221679688 7.421875 815.981445312 -8.6787109375 816.41796875 c 1
 -8.6787109375 816.41796875 30.5927734375 874.638671875 46.6259765625 898.41015625 c 0
 47.5244140625 899.744140625 49.1923828125 900.334960938 50.7314453125 899.86328125 c 0
 52.2705078125 899.392578125 53.322265625 897.971679688 53.322265625 896.362304688 c 2
 53.322265625 859.264648438 l 2xa0
161.721679688 395.534179688 m 2
 161.662109375 452.055664062 159.1953125 486.165039062 151.642578125 509.049804688 c 0
 142.672851562 535.846679688 115.608398438 552.1953125 87.716796875 547.666992188 c 2
 87.7158203125 547.666992188 l 2
 67.896484375 544.485351562 53.322265625 527.3828125 53.322265625 507.311523438 c 2
 53.322265625 507.311523438 53.4462890625 123.700195312 53.4267578125 121.916992188 c 0
 54.53125 57.0634765625 61.3779296875 26.69140625 104.375 3.1123046875 c 1
 104.375 3.1123046875 104.375976562 3.1103515625 104.381835938 3.119140625 c 0
 116.258789062 -4.4677734375 131.497070312 -4.3173828125 143.22265625 3.5 c 0
 144.778320312 4.5390625 146.212890625 5.380859375 147.403320312 5.8876953125 c 0
 147.715820312 6.4208984375 147.9921875 6.9814453125 148.228515625 7.5634765625 c 0
 151.51953125 15.640625 154.282226562 22.462890625 156.080078125 26.91015625 c 0
 157.719726562 30.951171875 158.938476562 35.1513671875 159.717773438 39.44140625 c 0
 163.009765625 57.2587890625 163.096679688 68.1884765625 161.811523438 112.233398438 c 2xa0
 161.721679688 395.534179688 l 2
136.408203125 616.040039062 m 2
 144.057617188 623.200195312 148.44921875 633.176757812 148.561523438 643.654296875 c 0xc0
 149.29296875 697.5625 153.778320312 809.84375 146.899414062 830.6875 c 0
 137.931640625 857.483398438 110.8671875 873.834960938 82.9755859375 869.306640625 c 0
 79.3427734375 868.723632812 75.7431640625 867.463867188 72.2275390625 865.861328125 c 0
 60.712890625 860.622070312 53.322265625 849.138671875 53.322265625 836.48828125 c 0
 53.322265625 784.524414062 53.322265625 592.481445312 53.322265625 550.057617188 c 0
 53.322265625 548.0234375 54.5302734375 546.182617188 56.3974609375 545.372070312 c 0
 58.263671875 544.5625 60.4345703125 544.9375 61.9189453125 546.329101562 c 0
 83.1611328125 566.20703125 136.408203125 616.040039062 136.408203125 616.040039062 c 2
EndSplineSet
EndChar

StartChar: C
Encoding: 67 67 36
Width: 234
VWidth: 1120
Flags: W
VStem: 7.03809 46.5<27.717 847.507> 152.996 44.376<744.31 846.178>
LayerCount: 2
Fore
SplineSet
7.0380859375 800.614257812 m 5
 7.0380859375 819.243164062 15.435546875 836.879882812 29.8955078125 848.625 c 6
 79.7470703125 889.111328125 l 6
 97.6826171875 901.7265625 124.59375 904.197265625 147.422851562 900.578125 c 4
 166.733398438 897.478515625 180.83203125 882.490234375 186.2109375 863.6875 c 4
 194.884765625 833.369140625 197.372070312 751.038085938 197.372070312 750.911132812 c 4
 197.372070312 747.146484375 194.359375 744.307617188 194.359375 744.307617188 c 5
 132.265625 680.208984375 l 5
 130.575195312 683.469726562 l 5
 130.575195312 683.469726562 139.319335938 695.780273438 145.909179688 705.055664062 c 4
 150.634765625 711.709960938 153.118164062 719.697265625 152.99609375 727.858398438 c 4
 152.2578125 777.34765625 147.412109375 808.2421875 140.404296875 829.474609375 c 4
 131.4375 856.271484375 104.373046875 872.62109375 76.48046875 868.092773438 c 4
 72.7509765625 867.494140625 69.1474609375 866.58984375 65.6650390625 865.451171875 c 6
 62.021484375 859.120117188 l 6
 56.46484375 849.462890625 53.5380859375 838.513671875 53.5380859375 827.370117188 c 6
 53.5380859375 155.474609375 l 6
 53.59765625 66.9443359375 54.9072265625 30.5302734375 104.702148438 3.22265625 c 4
 129.80859375 -10.546875 169.365234375 17.794921875 175.236328125 21.1611328125 c 4
 179.833984375 23.7744140625 186.077148438 27.3544921875 190.78515625 30.0546875 c 4
 191.41015625 30.4130859375 192.203125 30.2783203125 192.673828125 29.7333984375 c 4
 193.146484375 29.1865234375 193.165039062 28.3828125 192.719726562 27.81640625 c 4
 175.708984375 6.16015625 119.1796875 -65.80859375 119.1796875 -65.80859375 c 6
 114.5234375 -69.59765625 67.44140625 -53.591796875 22.5390625 17.5927734375 c 4
 13.03515625 32.6611328125 7.005859375 66.5986328125 7.0380859375 86.3447265625 c 4
 7.0380859375 86.408203125 7.0380859375 86.662109375 7.0380859375 86.662109375 c 5
 7.0380859375 800.614257812 l 5
EndSplineSet
EndChar

StartChar: D
Encoding: 68 68 37
Width: 264
VWidth: 1120
Flags: W
HStem: 869.806 32.4854<88.0831 137.947>
VStem: 7.19043 46.6035<26.5873 817.522> 162.179 46.502<14.1743 849.854>
LayerCount: 2
Fore
SplineSet
7.1904296875 -62.7529296875 m 6
 7.1904296875 725.651367188 l 6
 7.171875 776.17578125 7.7900390625 817.13671875 -8.3115234375 817.572265625 c 5
 -8.3115234375 817.572265625 30.9609375 875.793945312 46.9931640625 899.565429688 c 4
 47.89453125 900.8984375 49.5595703125 901.489257812 51.099609375 901.018554688 c 4
 52.6396484375 900.546875 53.689453125 899.126953125 53.689453125 897.516601562 c 6
 53.689453125 860.419921875 l 5
 91.3525390625 890.82421875 l 6
 109.286132812 903.438476562 136.197265625 905.908203125 159.028320312 902.291015625 c 4
 178.337890625 899.190429688 193.752929688 884.53125 197.815429688 865.400390625 c 4
 208.747070312 812.90625 208.725585938 727.3203125 208.688476562 717.750976562 c 5
 208.680664062 76.359375 l 6
 208.680664062 53.791015625 201.072265625 31.8818359375 187.086914062 14.1689453125 c 4
 177.130859375 1.5634765625 119.220703125 -65.9638671875 119.220703125 -65.9638671875 c 6
 115.291992188 -69.1611328125 81.171875 -58.26953125 43.6416015625 -12.0537109375 c 5
 35.0791015625 -27.90625 22.1044921875 -50.986328125 12.974609375 -64.521484375 c 4
 12.1982421875 -65.67578125 10.7578125 -66.1845703125 9.4287109375 -65.77734375 c 4
 8.09765625 -65.3720703125 7.1904296875 -64.1435546875 7.1904296875 -62.7529296875 c 6
162.08984375 717.670898438 m 6
 162.030273438 774.194335938 159.5625 808.301757812 152.009765625 831.1875 c 4
 143.041992188 857.983398438 115.9765625 874.33203125 88.0849609375 869.805664062 c 4
 88.083984375 869.805664062 88.083984375 869.803710938 88.0830078125 869.805664062 c 4
 68.2646484375 866.622070312 53.689453125 849.520507812 53.689453125 829.447265625 c 6
 53.689453125 829.447265625 53.8154296875 123.655273438 53.7939453125 121.87109375 c 4
 54.8984375 57.0185546875 61.74609375 26.6455078125 104.743164062 3.06640625 c 5
 104.743164062 3.06640625 104.743164062 3.0654296875 104.749023438 3.0732421875 c 4
 116.626953125 -4.5126953125 131.865234375 -4.36328125 143.591796875 3.4541015625 c 4
 145.145507812 4.494140625 146.580078125 5.3349609375 147.770507812 5.8427734375 c 4
 148.083007812 6.3759765625 148.359375 6.9365234375 148.595703125 7.5185546875 c 4
 151.888671875 15.5947265625 154.649414062 22.41796875 156.448242188 26.865234375 c 4
 158.086914062 30.9052734375 159.305664062 35.10546875 160.084960938 39.3955078125 c 4
 163.376953125 57.212890625 163.46484375 68.1435546875 162.178710938 112.188476562 c 6
 162.08984375 717.670898438 l 6
EndSplineSet
EndChar

StartChar: E
Encoding: 69 69 38
Width: 253
VWidth: 1119
Flags: W
HStem: -60.4541 49.1123<51.2783 193.144> 537.278 46.501<51.4042 173.371> 855.341 46.5<51.418 196.369>
VStem: 4.94629 46.3311<-13.3069 49.6152 49.7967 537.278 571.653 855.336>
LayerCount: 2
Fore
SplineSet
4.9462890625 839.838867188 m 4
 4.9462890625 848.399414062 -1.9951171875 855.340820312 -10.5556640625 855.340820312 c 5
 -10.5556640625 855.340820312 18.1572265625 881.953125 32.1376953125 894.912109375 c 4
 36.9423828125 899.365234375 43.251953125 901.840820312 49.8037109375 901.840820312 c 6
 222.963867188 901.840820312 l 5
 222.963867188 901.840820312 194.252929688 875.227539062 180.271484375 862.267578125 c 4
 175.466796875 857.814453125 169.157226562 855.340820312 162.606445312 855.340820312 c 6
 51.41796875 855.340820312 l 5
 51.4169921875 824.96875 51.4052734375 603.143554688 51.3974609375 571.653320312 c 5
 51.3974609375 571.653320312 53.6748046875 573.4453125 56.4775390625 575.65234375 c 4
 63.166015625 580.916992188 71.4306640625 583.779296875 79.9423828125 583.779296875 c 4
 113.543945312 583.779296875 199.966796875 583.779296875 199.966796875 583.779296875 c 5
 199.966796875 583.779296875 171.254882812 557.16796875 157.274414062 544.20703125 c 4
 152.46875 539.751953125 146.159179688 537.278320312 139.607421875 537.278320312 c 6
 66.9541015625 537.278320312 l 6
 58.3564453125 537.278320312 51.3857421875 530.309570312 51.3837890625 521.712890625 c 4
 51.3359375 298.794921875 51.27734375 49.615234375 51.27734375 49.615234375 c 6
 51.2783203125 37.7578125 51.2783203125 21.92578125 51.2783203125 6.74609375 c 4
 51.2783203125 1.3310546875 50.0107421875 -15.484375 66.9462890625 -13.8359375 c 4
 128.895507812 -7.8017578125 116.334960938 -14.5224609375 159.549804688 -11.341796875 c 4
 177.180664062 -10.0361328125 193.926757812 -3.1103515625 207.331054688 8.41796875 c 4
 213.388671875 13.6533203125 218.416015625 18.119140625 220.708007812 19.4326171875 c 4
 221.333984375 19.791015625 222.125976562 19.658203125 222.598632812 19.1103515625 c 4
 223.069335938 18.5654296875 223.088867188 17.76171875 222.642578125 17.1943359375 c 4
 212.52734375 4.3154296875 201.774414062 -25.7421875 188.313476562 -48.3193359375 c 4
 183.680664062 -55.859375 175.465820312 -60.4541015625 166.616210938 -60.4541015625 c 4
 118.21484375 -60.4541015625 8.1435546875 -60.4541015625 8.1435546875 -60.4541015625 c 6
 6.8134765625 -60.046875 4.9462890625 -58.6806640625 4.9462890625 -57.291015625 c 6
 4.9462890625 839.838867188 l 4
EndSplineSet
EndChar

StartChar: F
Encoding: 70 70 39
Width: 225
VWidth: 1120
Flags: W
HStem: 520.606 46.501<52.0506 174.017> 845.868 46.5<52.0645 197.015>
VStem: 5.59082 46.5127<36.9838 107.693 107.719 504.815 505.04 520.606 554.981 845.868>
LayerCount: 2
Fore
SplineSet
5.5908203125 830.3671875 m 1
 5.5908203125 838.927734375 -1.34765625 845.868164062 -9.908203125 845.868164062 c 2
 -9.9091796875 845.868164062 l 1
 -9.9091796875 845.868164062 18.802734375 872.48046875 32.7841796875 885.440429688 c 0
 37.5888671875 889.893554688 43.8984375 892.368164062 50.44921875 892.368164062 c 2
 223.611328125 892.368164062 l 1
 223.611328125 892.368164062 194.899414062 865.754882812 180.91796875 852.795898438 c 0
 176.111328125 848.342773438 169.802734375 845.868164062 163.251953125 845.868164062 c 2
 52.064453125 845.868164062 l 1
 52.0615234375 815.497070312 52.0498046875 586.471679688 52.04296875 554.981445312 c 1
 52.04296875 554.981445312 54.3212890625 556.772460938 57.1240234375 558.98046875 c 0
 63.8125 564.245117188 72.0771484375 567.107421875 80.58984375 567.107421875 c 0
 122.990234375 567.107421875 200.612304688 567.107421875 200.612304688 567.107421875 c 1
 200.612304688 567.107421875 171.901367188 540.495117188 157.919921875 527.534179688 c 0
 153.115234375 523.080078125 146.805664062 520.606445312 140.25390625 520.606445312 c 2
 67.599609375 520.606445312 l 2
 59.001953125 520.606445312 52.03125 513.637695312 52.0302734375 505.040039062 c 2
 52.0302734375 505.040039062 52.126953125 195.053710938 52.103515625 107.71875 c 1
 52.18359375 107.71875 l 1
 52.18359375 107.71875 52.1845703125 72.7080078125 52.1845703125 57.5283203125 c 0
 52.1845703125 48.318359375 57.8916015625 40.072265625 66.5107421875 36.828125 c 0
 73.4287109375 34.224609375 81.060546875 35.279296875 86.9423828125 39.376953125 c 1
 87.7333984375 38.203125 l 1
 11.46875 -74.865234375 l 2
 10.689453125 -76.0185546875 9.2509765625 -76.5283203125 7.9208984375 -76.1220703125 c 0
 6.5908203125 -75.71484375 5.6826171875 -74.4873046875 5.6826171875 -73.095703125 c 2
 5.6708984375 -12.625 l 1
 5.5908203125 -12.7431640625 l 1
 5.5908203125 830.3671875 l 1
EndSplineSet
EndChar

StartChar: G
Encoding: 71 71 40
Width: 243
VWidth: 1120
Flags: W
HStem: 511.22 43.1006<95.8809 150.198>
VStem: 3.10352 46.5<25.6169 84.5623 84.5625 839.254> 150.576 46.501<45.3842 512.439> 158.105 44.375<743.41 845.278>
LayerCount: 2
Fore
SplineSet
150.576171875 -6.177734375 m 0xe0
 121.94140625 -35.033203125 87.525390625 -67.908203125 87.525390625 -67.908203125 c 2
 82.8701171875 -71.6982421875 63.5068359375 -55.69140625 18.6044921875 15.4931640625 c 0
 9.0986328125 30.560546875 3.0693359375 64.498046875 3.1025390625 84.244140625 c 0
 3.103515625 84.3076171875 3.103515625 84.5625 3.103515625 84.5625 c 1
 3.798828125 792.932617188 l 2
 3.798828125 811.5625 12.1953125 829.19921875 26.6552734375 840.944335938 c 2
 84.857421875 888.211914062 l 2
 102.791992188 900.827148438 129.702148438 903.296875 152.533203125 899.678710938 c 0
 171.841796875 896.579101562 185.940429688 881.590820312 191.321289062 862.788085938 c 0
 199.994140625 832.46875 202.48046875 750.137695312 202.48046875 750.01171875 c 0
 202.48046875 746.24609375 199.467773438 743.408203125 199.467773438 743.408203125 c 1
 137.375 679.30859375 l 1
 135.684570312 682.5703125 l 1
 135.684570312 682.5703125 144.4296875 694.880859375 151.017578125 704.15625 c 0
 155.744140625 710.809570312 158.227539062 718.796875 158.10546875 726.958007812 c 0xd0
 157.368164062 776.447265625 152.522460938 807.341796875 145.513671875 828.575195312 c 0
 136.545898438 855.37109375 109.481445312 871.720703125 81.5888671875 867.193359375 c 0
 77.8603515625 866.59375 65.908203125 858.909179688 62.423828125 857.771484375 c 2
 58.7822265625 851.439453125 l 2
 53.2236328125 841.782226562 50.2998046875 830.833007812 50.2998046875 819.689453125 c 2
 49.603515625 153.375 l 2
 49.6630859375 64.84375 50.97265625 28.4306640625 100.767578125 1.1220703125 c 0
 116.428710938 -7.4677734375 136.364257812 2.3525390625 150.576171875 11.775390625 c 1
 150.576171875 512.439453125 l 1
 140.086914062 510.36328125 125.891601562 511.069335938 102.077148438 511.219726562 c 0
 95.154296875 511.268554688 83.5849609375 503.677734375 83.5849609375 503.677734375 c 1
 83.5849609375 503.677734375 92.4736328125 525.102539062 99.03125 540.908203125 c 0
 102.577148438 549.452148438 111.102539062 554.853515625 120.342773438 554.411132812 c 0
 121.143554688 554.341796875 121.97265625 554.3203125 122.826171875 554.3203125 c 0
 128.635742188 554.3203125 138.874023438 554.3203125 145.37890625 554.3203125 c 0
 159.578125 554.3203125 178.708007812 561.52734375 190.020507812 578.099609375 c 2
 190.379882812 578.6328125 l 2
 191.280273438 579.966796875 192.946289062 580.556640625 194.485351562 580.086914062 c 0
 196.024414062 579.616210938 197.077148438 578.1953125 197.077148438 576.5859375 c 2
 197.077148438 108.796875 l 2
 197.077148438 96.9384765625 197.078125 81.1064453125 197.078125 65.9267578125 c 0
 197.078125 56.716796875 202.78515625 48.4716796875 211.404296875 45.228515625 c 0
 218.322265625 42.623046875 225.953125 43.6787109375 231.8359375 47.775390625 c 1
 232.626953125 46.6025390625 l 1
 219.916992188 27.7587890625 172.884765625 -41.9677734375 156.361328125 -66.4658203125 c 0
 155.584960938 -67.6201171875 154.14453125 -68.12890625 152.814453125 -67.7216796875 c 0
 151.484375 -67.31640625 150.576171875 -66.087890625 150.576171875 -64.697265625 c 2
 150.576171875 -6.177734375 l 0xe0
EndSplineSet
EndChar

StartChar: H
Encoding: 72 72 41
Width: 241
VWidth: 1120
Flags: W
HStem: 534.391 43.1016<59.7112 143.17>
VStem: 5.29688 46.501<46.2886 109.704 109.927 526.618 569.369 817.684> 143.798 46.5<46.2886 542.793 577.898 817.684>
LayerCount: 2
Fore
SplineSet
117.811523438 577.4921875 m 0
 132.162109375 577.4921875 143.797851562 589.126953125 143.797851562 603.479492188 c 0
 143.797851562 632.846679688 143.797851562 725.813476562 143.797851562 725.813476562 c 2
 143.778320312 776.338867188 144.397460938 817.298828125 128.296875 817.734375 c 1
 128.296875 817.734375 167.567382812 875.95703125 183.600585938 899.725585938 c 0
 184.501953125 901.061523438 186.166992188 901.651367188 187.706054688 901.1796875 c 0
 189.24609375 900.709960938 190.297851562 899.2890625 190.297851562 897.6796875 c 2
 190.297851562 109.704101562 l 2
 190.298828125 97.845703125 190.299804688 82.013671875 190.299804688 66.833984375 c 0
 190.299804688 57.625 196.005859375 49.3779296875 204.625976562 46.1328125 c 0
 211.541992188 43.5302734375 219.174804688 44.5849609375 225.057617188 48.681640625 c 1
 225.848632812 47.5087890625 l 1
 213.138671875 28.666015625 166.106445312 -41.0625 149.583007812 -65.5595703125 c 0
 148.8046875 -66.712890625 147.364257812 -67.22265625 146.036132812 -66.8154296875 c 0
 144.706054688 -66.4091796875 143.797851562 -65.1806640625 143.797851562 -63.791015625 c 2
 143.797851562 542.79296875 l 1
 137.283203125 529.86328125 125.352539062 534.092773438 77.974609375 534.390625 c 0
 71.05078125 534.44140625 64.39453125 531.7265625 59.4794921875 526.84765625 c 0
 54.56640625 521.970703125 51.8037109375 515.333007812 51.8037109375 508.411132812 c 0
 51.7978515625 416.494140625 51.7978515625 109.704101562 51.7978515625 109.704101562 c 2
 51.7998046875 97.845703125 51.7998046875 82.013671875 51.7998046875 66.833984375 c 0
 51.7998046875 57.625 57.5068359375 49.3779296875 66.1259765625 46.1328125 c 0
 73.04296875 43.5302734375 80.6748046875 44.5849609375 86.5576171875 48.681640625 c 1
 87.349609375 47.5087890625 l 1
 74.6376953125 28.666015625 27.6064453125 -41.0625 11.0830078125 -65.5595703125 c 0
 10.3056640625 -66.712890625 8.865234375 -67.22265625 7.53515625 -66.8154296875 c 0
 6.205078125 -66.4091796875 5.296875 -65.1806640625 5.296875 -63.791015625 c 2
 5.296875 725.813476562 l 2
 5.2783203125 776.338867188 5.8984375 817.298828125 -10.203125 817.734375 c 1
 -10.203125 817.734375 29.0673828125 875.95703125 45.1025390625 899.725585938 c 0
 46.0009765625 901.061523438 47.6689453125 901.651367188 49.20703125 901.1796875 c 0
 50.74609375 900.709960938 51.7978515625 899.2890625 51.7978515625 897.6796875 c 2
 51.802734375 569.369140625 l 1
 51.802734375 569.369140625 60.15625 571.52734375 68.2509765625 573.619140625 c 0
 78.2041015625 576.19140625 88.4423828125 577.4921875 98.72265625 577.4921875 c 0
 104.534179688 577.4921875 111.306640625 577.4921875 117.811523438 577.4921875 c 0
EndSplineSet
EndChar

StartChar: I
Encoding: 73 73 42
Width: 215
VWidth: 1120
Flags: W
HStem: -62.5537 46.501<12.3032 76.9395 129.263 181.371> 854.44 46.5<12.3032 74.6427 123.439 181.371>
VStem: 76.9395 46.5<-12.659 854.17>
LayerCount: 2
Fore
SplineSet
76.939453125 -16.052734375 m 5
 76.939453125 764.251953125 l 6
 76.9208984375 814.776367188 77.541015625 855.736328125 61.439453125 856.172851562 c 6
 -14.2919921875 854.440429688 l 5
 -14.2919921875 854.440429688 14.4189453125 881.052734375 28.400390625 894.012695312 c 4
 33.205078125 898.465820312 39.5146484375 900.940429688 46.06640625 900.940429688 c 6
 207.965820312 900.940429688 l 5
 207.965820312 900.940429688 179.254882812 874.327148438 165.2734375 861.3671875 c 4
 160.46875 856.9140625 154.159179688 854.440429688 147.608398438 854.440429688 c 6
 123.439453125 854.440429688 l 5
 123.439453125 114.103515625 l 6
 123.440429688 105.21875 123.440429688 35.126953125 123.442382812 0.529296875 c 4
 123.442382812 -4.5029296875 125.479492188 -9.3203125 129.092773438 -12.82421875 c 4
 132.706054688 -16.3271484375 137.583984375 -18.216796875 142.614257812 -18.0625 c 4
 167.552734375 -17.2958984375 207.965820312 -16.052734375 207.965820312 -16.052734375 c 5
 207.965820312 -16.052734375 179.254882812 -42.6669921875 165.2734375 -55.626953125 c 4
 160.46875 -60.080078125 154.159179688 -62.5537109375 147.608398438 -62.5537109375 c 6
 -14.2919921875 -62.5537109375 l 5
 -14.2919921875 -62.5537109375 14.4189453125 -35.94140625 28.400390625 -22.982421875 c 4
 33.205078125 -18.52734375 39.5146484375 -16.052734375 46.06640625 -16.052734375 c 6
 76.939453125 -16.052734375 l 5
EndSplineSet
EndChar

StartChar: J
Encoding: 74 74 43
Width: 215
VWidth: 1121
Flags: W
HStem: 857.487 46.502<8.66062 91.7526 140.733 179.805>
VStem: 94.2334 46.5<54.4384 765.162 765.576 857.487>
LayerCount: 2
Fore
SplineSet
78.9384765625 857.487304688 m 6
 -17.9345703125 857.487304688 l 5
 -17.9345703125 857.487304688 10.7763671875 884.100585938 24.7578125 897.060546875 c 4
 29.5625 901.514648438 35.8720703125 903.989257812 42.4228515625 903.989257812 c 4
 79.689453125 903.989257812 206.400390625 903.989257812 206.400390625 903.989257812 c 5
 206.400390625 903.989257812 177.689453125 877.375976562 163.708007812 864.416015625 c 4
 158.903320312 859.962890625 152.59375 857.487304688 146.041992188 857.487304688 c 6
 140.733398438 857.487304688 l 5
 140.733398438 192.571289062 l 6
 140.733398438 105.844726562 116.577148438 20.83203125 70.97265625 -52.9365234375 c 4
 60.1826171875 -70.3916015625 52.5361328125 -82.7607421875 52.5361328125 -82.7607421875 c 5
 49.4931640625 -78.0166015625 l 5
 49.4931640625 -78.0166015625 52.5029296875 -70.615234375 57.126953125 -59.2421875 c 4
 89.0205078125 19.185546875 102.592773438 103.709960938 97.8857421875 188.241210938 c 4
 97.5546875 194.197265625 94.2333984375 765.576171875 94.2333984375 765.576171875 c 6
 94.21484375 815.8828125 94.8291015625 856.708007812 78.9384765625 857.487304688 c 6
EndSplineSet
EndChar

StartChar: K
Encoding: 75 75 44
Width: 257
VWidth: 1119
Flags: W
VStem: 4.45996 46.5635<46.973 393.136 393.189 541.031 543.662 813.209> 148.559 46.457<623.401 825.209> 159.405 46.457<46.4104 392.348>
LayerCount: 2
Fore
SplineSet
148.55859375 733.426757812 m 0xc0
 148.541015625 783.90234375 149.159179688 824.823242188 133.073242188 825.258789062 c 1
 133.073242188 825.258789062 172.306640625 883.423828125 188.32421875 907.171875 c 0
 189.223632812 908.505859375 190.887695312 909.094726562 192.426757812 908.624023438 c 0
 193.963867188 908.155273438 195.015625 906.735351562 195.015625 905.126953125 c 2
 195.015625 655.967773438 l 2xc0
 194.8828125 645.575195312 189.711914062 635.442382812 181.435546875 629.154296875 c 2
 112.225585938 576.553710938 l 1
 126.393554688 579.956054688 142.106445312 580.0546875 156.252929688 577.813476562 c 0
 175.544921875 574.715820312 190.943359375 560.071289062 195.00390625 540.958007812 c 0
 206.583984375 485.350585938 205.861328125 392.573242188 205.861328125 392.573242188 c 1
 205.861328125 392.573242188 205.862304688 82.1005859375 205.862304688 66.935546875 c 0
 205.862304688 57.7333984375 211.564453125 49.4951171875 220.176757812 46.2548828125 c 0
 226.931640625 43.7119140625 234.368164062 44.6630859375 240.188476562 48.5283203125 c 1
 241.087890625 47.197265625 l 1
 165.186523438 -65.33203125 l 2
 164.408203125 -66.482421875 162.970703125 -66.9921875 161.641601562 -66.5859375 c 0
 160.313476562 -66.1787109375 159.405273438 -64.953125 159.405273438 -63.5634765625 c 2xa0
 159.314453125 392.572265625 l 1
 159.313476562 392.573242188 l 1
 159.275390625 449.518554688 156.821289062 483.806640625 149.241210938 506.77734375 c 0
 140.282226562 533.547851562 113.243164062 549.8828125 85.3779296875 545.359375 c 0
 84.3251953125 545.189453125 83.2802734375 544.978515625 82.2470703125 544.729492188 c 0
 63.9248046875 540.28515625 51.0234375 523.880859375 51.0234375 505.028320312 c 0
 51.0068359375 466.20703125 51.0068359375 393.135742188 51.0068359375 393.135742188 c 1
 50.9404296875 393.135742188 l 1
 50.96875 266.681640625 51.0087890625 77.5478515625 51.0087890625 67.498046875 c 0
 51.0087890625 58.2978515625 56.7109375 50.0595703125 65.3212890625 46.8173828125 c 0
 72.232421875 44.2177734375 79.8564453125 45.2724609375 85.7333984375 49.3642578125 c 1
 86.5244140625 48.193359375 l 1
 10.3310546875 -64.7666015625 l 2
 9.5546875 -65.919921875 8.1162109375 -66.4287109375 6.7880859375 -66.0224609375 c 0
 5.458984375 -65.6162109375 4.5517578125 -64.3896484375 4.5517578125 -63.0009765625 c 2
 4.5400390625 -2.5869140625 l 1
 4.4599609375 -2.7041015625 l 1
 4.4599609375 721.426757812 l 2
 4.44140625 771.90234375 5.060546875 812.823242188 -11.0263671875 813.258789062 c 1
 -11.0263671875 813.258789062 28.20703125 871.423828125 44.2255859375 895.171875 c 0
 45.1259765625 896.505859375 46.7880859375 897.094726562 48.3271484375 896.624023438 c 0
 49.8642578125 896.155273438 50.9150390625 894.735351562 50.9150390625 893.126953125 c 2
 51.0068359375 547.344726562 l 2
 51.322265625 545.7109375 52.4228515625 544.307617188 53.9873046875 543.629882812 c 0
 55.8544921875 542.821289062 58.0205078125 543.196289062 59.505859375 544.584960938 c 0
 80.7255859375 564.444335938 133.921875 614.23046875 133.921875 614.23046875 c 2
 141.565429688 621.381835938 148.446289062 637.017578125 148.55859375 647.484375 c 2
 148.55859375 733.426757812 l 0xc0
EndSplineSet
EndChar

StartChar: L
Encoding: 76 76 45
Width: 266
VWidth: 1119
Flags: W
HStem: -60.4541 46.6182<47.8437 242.55>
VStem: 1.51074 46.333<-13.3069 49.6152 50.1618 818.184>
LayerCount: 2
Fore
SplineSet
4.7099609375 -60.4541015625 m 2
 3.3798828125 -60.046875 1.5107421875 -58.6806640625 1.5107421875 -57.291015625 c 2
 1.5107421875 726.313476562 l 2
 1.4921875 776.838867188 2.1123046875 817.798828125 -13.98828125 818.234375 c 1
 -13.98828125 818.234375 25.2822265625 876.45703125 41.31640625 900.225585938 c 0
 42.21484375 901.561523438 43.880859375 902.151367188 45.4208984375 901.6796875 c 0
 46.9609375 901.209960938 48.01171875 899.7890625 48.01171875 898.1796875 c 0
 48.01171875 803.16015625 47.841796875 49.615234375 47.841796875 49.615234375 c 2
 47.84375 37.7578125 47.84375 21.92578125 47.84375 6.74609375 c 0
 47.84375 1.3310546875 46.578125 -15.484375 63.5126953125 -13.8359375 c 0
 125.462890625 -7.8017578125 165.740234375 -14.5224609375 208.955078125 -11.341796875 c 0
 226.586914062 -10.0361328125 243.333007812 -3.1103515625 256.736328125 8.41796875 c 0
 262.79296875 13.6533203125 267.822265625 18.119140625 270.114257812 19.4326171875 c 0
 270.740234375 19.791015625 271.532226562 19.658203125 272.002929688 19.1103515625 c 0
 272.475585938 18.5654296875 272.494140625 17.76171875 272.047851562 17.1943359375 c 0
 261.93359375 4.3154296875 251.1796875 -25.7421875 237.71875 -48.3193359375 c 0
 233.0859375 -55.859375 224.87109375 -60.4541015625 216.022460938 -60.4541015625 c 0
 167.619140625 -60.4541015625 4.7099609375 -60.4541015625 4.7099609375 -60.4541015625 c 2
EndSplineSet
EndChar

StartChar: M
Encoding: 77 77 46
Width: 421
VWidth: 1126
Flags: W
VStem: 2.67969 46.457<53.5189 116.871 117.216 743.483 798.694 828.474> 173.087 46.4551<-14.0072 382.986> 328.062 46.4414<-4.20638 767.212>
LayerCount: 2
Fore
SplineSet
178.866210938 -58.22265625 m 0
 178.1953125 -59.439453125 176.651367188 -59.8828125 175.323242188 -59.4765625 c 0
 173.995117188 -59.0712890625 173.086914062 -57.8447265625 173.086914062 -56.4560546875 c 2
 173.045898438 173 l 2
 172.448242188 189.301757812 164.900390625 426.805664062 129.932617188 529.166015625 c 0
 111.602539062 582.829101562 49.1826171875 708.14453125 49.142578125 743.483398438 c 1
 49.13671875 592.47265625 49.13671875 116.87109375 49.13671875 116.87109375 c 2
 49.1376953125 105.025390625 49.1376953125 89.2080078125 49.1376953125 74.04296875 c 0
 49.1376953125 64.8427734375 54.83984375 56.6044921875 63.451171875 53.36328125 c 0
 70.361328125 50.7626953125 77.9853515625 51.81640625 83.8642578125 55.9091796875 c 1
 84.6533203125 54.73828125 l 1
 71.955078125 35.912109375 24.96875 -33.748046875 8.4609375 -58.22265625 c 0
 7.6826171875 -59.375 6.2451171875 -59.8837890625 4.916015625 -59.4765625 c 0
 3.587890625 -59.0712890625 2.6796875 -57.8447265625 2.6796875 -56.4560546875 c 2
 2.6796875 736.69140625 l 2
 2.6611328125 787.16796875 3.28125 828.087890625 -12.8056640625 828.524414062 c 1
 -12.8056640625 828.524414062 26.427734375 886.689453125 42.4462890625 910.4375 c 0
 43.3447265625 911.770507812 45.0107421875 912.360351562 46.5478515625 911.888671875 c 0
 48.0869140625 911.418945312 49.13671875 910 49.13671875 908.392578125 c 2
 49.13671875 885.174804688 l 2
 49.466796875 865.0078125 50.322265625 830.203125 111.078125 706.501953125 c 0
 153.01171875 621.122070312 178.024414062 532.234375 192.907226562 454.2578125 c 1
 215.952148438 582.766601562 238.112304688 729.45703125 367.81640625 914.974609375 c 0
 368.736328125 916.29296875 370.37890625 916.897460938 371.916992188 916.427734375 c 0
 373.454101562 915.958007812 374.505859375 914.5390625 374.505859375 912.9296875 c 0
 374.50390625 141.80078125 l 1
 374.318359375 22.61328125 346.365234375 -35.24609375 300.915039062 -108.76953125 c 0
 290.125976562 -126.223632812 282.477539062 -138.592773438 282.477539062 -138.592773438 c 1
 279.436523438 -133.848632812 l 1
 279.436523438 -133.848632812 282.446289062 -126.448242188 287.0703125 -115.075195312 c 0
 318.961914062 -36.6474609375 332.536132812 47.8759765625 327.828125 132.409179688 c 0
 327.786132812 133.163085938 328.080078125 173.49609375 328.0625 174.201171875 c 1
 328.081054688 300.513671875 328.049804688 767.211914062 328.049804688 767.211914062 c 0
 263.127929688 659.500976562 226.079101562 613.322265625 219.541992188 362.048828125 c 1
 219.541992188 116.87109375 l 2
 219.541992188 62.6005859375 203.830078125 -12.9990234375 178.866210938 -58.22265625 c 0
EndSplineSet
EndChar

StartChar: N
Encoding: 78 78 47
Width: 266
VWidth: 1120
Flags: W
VStem: 2.56934 46.457<46.137 109.49 109.836 737.302 792.512 822.293> 172.977 46.4561<45.134 216.074 534.003 824.234>
LayerCount: 2
Fore
SplineSet
172.9765625 216.07421875 m 5
 172.9765625 216.07421875 166.403320312 415.901367188 129.822265625 522.984375 c 4
 111.491210938 576.647460938 49.0712890625 701.962890625 49.0322265625 737.301757812 c 5
 49.0263671875 586.291015625 49.0263671875 109.490234375 49.0263671875 109.490234375 c 6
 49.02734375 97.6435546875 49.02734375 81.826171875 49.02734375 66.6611328125 c 4
 49.02734375 57.4609375 54.7294921875 49.22265625 63.3388671875 45.9814453125 c 4
 70.2509765625 43.380859375 77.875 44.4345703125 83.751953125 48.52734375 c 5
 84.5419921875 47.357421875 l 5
 71.84375 28.53125 24.857421875 -41.1298828125 8.3505859375 -65.6044921875 c 4
 7.572265625 -66.7568359375 6.1337890625 -67.265625 4.8056640625 -66.8583984375 c 4
 3.4775390625 -66.453125 2.5693359375 -65.2265625 2.5693359375 -63.837890625 c 6
 2.5693359375 730.509765625 l 6
 2.55078125 780.986328125 3.1689453125 821.90625 -12.916015625 822.342773438 c 5
 -12.916015625 822.342773438 26.31640625 880.5078125 42.3359375 904.255859375 c 4
 43.234375 905.588867188 44.8994140625 906.178710938 46.4375 905.70703125 c 4
 47.9755859375 905.237304688 49.0263671875 903.818359375 49.0263671875 902.2109375 c 6
 49.0263671875 878.993164062 l 6
 49.3564453125 858.826171875 50.2119140625 824.021484375 110.967773438 700.3203125 c 4
 138.115234375 645.045898438 158.170898438 588.298828125 172.9765625 534.002929688 c 5
 172.9765625 732.451171875 l 6
 172.958007812 782.927734375 173.576171875 823.848632812 157.490234375 824.284179688 c 5
 157.490234375 824.284179688 196.723632812 882.44921875 212.743164062 906.197265625 c 4
 213.641601562 907.53125 215.306640625 908.120117188 216.842773438 907.649414062 c 4
 218.381835938 907.180664062 219.432617188 905.759765625 219.432617188 904.15234375 c 6
 219.432617188 108.486328125 l 6
 219.434570312 96.640625 219.434570312 80.8232421875 219.434570312 65.658203125 c 4
 219.434570312 56.45703125 225.133789062 48.21875 233.74609375 44.978515625 c 4
 240.658203125 42.376953125 248.28125 43.431640625 254.159179688 47.5244140625 c 5
 254.94921875 46.3525390625 l 5
 242.250976562 27.5263671875 195.264648438 -42.134765625 178.755859375 -66.607421875 c 4
 177.979492188 -67.759765625 176.540039062 -68.2685546875 175.211914062 -67.86328125 c 4
 173.883789062 -67.4560546875 172.9765625 -66.23046875 172.9765625 -64.8408203125 c 6
 172.9765625 216.07421875 l 5
EndSplineSet
EndChar

StartChar: O
Encoding: 79 79 48
Width: 254
VWidth: 1120
Flags: W
VStem: 5.03125 46.5<26.3369 85.282 85.2822 852.209> 160.131 46.501<12.9496 847.906>
LayerCount: 2
Fore
SplineSet
5.03125 85.2822265625 m 5
 5.0302734375 805.438476562 l 6
 5.0302734375 823.692382812 13.0927734375 841.012695312 27.056640625 852.763671875 c 6
 27.2041015625 852.887695312 l 6
 45.5048828125 868.284179688 89.501953125 890.329101562 89.501953125 890.329101562 c 6
 97.3974609375 895.825195312 110.233398438 899.110351562 122.133789062 901.06640625 c 4
 141.704101562 904.375976562 161.682617188 898.197265625 175.969726562 884.419921875 c 4
 182.033203125 878.653320312 187.772460938 871.909179688 191.424804688 864.7578125 c 4
 207.607421875 833.055664062 206.634765625 735.892578125 206.631835938 719.328125 c 5
 206.631835938 719.328125 206.631835938 163.014648438 206.631835938 75.134765625 c 4
 206.631835938 52.56640625 199.024414062 30.6572265625 185.038085938 12.9443359375 c 4
 175.083007812 0.3388671875 117.172851562 -67.1884765625 117.172851562 -67.1884765625 c 6
 112.516601562 -70.978515625 65.4326171875 -54.9716796875 20.5302734375 16.2138671875 c 4
 11.0263671875 31.2802734375 4.9970703125 65.2177734375 5.0302734375 84.9638671875 c 4
 5.03125 85.02734375 5.03125 85.2822265625 5.03125 85.2822265625 c 5
145.723632812 4.6181640625 m 4
 146.036132812 5.1513671875 146.311523438 5.7119140625 146.547851562 6.294921875 c 4
 149.83984375 14.3720703125 152.6015625 21.193359375 154.399414062 25.640625 c 4
 156.0390625 29.6806640625 157.2578125 33.880859375 158.038085938 38.1708984375 c 4
 161.329101562 55.98828125 161.416992188 66.9189453125 160.130859375 110.963867188 c 6
 160.130859375 719.328125 l 5
 160.025390625 719.328125 l 5
 159.901367188 774.477539062 157.3984375 807.971679688 149.948242188 830.543945312 c 4
 149.5 831.88671875 148.749023438 833.465820312 147.766601562 835.211914062 c 4
 133.493164062 860.595703125 104.827148438 874.294921875 76.1103515625 869.455078125 c 4
 68.3017578125 868.514648438 62.388671875 867.828125 61.978515625 867.73828125 c 4
 61.1279296875 866.114257812 60.25 864.469726562 59.3525390625 862.833007812 c 4
 54.220703125 853.458984375 51.5302734375 842.943359375 51.5302734375 832.258789062 c 6
 51.53125 154.094726562 l 6
 51.5908203125 65.5654296875 52.8994140625 29.150390625 102.6953125 1.841796875 c 5
 102.6953125 1.841796875 102.6953125 1.8408203125 102.701171875 1.8486328125 c 4
 114.578125 -5.7373046875 129.817382812 -5.587890625 141.54296875 2.2294921875 c 4
 143.09765625 3.26953125 144.532226562 4.1103515625 145.723632812 4.6181640625 c 4
EndSplineSet
EndChar

StartChar: P
Encoding: 80 80 49
Width: 232
VWidth: 1120
Flags: W
VStem: 7.90332 46.5928<47.02 505.785 506.092 530.453 544.192 816.314> 149.645 48.7402<623.524 857.455>
LayerCount: 2
Fore
SplineSet
7.9033203125 -2.70703125 m 6
 7.9033203125 676.477539062 l 6
 7.884765625 727.001953125 8.50390625 815.962890625 -7.59765625 816.3984375 c 5
 -7.59765625 816.3984375 31.6728515625 874.620117188 47.7080078125 898.391601562 c 4
 48.607421875 899.724609375 50.2744140625 900.315429688 51.8134765625 899.844726562 c 4
 53.3515625 899.373046875 54.4033203125 897.953125 54.4033203125 896.342773438 c 6
 54.4033203125 859.24609375 l 5
 87.32421875 890.306640625 l 6
 105.259765625 902.920898438 132.168945312 905.390625 154.999023438 901.7734375 c 4
 174.309570312 898.672851562 188.407226562 883.685546875 193.788085938 864.8828125 c 4
 196.732421875 854.584960938 198.225585938 835.072265625 198.923828125 812.484375 c 4
 199.89453125 781.153320312 198.715820312 681.42578125 198.384765625 656.217773438 c 4
 198.250976562 645.814453125 193.333007812 636.053710938 185.049804688 629.759765625 c 4
 168.969726562 617.537109375 54.4052734375 530.470703125 54.4052734375 530.470703125 c 5
 54.4052734375 530.470703125 54.4033203125 506.295898438 54.4033203125 506.091796875 c 6
 54.4033203125 506.091796875 54.4970703125 82.7431640625 54.49609375 67.5634765625 c 4
 54.4970703125 58.353515625 60.2041015625 50.1083984375 68.8232421875 46.8642578125 c 4
 75.7421875 44.259765625 83.3740234375 45.3154296875 89.2568359375 49.4130859375 c 5
 90.0478515625 48.240234375 l 5
 13.7802734375 -64.8291015625 l 6
 13.00390625 -65.9833984375 11.5634765625 -66.4921875 10.2333984375 -66.0849609375 c 4
 8.9033203125 -65.6787109375 7.994140625 -64.4521484375 7.994140625 -63.060546875 c 6
 7.9833984375 -2.58984375 l 5
 7.9033203125 -2.70703125 l 6
137.489257812 614.821289062 m 6
 145.139648438 621.981445312 149.530273438 631.95703125 149.64453125 642.434570312 c 4
 150.375976562 696.34375 154.861328125 809.82421875 147.981445312 830.668945312 c 4
 139.012695312 857.46484375 111.948242188 873.815429688 84.056640625 869.288085938 c 4
 80.423828125 868.704101562 76.82421875 867.444335938 73.30859375 865.842773438 c 4
 61.794921875 860.602539062 54.4033203125 849.120117188 54.4033203125 836.469726562 c 4
 54.4033203125 784.504882812 54.4033203125 591.262695312 54.4033203125 548.838867188 c 4
 54.4033203125 546.803710938 55.6123046875 544.962890625 57.478515625 544.153320312 c 4
 59.3466796875 543.34375 61.5146484375 543.71875 63.001953125 545.109375 c 4
 84.2421875 564.98828125 137.489257812 614.821289062 137.489257812 614.821289062 c 6
EndSplineSet
EndChar

StartChar: Q
Encoding: 81 81 50
Width: 250
VWidth: 1126
Flags: W
VStem: 1.67285 46.5<24.4955 850.368> 156.774 46.499<24.203 846.065>
LayerCount: 2
Fore
SplineSet
145.776367188 -37.1904296875 m 1
 133.2734375 -54.2265625 122.475585938 -69.0302734375 122.475585938 -69.0302734375 c 2
 117.821289062 -72.8193359375 62.0751953125 -56.8134765625 17.173828125 14.3720703125 c 0
 7.6689453125 29.439453125 1.640625 63.376953125 1.6728515625 83.123046875 c 0
 1.6728515625 83.1865234375 1.6728515625 83.4404296875 1.6728515625 83.4404296875 c 1
 1.6728515625 803.59765625 l 2
 1.6728515625 821.850585938 9.734375 839.170898438 23.7001953125 850.922851562 c 2
 23.84765625 851.046875 l 2
 42.1484375 866.442382812 86.14453125 888.48828125 86.14453125 888.48828125 c 2
 94.0390625 893.984375 106.875976562 897.268554688 118.776367188 899.224609375 c 0
 138.346679688 902.534179688 158.325195312 896.356445312 172.612304688 882.578125 c 0
 178.67578125 876.811523438 184.415039062 870.067382812 188.067382812 862.916992188 c 0
 204.249023438 831.213867188 203.276367188 734.051757812 203.2734375 717.487304688 c 1
 203.2734375 717.487304688 203.2734375 161.172851562 203.2734375 73.29296875 c 0
 203.2734375 50.7255859375 195.66796875 28.8154296875 181.680664062 11.1025390625 c 0
 178.625976562 7.234375 171.869140625 -1.806640625 163.96875 -12.4873046875 c 1
 177.926757812 -49.73828125 194.428710938 -85.16796875 216.631835938 -103.209960938 c 0
 221.3984375 -107.083007812 241.09765625 -95.7978515625 246.024414062 -92.1279296875 c 0
 247.923828125 -90.712890625 249.575195312 -89.482421875 250.741210938 -88.6142578125 c 0
 251.791015625 -87.8310546875 253.25 -87.904296875 254.217773438 -88.7880859375 c 2
 254.217773438 -88.7880859375 254.217773438 -88.7890625 254.219726562 -88.7890625 c 0
 254.860351562 -89.375 254.979492188 -90.3408203125 254.500976562 -91.064453125 c 0
 250.956054688 -96.4248046875 236.759765625 -117.89453125 225.052734375 -135.599609375 c 0
 221.612304688 -140.801757812 215.666015625 -143.78125 209.438476562 -143.420898438 c 0
 203.211914062 -143.061523438 194.073242188 -138.232421875 189.6328125 -133.853515625 c 0
 175.86328125 -120.270507812 161.10546875 -79.109375 145.776367188 -37.1904296875 c 1
151.063476562 23.8505859375 m 1
 152.69140625 27.8759765625 153.903320312 32.0576171875 154.680664062 36.330078125 c 0
 157.970703125 54.1474609375 158.05859375 65.0771484375 156.774414062 109.122070312 c 2
 156.774414062 717.487304688 l 1
 156.66796875 717.487304688 l 1
 156.543945312 772.63671875 154.041992188 806.129882812 146.591796875 828.702148438 c 0
 146.143554688 830.045898438 145.390625 831.624023438 144.409179688 833.370117188 c 0
 130.135742188 858.75390625 101.469726562 872.453125 72.7529296875 867.61328125 c 0
 64.9443359375 866.673828125 59.0302734375 865.987304688 58.6201171875 865.896484375 c 0
 57.76953125 864.272460938 56.8916015625 862.627929688 55.994140625 860.991210938 c 0
 50.8642578125 851.6171875 48.171875 841.102539062 48.171875 830.416992188 c 2
 48.1728515625 152.252929688 l 2
 48.2333984375 63.7236328125 49.5419921875 27.30859375 99.3369140625 0.0009765625 c 1
 99.3369140625 0.0009765625 99.3369140625 -0.0009765625 99.3427734375 0.0078125 c 0
 109.483398438 -6.4697265625 122.073242188 -7.3076171875 132.834960938 -2.5498046875 c 1
 121.063476562 27.7958984375 109.037109375 54.3037109375 96.9345703125 65.48046875 c 0
 90.498046875 71.4228515625 84.4306640625 71.60546875 75.775390625 70.24609375 c 0
 73.0966796875 69.8251953125 71.1220703125 69.5166015625 71.1220703125 69.5166015625 c 1
 71.1220703125 69.5166015625 90.38671875 97.2119140625 100.729492188 112.083007812 c 0
 102.083007812 114.03125 104.356445312 115.127929688 106.72265625 114.979492188 c 0
 109.08984375 114.829101562 110.6015625 113.001953125 112.305664062 111.350585938 c 0
 126.01953125 98.060546875 137.694335938 62.7607421875 151.063476562 23.8505859375 c 1
EndSplineSet
EndChar

StartChar: R
Encoding: 82 82 51
Width: 251
VWidth: 1120
Flags: W
VStem: 3.54199 46.5938<46.0668 392.562 392.616 540.6 543.233 815.361> 145.281 48.7412<622.571 856.502> 158.637 46.502<45.5034 391.774>
LayerCount: 2
Fore
SplineSet
50.06640625 392.5625 m 1xa0
 50.09375 265.986328125 50.1357421875 76.669921875 50.1357421875 66.6103515625 c 0
 50.1357421875 57.400390625 55.841796875 49.1552734375 64.4619140625 45.9111328125 c 0
 71.3798828125 43.306640625 79.01171875 44.3623046875 84.8935546875 48.4599609375 c 1
 85.6845703125 47.287109375 l 1
 9.4189453125 -65.7822265625 l 2
 8.640625 -66.9365234375 7.201171875 -67.4453125 5.8720703125 -67.0380859375 c 0
 4.5419921875 -66.6318359375 3.6337890625 -65.4052734375 3.6337890625 -64.013671875 c 2
 3.62109375 -3.54296875 l 1
 3.5419921875 -3.66015625 l 1
 3.541015625 675.524414062 l 2
 3.5224609375 726.048828125 4.142578125 815.009765625 -11.9580078125 815.4453125 c 1
 -11.9580078125 815.4453125 27.3115234375 873.666992188 43.345703125 897.438476562 c 0
 44.2451171875 898.771484375 45.912109375 899.362304688 47.451171875 898.891601562 c 0
 48.9912109375 898.419921875 50.0419921875 897 50.0419921875 895.389648438 c 2
 50.0419921875 858.29296875 l 1
 82.9609375 889.353515625 l 2
 100.896484375 901.967773438 127.807617188 904.4375 150.63671875 900.8203125 c 0
 169.947265625 897.719726562 184.045898438 882.732421875 189.42578125 863.9296875 c 0
 192.37109375 853.631835938 193.86328125 834.119140625 194.561523438 811.53125 c 0
 195.53125 780.200195312 194.353515625 680.47265625 194.022460938 655.264648438 c 0xc0
 193.890625 644.861328125 188.970703125 635.100585938 180.688476562 628.806640625 c 2
 111.411132812 576.155273438 l 1
 125.59375 579.5625 141.322265625 579.661132812 155.48046875 577.416992188 c 0
 174.791992188 574.317382812 190.205078125 559.657226562 194.268554688 540.526367188 c 0
 205.859375 484.865234375 205.13671875 391.999023438 205.13671875 391.999023438 c 1
 205.13671875 391.999023438 205.138671875 81.2255859375 205.138671875 66.046875 c 0
 205.138671875 56.8369140625 210.845703125 48.591796875 219.46484375 45.34765625 c 0
 226.227539062 42.802734375 233.671875 43.7529296875 239.497070312 47.6240234375 c 1
 240.395507812 46.2900390625 l 1
 164.421875 -66.345703125 l 2
 163.64453125 -67.5 162.205078125 -68.0087890625 160.875976562 -67.6025390625 c 0
 159.544921875 -67.1953125 158.63671875 -65.96875 158.63671875 -64.5771484375 c 2
 158.544921875 391.998046875 l 1
 158.544921875 391.999023438 l 2
 158.505859375 448.998046875 156.05078125 483.319335938 148.462890625 506.314453125 c 0
 139.495117188 533.109375 112.430664062 549.459960938 84.5390625 544.930664062 c 0
 83.482421875 544.760742188 82.4384765625 544.549804688 81.404296875 544.301757812 c 0
 63.064453125 539.854492188 50.150390625 523.432617188 50.150390625 504.561523438 c 0
 50.134765625 465.703125 50.134765625 392.5625 50.134765625 392.5625 c 1
 50.06640625 392.5625 l 1xa0
50.134765625 546.918945312 m 2
 50.4501953125 545.284179688 51.5517578125 543.87890625 53.1171875 543.200195312 c 0
 54.984375 542.390625 57.154296875 542.765625 58.638671875 544.15625 c 0
 79.8818359375 564.03515625 133.126953125 613.868164062 133.126953125 613.868164062 c 2
 140.778320312 621.028320312 145.168945312 631.00390625 145.28125 641.481445312 c 0
 146.012695312 695.390625 150.499023438 808.87109375 143.620117188 829.715820312 c 0
 134.650390625 856.51171875 107.586914062 872.862304688 79.6943359375 868.334960938 c 0
 76.0625 867.750976562 72.4638671875 866.491210938 68.9482421875 864.889648438 c 0
 57.43359375 859.649414062 50.0419921875 848.166992188 50.0419921875 835.516601562 c 2
 50.134765625 546.918945312 l 2
EndSplineSet
EndChar

StartChar: S
Encoding: 83 83 52
Width: 258
VWidth: 1120
Flags: W
VStem: 5.85449 46.7617<25.0168 297.748 297.927 353.003 576.123 814.484 814.621 828.598> 160.897 46.5195<13.1274 161.181 161.356 163.385 163.466 461.599>
LayerCount: 2
Fore
SplineSet
158.8359375 38.34765625 m 0
 162.127929688 56.166015625 160.870117188 163.462890625 160.870117188 163.462890625 c 1
 160.897460938 163.465820312 l 1
 160.553710938 213.89453125 160.698242188 332.840820312 160.799804688 393.130859375 c 0
 160.84375 425.875 148.01171875 457.325195312 125.068359375 480.688476562 c 0
 119.591796875 486.260742188 113.861328125 490.928710938 108.16796875 493.743164062 c 0
 100.802734375 497.38671875 88.1201171875 503.213867188 73.853515625 509.952148438 c 0
 23.375 533.79296875 12.0830078125 566.234375 12.0830078125 622.05859375 c 2
 12.0830078125 787.802734375 l 2
 12.0830078125 806.0546875 20.1455078125 823.375 34.111328125 835.127929688 c 2
 92.08984375 892.274414062 l 2
 112.336914062 910.104492188 154.658203125 908.786132812 199.560546875 837.6015625 c 0
 203.055664062 832.0625 197.737304688 827.0546875 197.737304688 827.0546875 c 1
 135.64453125 762.954101562 l 1
 133.953125 766.215820312 l 1
 133.953125 766.215820312 141.809570312 777.619140625 147.94921875 786.53125 c 0
 152.479492188 793.108398438 153.763671875 801.390625 151.4375 809.030273438 c 0
 151.158203125 809.94921875 150.869140625 810.899414062 150.572265625 811.875976562 c 0
 143.702148438 834.438476562 118.486328125 860.624023438 95.189453125 864.297851562 c 2
 95.1875 864.297851562 l 2
 92.2158203125 864.768554688 74.8544921875 858.716796875 74.8544921875 858.716796875 c 2
 74.0048828125 857.090820312 71.634765625 852.66015625 70.73828125 851.020507812 c 0
 65.60546875 841.6484375 58.5830078125 825.30859375 58.5830078125 814.62109375 c 2
 58.5830078125 814.62109375 58.681640625 625.454101562 58.84765625 622.594726562 c 0
 61.2724609375 580.987304688 78.982421875 560.280273438 118.540039062 549.102539062 c 0
 134.383789062 544.625976562 201.654296875 507.633789062 207.431640625 421.424804688 c 0
 208.622070312 403.649414062 207.416992188 161.180664062 207.416992188 161.180664062 c 1
 207.431640625 161.180664062 l 1
 207.431640625 75.3125 l 2
 207.431640625 52.744140625 199.823242188 30.8349609375 185.836914062 13.1220703125 c 0
 175.881835938 0.5146484375 117.971679688 -67.0107421875 117.971679688 -67.0107421875 c 2
 113.314453125 -70.80078125 66.2333984375 -54.7939453125 21.3291015625 16.390625 c 0
 14.9013671875 26.580078125 10.0654296875 45.396484375 7.6162109375 62.6220703125 c 0
 6.49609375 66.7294921875 5.8486328125 70.5849609375 5.8544921875 74.0126953125 c 0
 5.8544921875 74.076171875 5.8291015625 297.91015625 5.8291015625 297.91015625 c 1
 5.85546875 297.926757812 l 1
 5.85546875 313.3515625 l 2
 5.85546875 324.565429688 10.2177734375 335.338867188 18.01953125 343.393554688 c 0
 36.0986328125 362.0546875 67.947265625 394.935546875 67.947265625 394.935546875 c 1
 69.6376953125 391.673828125 l 1
 69.6376953125 391.673828125 66.302734375 386.465820312 62.55859375 380.622070312 c 0
 55.869140625 370.1796875 52.322265625 358.03515625 52.3369140625 345.634765625 c 0
 52.34765625 336.989257812 52.365234375 319.276367188 52.34765625 314.737304688 c 0
 52.3759765625 305.360351562 52.4423828125 125.23046875 52.6162109375 117.041992188 c 0
 53.931640625 54.78125 61.33984375 25.1376953125 103.493164062 2.0185546875 c 1
 103.493164062 2.0185546875 103.494140625 2.0185546875 103.5 2.0263671875 c 0
 115.377929688 -5.5595703125 130.615234375 -5.4111328125 142.341796875 2.4072265625 c 0
 143.896484375 3.447265625 145.331054688 4.287109375 146.521484375 4.794921875 c 0
 146.833984375 5.328125 147.110351562 5.8876953125 147.346679688 6.4716796875 c 0
 150.638671875 14.546875 153.400390625 21.3701171875 155.19921875 25.8173828125 c 0
 156.837890625 29.8583984375 158.056640625 34.0576171875 158.8359375 38.34765625 c 0
EndSplineSet
EndChar

StartChar: T
Encoding: 84 84 53
Width: 245
VWidth: 1120
Flags: W
HStem: 854.74 46.5<-10.365 87.2709 136.287 222.803>
VStem: 89.7852 46.502<47.3892 854.74>
LayerCount: 2
Fore
SplineSet
74.2861328125 854.740234375 m 6
 -36.9609375 854.740234375 l 5
 -36.9609375 854.740234375 -8.2490234375 881.352539062 5.732421875 894.3125 c 4
 10.537109375 898.765625 16.8466796875 901.240234375 23.3974609375 901.240234375 c 6
 249.3984375 901.240234375 l 5
 249.3984375 901.240234375 220.6875 874.626953125 206.706054688 861.66796875 c 4
 201.901367188 857.21484375 195.591796875 854.740234375 189.0390625 854.740234375 c 6
 136.287109375 854.740234375 l 5
 136.287109375 110.803710938 l 6
 136.288085938 98.9453125 136.288085938 83.11328125 136.288085938 67.9345703125 c 4
 136.288085938 58.724609375 141.99609375 50.478515625 150.615234375 47.2333984375 c 4
 157.53125 44.630859375 165.1640625 45.685546875 171.046875 49.7822265625 c 5
 171.837890625 48.609375 l 5
 159.127929688 29.7666015625 112.095703125 -39.962890625 95.572265625 -64.458984375 c 4
 94.7939453125 -65.6123046875 93.35546875 -66.1220703125 92.0234375 -65.7158203125 c 4
 90.6953125 -65.30859375 89.78515625 -64.0810546875 89.78515625 -62.69140625 c 6
 89.78515625 762.8203125 l 6
 89.7666015625 813.34375 90.3876953125 854.3046875 74.2861328125 854.740234375 c 6
EndSplineSet
EndChar

StartChar: U
Encoding: 85 85 54
Width: 254
VWidth: 1119
Flags: W
VStem: 6.23145 46.501<27.2605 818.477> 161.193 46.501<14.7231 822.078>
LayerCount: 2
Fore
SplineSet
161.193359375 112.736328125 m 6
 161.234375 730.20703125 l 6
 161.216796875 780.731445312 161.834960938 821.690429688 145.733398438 822.127929688 c 5
 145.733398438 822.127929688 185.00390625 880.348632812 201.038085938 904.119140625 c 4
 201.939453125 905.454101562 203.604492188 906.044921875 205.14453125 905.573242188 c 4
 206.682617188 905.103515625 207.734375 903.680664062 207.734375 902.072265625 c 6
 207.694335938 118.611328125 l 5
 207.694335938 76.908203125 l 6
 207.694335938 54.33984375 200.0859375 32.4306640625 186.1015625 14.7177734375 c 4
 176.44921875 2.4970703125 121.733398438 -61.333984375 118.393554688 -65.228515625 c 6
 111.450195312 -65.228515625 l 6
 96.02734375 -61.2783203125 58.08984375 -39.8720703125 21.591796875 17.9873046875 c 4
 12.087890625 33.0537109375 6.05859375 66.9912109375 6.091796875 86.7373046875 c 4
 6.091796875 86.80078125 6.2314453125 726.607421875 6.2314453125 726.607421875 c 6
 6.212890625 777.130859375 6.83203125 818.090820312 -9.26953125 818.52734375 c 5
 -9.26953125 818.52734375 30.001953125 876.749023438 46.03515625 900.51953125 c 4
 46.935546875 901.853515625 48.6015625 902.444335938 50.1416015625 901.973632812 c 4
 51.681640625 901.50390625 52.732421875 900.081054688 52.732421875 898.471679688 c 6
 52.8798828125 118.611328125 l 6
 54.197265625 56.3662109375 61.6103515625 26.728515625 103.756835938 3.615234375 c 5
 103.756835938 3.615234375 103.756835938 3.6142578125 103.762695312 3.6220703125 c 4
 115.639648438 -3.96484375 130.87890625 -3.814453125 142.604492188 4.0029296875 c 4
 144.16015625 5.04296875 145.59375 5.8837890625 146.786132812 6.3916015625 c 4
 147.09765625 6.9248046875 147.373046875 7.484375 147.609375 8.068359375 c 4
 150.90234375 16.14453125 153.6640625 22.966796875 155.462890625 27.4140625 c 4
 157.100585938 31.4541015625 158.319335938 35.654296875 159.098632812 39.9443359375 c 4
 162.390625 57.76171875 162.478515625 68.69140625 161.193359375 112.736328125 c 6
EndSplineSet
EndChar

StartChar: V
Encoding: 86 86 55
Width: 272
VWidth: 1119
Flags: W
VStem: 7.22852 46.4561<36.7912 814.899> 7.22852 5.7793<-69.2518 -68.0176> 177.919 46.4541<227.368 357.013 357.389 822.099>
LayerCount: 2
Fore
SplineSet
177.918945312 730.31640625 m 2xa0
 177.900390625 780.79296875 178.518554688 821.713867188 162.432617188 822.149414062 c 1
 162.432617188 822.149414062 201.666015625 880.314453125 217.682617188 904.0625 c 0
 218.583007812 905.396484375 220.247070312 905.985351562 221.786132812 905.514648438 c 0
 223.323242188 905.045898438 224.373046875 903.625 224.373046875 902.017578125 c 0
 224.373046875 876.41796875 224.0234375 357.012695312 224.0234375 357.012695312 c 2
 223.67578125 339.668945312 222.359375 322.407226562 220.100585938 305.299804688 c 1
 211.499023438 240.185546875 189.205078125 177.377929688 154.423828125 121.116210938 c 0
 143.645507812 103.6796875 13.0078125 -68.017578125 13.0078125 -68.017578125 c 2
 12.232421875 -69.1689453125 10.7939453125 -69.677734375 9.46484375 -69.271484375 c 0
 8.134765625 -68.865234375 7.228515625 -67.638671875 7.228515625 -66.25 c 2x60
 7.228515625 723.1171875 l 2
 7.2109375 773.592773438 7.828125 814.513671875 -8.2568359375 814.94921875 c 1
 -8.2568359375 814.94921875 30.9765625 873.114257812 46.994140625 896.862304688 c 0
 47.8935546875 898.196289062 49.55859375 898.78515625 51.09765625 898.314453125 c 0
 52.6337890625 897.845703125 53.6845703125 896.42578125 53.6845703125 894.817382812 c 0
 53.6845703125 866.443359375 53.046875 109.642578125 52.951171875 46.90234375 c 0
 52.943359375 42.3134765625 55.8466796875 38.2236328125 60.1826171875 36.71875 c 0
 64.51953125 35.212890625 69.33203125 36.625 72.169921875 40.2333984375 c 0
 76.20703125 45.0595703125 79.978515625 49.7763671875 82.4287109375 53.3115234375 c 0
 91.42578125 66.2890625 104.435546875 91.466796875 117.962890625 119.689453125 c 0
 157.216796875 201.658203125 177.684570312 291.353515625 177.874023438 382.236328125 c 2
 177.918945312 730.31640625 l 2xa0
EndSplineSet
EndChar

StartChar: W
Encoding: 87 87 56
Width: 438
VWidth: 1119
Flags: W
VStem: 1.80273 46.457<32.0478 810.099> 1.80273 5.78125<-74.0517 -72.8174> 172.152 46.708<30.5625 152.81 191.274 709.061 709.315 812.491> 172.404 5.78027<-74.0517 -72.8174> 342.326 46.709<222.215 352.213 352.588 711.46 711.716 814.89>
LayerCount: 2
Fore
SplineSet
342.326171875 711.715820312 m 6xa8
 341.703125 754.051757812 338.919921875 814.62890625 327.09375 814.94921875 c 5
 327.09375 814.94921875 366.326171875 873.114257812 382.344726562 896.862304688 c 4
 383.245117188 898.196289062 384.908203125 898.78515625 386.446289062 898.314453125 c 4
 387.984375 897.845703125 389.03515625 896.42578125 389.03515625 894.817382812 c 4
 389.03515625 869.217773438 388.684570312 352.212890625 388.684570312 352.212890625 c 6
 387.0078125 268.829101562 363.001953125 187.354492188 319.084960938 116.31640625 c 4
 308.305664062 98.8798828125 178.184570312 -72.8173828125 178.184570312 -72.8173828125 c 6
 177.407226562 -73.96875 175.969726562 -74.4775390625 174.640625 -74.0712890625 c 4
 173.311523438 -73.666015625 172.404296875 -72.4384765625 172.404296875 -71.0498046875 c 6
 172.404296875 -71.0498046875 172.404296875 109.853515625 172.403320312 150.953125 c 4
 172.403320312 151.842773438 171.791992188 152.616210938 170.926757812 152.8203125 c 4
 170.060546875 153.025390625 169.16796875 152.607421875 168.76953125 151.811523438 c 4
 162.686523438 139.731445312 156.0625 127.88671875 148.911132812 116.31640625 c 4
 138.130859375 98.8798828125 7.583984375 -72.8173828125 7.583984375 -72.8173828125 c 6
 6.806640625 -73.96875 5.369140625 -74.4775390625 4.0400390625 -74.0712890625 c 4
 2.7109375 -73.666015625 1.802734375 -72.4384765625 1.802734375 -71.0498046875 c 6x58
 1.802734375 718.31640625 l 6
 1.78515625 768.79296875 2.4033203125 809.713867188 -13.6806640625 810.149414062 c 5
 -13.6806640625 810.149414062 25.552734375 868.314453125 41.5693359375 892.0625 c 4
 42.46875 893.396484375 44.1337890625 893.985351562 45.671875 893.514648438 c 4
 47.2099609375 893.045898438 48.259765625 891.625 48.259765625 890.017578125 c 4
 48.259765625 861.59765625 47.61328125 103.1484375 47.5224609375 41.90625 c 4
 47.5146484375 37.4541015625 50.30859375 33.4775390625 54.5 31.9755859375 c 4
 58.6904296875 30.4716796875 63.3759765625 31.7666015625 66.197265625 35.2109375 c 4
 70.439453125 40.015625 74.4443359375 44.818359375 77.0048828125 48.51171875 c 4
 87.6826171875 63.9150390625 117.200195312 96.5068359375 130.58984375 130.963867188 c 4
 158.00390625 201.284179688 172.1484375 276.078125 172.306640625 351.5546875 c 4
 172.321289062 358.397460938 172.15234375 709.315429688 172.15234375 709.315429688 c 6
 171.528320312 751.65234375 168.74609375 812.228515625 156.91796875 812.549804688 c 5
 156.91796875 812.549804688 196.151367188 870.71484375 212.170898438 894.462890625 c 4
 213.0703125 895.795898438 214.734375 896.385742188 216.272460938 895.9140625 c 4
 217.80859375 895.4453125 218.860351562 894.025390625 218.860351562 892.41796875 c 4
 218.860351562 874.666015625 218.201171875 105.586914062 218.129882812 40.3505859375 c 4
 218.123046875 35.96484375 220.838867188 32.03515625 224.942382812 30.48828125 c 4
 229.046875 28.9423828125 233.6796875 30.1064453125 236.567382812 33.4072265625 c 4
 241.719726562 38.7958984375 246.6875 44.3564453125 249.569335938 48.51171875 c 4
 260.25 63.9150390625 287.375 96.5068359375 300.763671875 130.963867188 c 4
 328.178710938 201.284179688 342.323242188 276.078125 342.481445312 351.5546875 c 4
 342.49609375 358.397460938 342.326171875 711.715820312 342.326171875 711.715820312 c 6xa8
EndSplineSet
EndChar

StartChar: X
Encoding: 88 88 57
Width: 274
VWidth: 1119
Flags: W
VStem: 13.2393 48.8008<16.6517 438.73 601.309 818.452> 181.009 46.458<43.2864 106.639 106.667 456.573 660.37 744.006 744.046 826.964>
LayerCount: 2
Fore
SplineSet
62.0400390625 407.056640625 m 2
 62.0400390625 179.099609375 l 2
 63.408203125 94.5126953125 50.36328125 -25.44140625 -20.6162109375 -69.8486328125 c 1
 -23.65625 -65.109375 l 1
 -23.65625 -65.109375 -20.6484375 -57.71484375 -16.0283203125 -46.353515625 c 0
 10.6669921875 19.2958984375 11.486328125 106.837890625 13.1259765625 168.413085938 c 0
 13.18359375 170.551757812 13.2216796875 173.484375 13.2392578125 176.716796875 c 2
 13.2392578125 404.672851562 l 2
 13.5302734375 422.94140625 18.90234375 440.766601562 28.7529296875 456.154296875 c 1
 44.5087890625 480.768554688 64.044921875 502.697265625 86.6083984375 521.153320312 c 0
 88.052734375 522.3359375 89.8720703125 523.934570312 91.6962890625 525.583984375 c 0
 93.728515625 527.3671875 94.8115234375 529.99609375 94.62109375 532.693359375 c 0
 94.4326171875 535.388671875 92.9951171875 537.840820312 90.734375 539.322265625 c 0
 74.56640625 549.922851562 42.8203125 570.7265625 42.8203125 570.7265625 c 2
 22.755859375 583.875 10.6708984375 606.247070312 10.6708984375 630.234375 c 1
 10.65234375 680.708984375 11.2705078125 818.135742188 -4.814453125 818.572265625 c 1
 -4.814453125 818.572265625 34.41796875 876.736328125 50.435546875 900.484375 c 0
 51.3349609375 901.818359375 53 902.408203125 54.5390625 901.936523438 c 0
 56.076171875 901.467773438 57.1259765625 900.047851562 57.1259765625 898.439453125 c 2
 57.1259765625 651.223632812 l 2
 57.1259765625 630.67578125 67.5419921875 611.528320312 84.7919921875 600.366210938 c 2
 84.7919921875 600.366210938 108.671875 584.913085938 120.97265625 576.953125 c 0
 124.934570312 574.389648438 130.221679688 575.473632812 132.85546875 579.390625 c 0
 135.954101562 584.000976562 139.430664062 589.171875 139.430664062 589.171875 c 2
 159.751953125 619.396484375 175.344726562 658.768554688 176.586914062 744.005859375 c 2
 176.586914062 744.005859375 177.041992188 799.181640625 177.443359375 802.76171875 c 0
 178.043945312 808.0703125 177.284179688 813.443359375 175.239257812 818.376953125 c 0
 172.990234375 823.787109375 169.865234375 826.853515625 165.5234375 826.971679688 c 1
 165.5234375 826.971679688 204.756835938 885.13671875 220.774414062 908.884765625 c 0
 221.46875 909.9140625 222.618164062 910.498046875 223.813476562 910.497070312 c 0
 224.174804688 910.5 224.541015625 910.44921875 224.899414062 910.337890625 c 0
 226.424804688 909.873046875 227.46484375 908.466796875 227.46484375 906.873046875 c 2
 227.46484375 767.450195312 l 2
 227.46484375 679.134765625 189.66796875 615.53515625 143.216796875 574.086914062 c 0
 141.372070312 572.44140625 140.946289062 569.698242188 141.3203125 567.254882812 c 0
 141.694335938 564.809570312 143.095703125 562.642578125 145.169921875 561.299804688 c 0
 146.995117188 560.11328125 148.404296875 559.201171875 148.404296875 559.201171875 c 2
 197.681640625 527.3125 227.439453125 442.333007812 227.450195312 383.638671875 c 2
 227.450195312 185.97265625 l 2
 227.458007812 145.208007812 227.46484375 106.638671875 227.46484375 106.638671875 c 2
 227.466796875 94.79296875 227.466796875 78.9755859375 227.466796875 63.810546875 c 0
 227.466796875 54.6103515625 233.16796875 46.3720703125 241.778320312 43.130859375 c 0
 248.690429688 40.5302734375 256.314453125 41.5849609375 262.19140625 45.6767578125 c 1
 262.981445312 44.505859375 l 1
 250.284179688 25.6796875 203.296875 -43.98046875 186.788085938 -68.455078125 c 0
 186.012695312 -69.607421875 184.57421875 -70.1162109375 183.24609375 -69.708984375 c 0
 181.916992188 -69.3037109375 181.008789062 -68.0771484375 181.008789062 -66.6884765625 c 2
 181.008789062 158.703125 l 1
 181.008789062 158.703125 181.008789062 85.91015625 181.008789062 356.370117188 c 0
 181.008789062 409.685546875 156.463867188 486.576171875 115.000976562 522.34765625 c 0
 113.065429688 523.942382812 110.53125 524.61328125 108.060546875 524.185546875 c 0
 105.58984375 523.7578125 103.4296875 522.272460938 102.142578125 520.120117188 c 0
 98.5078125 514.133789062 94.296875 507.083984375 94.296875 507.083984375 c 2
 81.63671875 489.469726562 75.0703125 459.72265625 67.9833984375 439.22265625 c 1
 67.9833984375 439.22265625 67.9833984375 439.22265625 68.005859375 439.215820312 c 1
 64.4248046875 428.853515625 61.861328125 418.017578125 62.0400390625 407.056640625 c 2
EndSplineSet
EndChar

StartChar: Y
Encoding: 89 89 58
Width: 239
VWidth: 1119
Flags: W
VStem: 6.89746 46.1338<565.84 806.043> 145.408 46.5635<57.6464 521.48 538.244 641.116 641.162 815.636>
LayerCount: 2
Fore
SplineSet
145.40625 521.71484375 m 5
 96.4384765625 459.372070312 l 5
 92.21875 459.372070312 l 6
 82.6572265625 462.794921875 59.458984375 483.916992188 22.3818359375 542.694335938 c 4
 12.88671875 557.747070312 6.8642578125 591.650390625 6.8974609375 611.37890625 c 4
 6.8974609375 611.44140625 6.8974609375 611.697265625 6.8974609375 611.697265625 c 5
 6.8974609375 641.021484375 l 6
 6.8779296875 691.497070312 7.1767578125 805.709960938 -8.9091796875 806.146484375 c 5
 -8.9091796875 806.146484375 30.32421875 864.310546875 46.3427734375 888.05859375 c 4
 47.2421875 889.392578125 48.9052734375 889.982421875 50.4443359375 889.510742188 c 4
 51.9814453125 889.041992188 53.03125 887.622070312 53.03125 886.013671875 c 6
 53.3525390625 643.036132812 l 5
 56.9345703125 585.342773438 70.572265625 567.7421875 88.958984375 549.56640625 c 4
 102.026367188 536.650390625 121.03125 537.150390625 133.518554688 539.37109375 c 4
 134.012695312 539.459960938 134.505859375 539.553710938 134.998046875 539.65625 c 4
 141.046875 540.875 145.401367188 546.186523438 145.408203125 552.357421875 c 4
 145.443359375 577.047851562 145.514648438 641.162109375 145.514648438 641.162109375 c 6
 145.498046875 691.572265625 146.100585938 815.311523438 130.029296875 815.74609375 c 5
 130.029296875 815.74609375 169.262695312 873.911132812 185.28125 897.659179688 c 4
 186.1796875 898.9921875 187.844726562 899.58203125 189.3828125 899.111328125 c 4
 190.919921875 898.642578125 191.971679688 897.221679688 191.971679688 895.614257812 c 6
 192.291015625 196.703125 l 6
 192.291015625 110.059570312 168.157226562 25.126953125 122.59765625 -48.5703125 c 4
 111.818359375 -66.0068359375 104.177734375 -78.365234375 104.177734375 -78.365234375 c 5
 101.139648438 -73.6259765625 l 5
 101.139648438 -73.6259765625 104.145507812 -66.2314453125 108.765625 -54.8701171875 c 4
 140.626953125 23.4814453125 150.107421875 107.923828125 145.40625 192.375 c 4
 145.07421875 198.326171875 145.40625 521.71484375 145.40625 521.71484375 c 5
EndSplineSet
EndChar

StartChar: A
Encoding: 65 65 59
Width: 235
VWidth: 1120
Flags: W
HStem: 547.666 43.0596<58.2363 141.614>
VStem: 3.875 46.4561<60.0335 123.387 123.609 539.9 582.61 861> 142.241 46.4561<60.0335 556.06 591.131 858.886>
LayerCount: 2
Fore
SplineSet
3.875 -49.9404296875 m 2
 3.875 814.275390625 l 2
 3.875 832.510742188 11.9287109375 849.813476562 25.8818359375 861.5546875 c 2
 26.029296875 861.678710938 l 2
 47.046875 879.358398438 71.6123046875 898.935546875 71.6123046875 898.935546875 c 1
 71.8232421875 899.083984375 l 2
 89.740234375 911.55859375 116.504882812 913.9921875 139.223632812 910.390625 c 0
 158.515625 907.294921875 173.915039062 892.6484375 177.974609375 873.537109375 c 0
 188.30078125 823.946289062 188.844726562 744.794921875 188.840820312 728.24609375 c 2
 188.697265625 123.38671875 l 2
 188.698242188 111.540039062 188.69921875 95.7236328125 188.69921875 80.55859375 c 0
 188.69921875 71.3564453125 194.400390625 63.1181640625 203.01171875 59.8779296875 c 0
 209.921875 57.2763671875 217.545898438 58.3310546875 223.424804688 62.4248046875 c 1
 224.213867188 61.2529296875 l 1
 211.516601562 42.4267578125 164.529296875 -27.234375 148.021484375 -51.7080078125 c 0
 147.245117188 -52.859375 145.806640625 -53.3681640625 144.478515625 -52.962890625 c 0
 143.1484375 -52.556640625 142.241210938 -51.330078125 142.241210938 -49.9404296875 c 2
 142.241210938 556.059570312 l 1
 135.734375 543.141601562 123.813476562 547.3671875 76.4814453125 547.666015625 c 0
 69.5654296875 547.715820312 62.9150390625 545.00390625 58.0048828125 540.129882812 c 0
 53.0966796875 535.2578125 50.3369140625 528.627929688 50.3369140625 521.7109375 c 0
 50.3310546875 429.8828125 50.3310546875 123.38671875 50.3310546875 123.38671875 c 2
 50.3330078125 111.540039062 50.3330078125 95.7236328125 50.3330078125 80.55859375 c 0
 50.3330078125 71.3564453125 56.0341796875 63.1181640625 64.64453125 59.8779296875 c 0
 71.556640625 57.2763671875 79.1796875 58.3310546875 85.0576171875 62.4248046875 c 1
 85.84765625 61.2529296875 l 1
 73.150390625 42.4267578125 26.1630859375 -27.234375 9.654296875 -51.7080078125 c 0
 8.87890625 -52.859375 7.4404296875 -53.3681640625 6.1103515625 -52.962890625 c 0
 4.7822265625 -52.556640625 3.875 -51.330078125 3.875 -49.9404296875 c 2
142.280273438 728.24609375 m 2
 142.154296875 783.34375 139.655273438 816.803710938 132.212890625 839.356445312 c 0
 123.25390625 866.126953125 96.2138671875 882.461914062 68.3505859375 877.9375 c 0
 65.5859375 877.493164062 63.078125 877.021484375 60.76953125 876.514648438 c 0
 59.9189453125 874.891601562 59.0419921875 873.25 58.1455078125 871.612304688 c 0
 53.0185546875 862.248046875 50.3310546875 851.744140625 50.3310546875 841.068359375 c 2
 50.3359375 582.610351562 l 1
 50.3359375 582.610351562 58.6806640625 584.766601562 66.76953125 586.856445312 c 0
 76.7119140625 589.424804688 86.9404296875 590.725585938 97.2109375 590.725585938 c 2
 116.279296875 590.725585938 l 2
 130.618164062 590.725585938 142.241210938 602.349609375 142.241210938 616.686523438 c 2
 142.280273438 728.24609375 l 2
EndSplineSet
EndChar

StartChar: backslash
Encoding: 92 92 61
Width: 249
VWidth: 1124
Flags: W
VStem: -18.7109 257.566
LayerCount: 2
Fore
SplineSet
238.85546875 -13.0419921875 m 0
 227.740234375 -27.193359375 203.467773438 -57.8916015625 188.966796875 -76.220703125 c 0
 186.875 -78.8662109375 183.4375 -80.0576171875 180.15625 -79.271484375 c 0
 176.875976562 -78.486328125 174.350585938 -75.8681640625 173.682617188 -72.5595703125 c 0
 149.658203125 46.4970703125 16.1025390625 708.352539062 0.232421875 787.002929688 c 0
 -0.943359375 792.825195312 -4.625 797.833984375 -9.8330078125 800.689453125 c 0
 -14.4736328125 803.049804688 -18.7109375 804.9765625 -18.7109375 804.9765625 c 1
 -18.7109375 808.264648438 l 1
 -8.697265625 817.495117188 l 2
 -3.5224609375 822.052734375 2.529296875 826.491210938 9.419921875 829.383789062 c 0
 14.9697265625 831.71875 21.2734375 831.44921875 26.6025390625 828.647460938 c 0
 31.9326171875 825.844726562 35.7294921875 820.805664062 36.9541015625 814.909179688 c 0
 59.8896484375 704.430664062 187.326171875 90.263671875 187.326171875 90.263671875 c 1
 187.326171875 90.263671875 202.099609375 17.068359375 207.072265625 -7.5771484375 c 0
 207.98828125 -12.1064453125 212.296875 -15.1220703125 216.866210938 -14.427734375 c 0
 228.463867188 -12.6630859375 236.919921875 -10.8037109375 236.919921875 -10.8037109375 c 1
 236.919921875 -10.8037109375 238.337890625 -10.5791015625 238.809570312 -11.1240234375 c 0
 239.28125 -11.6708984375 239.30078125 -12.4736328125 238.85546875 -13.0419921875 c 0
EndSplineSet
EndChar

StartChar: exclam
Encoding: 33 33 62
Width: 108
VWidth: 1120
Flags: W
VStem: 9.85449 55.418<58.2196 299.07> 9.85449 46.501<50.1029 795.397>
LayerCount: 2
Fore
SplineSet
8.8955078125 -84.767578125 m 0x00
 8.1689453125 -83.7236328125 7.4541015625 -82.693359375 6.7509765625 -81.68359375 c 0
 -1.2265625 -70.20703125 -1.2265625 -54.978515625 6.7509765625 -43.5009765625 c 0
 19.3447265625 -25.38671875 36.357421875 -0.912109375 36.357421875 -0.912109375 c 1
 36.357421875 -0.912109375 53.3720703125 -25.38671875 65.9638671875 -43.5009765625 c 0
 73.943359375 -54.978515625 73.943359375 -70.20703125 65.9638671875 -81.68359375 c 0
 65.26171875 -82.693359375 64.546875 -83.7236328125 63.8203125 -84.767578125 c 0
 57.568359375 -93.7607421875 47.3095703125 -99.1220703125 36.357421875 -99.1220703125 c 0
 25.4052734375 -99.1220703125 15.146484375 -93.7607421875 8.8955078125 -84.767578125 c 0x00
9.8544921875 36.767578125 m 1x40
 9.8544921875 703.528320312 l 2
 9.8359375 754.05078125 10.4560546875 795.01171875 -5.64453125 795.447265625 c 1
 -5.64453125 795.447265625 33.6259765625 853.668945312 49.658203125 877.440429688 c 0
 50.55859375 878.7734375 52.224609375 879.364257812 53.7646484375 878.89453125 c 0
 55.3046875 878.422851562 56.35546875 877.002929688 56.35546875 875.392578125 c 2
 56.35546875 179.456054688 l 2x40
 56.361328125 112.254882812 62.2470703125 90.0126953125 65.2724609375 83.10546875 c 0x80
 66.228515625 81.37109375 65.8857421875 79.2080078125 64.439453125 77.8544921875 c 0
 56.3349609375 70.271484375 30.052734375 45.681640625 17.14453125 33.603515625 c 0
 15.884765625 32.42578125 14.0458984375 32.1064453125 12.4619140625 32.7919921875 c 0
 10.87890625 33.48046875 9.8544921875 35.041015625 9.8544921875 36.767578125 c 1x40
EndSplineSet
EndChar

StartChar: dollar
Encoding: 36 36 63
Width: 248
VWidth: 1126
Flags: W
HStem: 618.295 21G<148.189 179.476> 618.295 21G<148.189 179.476>
VStem: 0.0078125 46.4932<125.219 221.823 452.579 639.38 639.479 653.455> 78.3164 46.5635<124.247 335.86 449.005 654.018 714.509 754.779> 155.022 46.5625<111.984 174.386 174.462 195.711 262.537 331.733>
LayerCount: 2
Fore
SplineSet
77.9306640625 708.939453125 m 5xb8
 76.9228515625 736.151367188 73.6279296875 754.514648438 62.8759765625 754.805664062 c 5
 62.8759765625 754.805664062 102.146484375 813.026367188 118.1796875 836.797851562 c 4
 119.080078125 838.131835938 120.74609375 838.721679688 122.28515625 838.251953125 c 4
 123.825195312 837.78125 124.876953125 836.360351562 124.876953125 834.750976562 c 6
 124.876953125 723.987304688 l 5
 146.065429688 718.301757812 171.763671875 699.284179688 197.1796875 658.994140625 c 4
 200.672851562 653.454101562 195.356445312 648.446289062 195.356445312 648.446289062 c 5
 148.189453125 618.294921875 l 5
 148.189453125 618.294921875 148.487304688 632.290039062 148.189453125 633.266601562 c 4
 146.487304688 638.857421875 143.446289062 644.883789062 139.481445312 650.840820312 c 4
 137.541992188 653.768554688 133.913085938 655.080078125 130.551757812 654.067382812 c 4
 127.188476562 653.0546875 124.88671875 649.958984375 124.88671875 646.446289062 c 4
 124.876953125 585.831054688 124.876953125 420.268554688 124.876953125 420.268554688 c 5
 149.881835938 406.883789062 196.80078125 369.244140625 201.584960938 297.881835938 c 4
 202.775390625 280.106445312 201.584960938 174.385742188 201.584960938 174.385742188 c 6
 201.584960938 151.818359375 193.9765625 129.909179688 179.990234375 112.197265625 c 4
 173.104492188 103.477539062 143.274414062 68.48046875 125.538085938 47.734375 c 5
 127.2734375 40.8017578125 132.306640625 35.001953125 139.203125 32.4052734375 c 4
 146.122070312 29.8017578125 153.752929688 30.8564453125 159.635742188 34.9541015625 c 5
 160.426757812 33.78125 l 5
 147.716796875 14.9375 100.684570312 -54.7900390625 84.16015625 -79.2880859375 c 4
 83.3837890625 -80.4404296875 81.943359375 -80.951171875 80.6142578125 -80.544921875 c 4
 79.283203125 -80.1376953125 78.3759765625 -78.9111328125 78.3759765625 -77.5205078125 c 6
 78.3759765625 46.0107421875 l 5
 60.48828125 58.4951171875 37.71875 80.2138671875 15.482421875 115.465820312 c 4
 9.0546875 125.653320312 4.21875 144.470703125 1.7685546875 161.697265625 c 4
 0.6474609375 165.8046875 0.0009765625 169.659179688 0.0068359375 173.087890625 c 4
 0.0068359375 173.151367188 0.0078125 221.858398438 0.0078125 221.858398438 c 6
 0.0078125 233.072265625 4.37109375 243.845703125 12.171875 251.899414062 c 4
 30.2509765625 270.561523438 62.1005859375 303.442382812 62.1005859375 303.442382812 c 5
 63.791015625 300.180664062 l 5
 63.791015625 300.180664062 60.4560546875 294.973632812 56.7119140625 289.12890625 c 4
 50.021484375 278.685546875 46.4755859375 266.541015625 46.4892578125 254.140625 c 4
 46.5009765625 245.495117188 46.5185546875 227.784179688 46.5009765625 223.244140625 c 4
 46.529296875 213.868164062 46.595703125 224.3046875 46.76953125 216.118164062 c 4
 47.66015625 174.00390625 51.3359375 146.813476562 66.6650390625 126.47265625 c 4
 68.3330078125 124.240234375 71.2431640625 123.326171875 73.88671875 124.205078125 c 4
 76.53125 125.083984375 78.31640625 127.557617188 78.31640625 130.34375 c 4
 78.3759765625 188.276367188 78.3759765625 381.53515625 78.3759765625 381.53515625 c 6
 75.0576171875 383.088867188 71.5810546875 384.721679688 68.005859375 386.41015625 c 4
 17.52734375 410.249023438 6.236328125 442.690429688 6.236328125 498.516601562 c 6
 6.236328125 612.66015625 l 6
 6.236328125 630.912109375 14.298828125 648.232421875 28.2626953125 659.984375 c 6
 77.9306640625 708.939453125 l 5xb8
124.876953125 329.119140625 m 4
 124.876953125 278.774414062 124.876953125 155.684570312 124.879882812 112.076171875 c 4
 124.879882812 109.291015625 126.611328125 106.799804688 129.22265625 105.830078125 c 4
 131.834960938 104.861328125 134.7734375 105.619140625 136.58984375 107.728515625 c 4
 142.455078125 114.59375 148.376953125 122.479492188 149.352539062 124.891601562 c 4
 150.991210938 128.932617188 152.209960938 133.1328125 152.989257812 137.422851562 c 4
 156.28125 155.241210938 155.022460938 262.537109375 155.022460938 262.537109375 c 5
 155.022460938 269.590820312 l 6
 155.0234375 291.924804688 149.043945312 313.649414062 137.977539062 332.624023438 c 4
 136.390625 335.377929688 133.151367188 336.72265625 130.080078125 335.899414062 c 4
 127.010742188 335.079101562 124.875976562 332.297851562 124.876953125 329.119140625 c 4
78.3759765625 672.409179688 m 4
 78.3720703125 675.637695312 76.220703125 678.466796875 73.1123046875 679.333007812 c 4
 70.001953125 680.19921875 66.697265625 678.887695312 65.02734375 676.125976562 c 4
 64.9775390625 676.028320312 64.9287109375 675.947265625 64.8896484375 675.877929688 c 4
 59.7587890625 666.505859375 52.736328125 650.165039062 52.736328125 639.479492188 c 6
 52.736328125 639.479492188 52.8349609375 501.91015625 53.0009765625 499.05078125 c 4
 54.2255859375 478.040039062 59.3486328125 462.358398438 69.212890625 450.541015625 c 4
 70.5986328125 448.862304688 72.88671875 448.233398438 74.935546875 448.969726562 c 4
 76.982421875 449.704101562 78.34765625 451.645507812 78.34765625 453.822265625 c 4
 78.3759765625 500.083007812 78.3759765625 662.885742188 78.3759765625 662.885742188 c 6
 78.375 666.1015625 78.3759765625 669.279296875 78.3759765625 672.409179688 c 4
EndSplineSet
EndChar

StartChar: percent
Encoding: 37 37 64
Width: 434
VWidth: 1124
Flags: W
VStem: 1.16113 44.8467<530.622 715.817 715.858 727.243> 112.674 46.501<496.063 507.448 507.489 692.684> 231.291 44.8467<85.6124 270.808 270.849 282.234> 342.804 46.502<51.0543 62.4385 62.4794 247.676>
LayerCount: 2
Fore
SplineSet
303.659179688 845.2734375 m 0
 303.998046875 845.791992188 304.577148438 846.100585938 305.196289062 846.092773438 c 0
 305.815429688 846.0859375 306.38671875 845.763671875 306.713867188 845.23828125 c 0
 308.862304688 841.463867188 308.296875 834.818359375 307.333984375 829.950195312 c 0
 285.4921875 719.471679688 140.711914062 -9.1494140625 140.711914062 -9.1494140625 c 1
 140.711914062 -9.1494140625 107.741210938 -49.3056640625 89.953125 -70.9697265625 c 0
 88.6904296875 -72.5068359375 86.5419921875 -72.9873046875 84.7451171875 -72.130859375 c 0
 82.9482421875 -71.2763671875 81.96484375 -69.3076171875 82.3603515625 -67.3564453125 c 0
 103.3359375 35.7001953125 214.955078125 584.139648438 250.060546875 756.635742188 c 0
 251.405273438 763.237304688 253.9921875 769.522460938 257.686523438 775.157226562 c 0
 269.719726562 793.510742188 297.485351562 835.858398438 303.659179688 845.2734375 c 0
231.291015625 166.64453125 m 1
 231.291015625 244.030273438 l 2
 231.291015625 262.283203125 239.352539062 279.602539062 253.317382812 291.354492188 c 0
 271.618164062 306.75 293.184570312 311.670898438 305.083984375 313.626953125 c 0
 324.654296875 316.934570312 344.633789062 310.7578125 358.919921875 296.98046875 c 0
 364.984375 291.213867188 370.72265625 284.469726562 374.373046875 277.318359375 c 0
 385.456054688 255.612304688 388.4921875 217.022460938 389.305664062 166.643554688 c 1
 389.303710938 166.643554688 l 1
 389.305664062 89.2568359375 l 2
 389.305664062 71.0068359375 381.241210938 53.6845703125 367.276367188 41.93359375 c 0
 348.9765625 26.537109375 327.41015625 21.6162109375 315.510742188 19.6611328125 c 0
 295.940429688 16.3525390625 275.961914062 22.529296875 261.674804688 36.3076171875 c 0
 255.612304688 42.0751953125 249.873046875 48.818359375 246.220703125 55.96875 c 0
 235.140625 77.67578125 232.104492188 116.265625 231.291015625 166.64453125 c 1
345.624023438 166.643554688 m 0
 345.217773438 192.2265625 342.755859375 214.177734375 340.0703125 222.315429688 c 0
 339.623046875 223.657226562 331.698242188 246.026367188 330.716796875 247.772460938 c 0
 319.877929688 267.046875 300.020507812 279.676757812 278.862304688 282.474609375 c 0
 278.151367188 278.654296875 277.791992188 274.763671875 277.791992188 270.848632812 c 2
 277.791992188 270.848632812 275.6640625 214.596679688 276.137695312 166.643554688 c 0
 276.54296875 141.061523438 277.838867188 119.109375 280.5234375 110.971679688 c 0
 280.973632812 109.629882812 288.896484375 87.26171875 289.877929688 85.515625 c 0
 300.717773438 66.240234375 320.576171875 53.611328125 341.733398438 50.8125 c 0
 342.442382812 54.6328125 342.803710938 58.5244140625 342.803710938 62.4384765625 c 2
 342.803710938 62.4384765625 346.095703125 118.69140625 345.624023438 166.643554688 c 0
1.1611328125 611.65234375 m 1
 1.16015625 689.0390625 l 2
 1.16015625 707.291015625 9.22265625 724.611328125 23.1884765625 736.364257812 c 0
 41.48828125 751.758789062 63.0556640625 756.680664062 74.9541015625 758.635742188 c 0
 94.5244140625 761.944335938 114.50390625 755.766601562 128.790039062 741.989257812 c 0
 134.853515625 736.221679688 140.59375 729.479492188 144.245117188 722.326171875 c 0
 155.325195312 700.620117188 158.361328125 662.032226562 159.174804688 611.65234375 c 1
 159.173828125 611.65234375 l 1
 159.174804688 534.267578125 l 2
 159.174804688 516.014648438 151.112304688 498.694335938 137.147460938 486.94140625 c 0
 118.846679688 471.547851562 97.28125 466.625976562 85.3818359375 464.670898438 c 0
 65.810546875 461.361328125 45.83203125 467.540039062 31.5458984375 481.317382812 c 0
 25.4814453125 487.083984375 19.7431640625 493.826171875 16.0908203125 500.979492188 c 0
 5.009765625 522.685546875 1.9736328125 561.274414062 1.16015625 611.65234375 c 1
 1.1611328125 611.65234375 l 1
115.493164062 611.65234375 m 0
 115.087890625 637.236328125 112.626953125 659.186523438 109.942382812 667.325195312 c 0
 109.4921875 668.666992188 101.569335938 691.03515625 100.587890625 692.780273438 c 0
 89.748046875 712.055664062 69.8896484375 724.685546875 48.732421875 727.485351562 c 0
 48.0234375 723.663085938 47.6611328125 719.772460938 47.6611328125 715.858398438 c 2
 47.6611328125 715.858398438 45.5341796875 659.604492188 46.0078125 611.65234375 c 0
 46.4130859375 586.0703125 47.7099609375 564.118164062 50.39453125 555.979492188 c 0
 50.8427734375 554.637695312 58.7666015625 532.271484375 59.748046875 530.525390625 c 0
 70.587890625 511.248046875 90.4453125 498.620117188 111.603515625 495.821289062 c 0
 112.3125 499.641601562 112.673828125 503.534179688 112.673828125 507.448242188 c 2
 112.673828125 507.448242188 115.965820312 563.701171875 115.493164062 611.65234375 c 0
EndSplineSet
EndChar

StartChar: slash
Encoding: 47 47 65
Width: 218
VWidth: 1124
Flags: W
VStem: -13.6094 220.451
LayerCount: 2
Fore
SplineSet
205.3046875 845.2734375 m 4
 205.642578125 845.791992188 206.22265625 846.100585938 206.841796875 846.092773438 c 4
 207.461914062 846.0859375 208.032226562 845.763671875 208.359375 845.23828125 c 4
 210.508789062 841.463867188 209.943359375 834.818359375 208.98046875 829.950195312 c 4
 187.138671875 719.471679688 42.357421875 -9.1494140625 42.357421875 -9.1494140625 c 5
 42.357421875 -9.1494140625 9.38671875 -49.3056640625 -8.400390625 -70.9697265625 c 4
 -9.6630859375 -72.5068359375 -11.8125 -72.9873046875 -13.609375 -72.130859375 c 4
 -15.40625 -71.2763671875 -16.388671875 -69.3076171875 -15.9912109375 -67.3564453125 c 4
 4.982421875 35.7001953125 116.600585938 584.139648438 151.706054688 756.635742188 c 4
 153.051757812 763.237304688 155.637695312 769.522460938 159.333007812 775.157226562 c 4
 171.3671875 793.510742188 199.131835938 835.858398438 205.3046875 845.2734375 c 4
EndSplineSet
EndChar

StartChar: question
Encoding: 63 63 66
Width: 218
VWidth: 1120
Flags: W
VStem: 9.6748 46.502<635.054 823.572> 70.8838 46.501<48.114 481.723>
LayerCount: 2
Fore
SplineSet
69.3583984375 -84.3564453125 m 4
 68.6318359375 -83.3125 67.9169921875 -82.2822265625 67.2138671875 -81.2724609375 c 4
 59.236328125 -69.7958984375 59.236328125 -54.5673828125 67.2138671875 -43.08984375 c 4
 79.8076171875 -24.9755859375 96.8203125 -0.5009765625 96.8203125 -0.5009765625 c 5
 96.8203125 -0.5009765625 113.834960938 -24.9755859375 126.426757812 -43.08984375 c 4
 134.40625 -54.5673828125 134.40625 -69.7958984375 126.426757812 -81.2724609375 c 4
 125.724609375 -82.2822265625 125.009765625 -83.3125 124.283203125 -84.3564453125 c 4
 118.03125 -93.349609375 107.772460938 -98.7109375 96.8203125 -98.7109375 c 4
 85.8681640625 -98.7109375 75.609375 -93.349609375 69.3583984375 -84.3564453125 c 4
9.6748046875 690.689453125 m 6
 9.6748046875 776.80078125 l 6
 9.6748046875 795.053710938 17.736328125 812.375 31.703125 824.126953125 c 6
 31.8505859375 824.25 l 6
 52.8876953125 841.948242188 77.4775390625 861.544921875 77.4775390625 861.544921875 c 5
 77.6884765625 861.69140625 l 6
 95.6240234375 874.177734375 122.413085938 876.615234375 145.153320312 873.01171875 c 4
 164.46484375 869.91015625 179.877929688 855.251953125 183.942382812 836.119140625 c 4
 187.434570312 819.34765625 189.80859375 799.198242188 191.42578125 779.23046875 c 4
 195.616210938 727.51171875 190.479492188 675.459960938 176.259765625 625.55859375 c 4
 167.009765625 593.103515625 142.92578125 554.182617188 133.965820312 522.73828125 c 4
 122.96484375 484.133789062 117.384765625 444.185546875 117.384765625 404.044921875 c 6
 117.384765625 231.466796875 l 6
 117.391601562 164.265625 123.275390625 88.0234375 126.301757812 81.1171875 c 4
 127.2578125 79.3828125 126.913085938 77.21875 125.467773438 75.865234375 c 4
 117.36328125 68.2822265625 91.08203125 43.693359375 78.1748046875 31.6142578125 c 4
 76.9140625 30.4365234375 75.07421875 30.1181640625 73.4912109375 30.8037109375 c 4
 71.9072265625 31.4912109375 70.8837890625 33.052734375 70.8837890625 34.7783203125 c 4
 70.8837890625 73.0859375 70.8837890625 266.662109375 70.9091796875 349.536132812 c 4
 70.9091796875 392.267578125 77.232421875 434.763671875 89.67578125 475.643554688 c 4
 129.963867188 606.166992188 172.421875 683.05078125 138.135742188 801.90625 c 4
 130.3046875 829.056640625 102.103515625 845.052734375 74.2119140625 840.524414062 c 4
 71.4462890625 840.080078125 68.9345703125 839.608398438 66.6220703125 839.099609375 c 4
 65.7724609375 837.4765625 64.8955078125 835.83203125 63.9970703125 834.194335938 c 4
 58.8662109375 824.8203125 56.1767578125 814.306640625 56.1767578125 803.620117188 c 6
 56.1767578125 690.689453125 l 6
 56.6845703125 652.391601562 23.5458984375 616.142578125 -8.1259765625 596.329101562 c 5
 -11.16796875 601.073242188 l 5
 -11.16796875 601.073242188 -8.1572265625 608.474609375 -3.533203125 619.84765625 c 4
 5.326171875 641.634765625 9.8671875 661.498046875 9.6748046875 690.689453125 c 6
EndSplineSet
EndChar

StartChar: exclamdown
Encoding: 161 161 67
Width: 106
VWidth: 1124
Flags: W
VStem: 0.0996094 55.4189<438.552 676.629> 9.0166 46.5127<29.9038 100.613 100.639 684.746>
LayerCount: 2
Fore
SplineSet
56.03515625 822.568359375 m 0x00
 56.76171875 821.524414062 57.4765625 820.494140625 58.1796875 819.484375 c 0
 66.158203125 808.0078125 66.158203125 792.779296875 58.1796875 781.302734375 c 0
 45.5869140625 763.1875 28.5732421875 738.712890625 28.5732421875 738.712890625 c 1
 28.5732421875 738.712890625 11.5595703125 763.1875 -1.0322265625 781.302734375 c 0
 -9.01171875 792.779296875 -9.01171875 808.0078125 -1.0322265625 819.484375 c 0
 -0.3310546875 820.494140625 0.3837890625 821.524414062 1.1103515625 822.568359375 c 0
 7.3623046875 831.561523438 17.62109375 836.922851562 28.5732421875 836.922851562 c 0
 39.5263671875 836.922851562 49.7841796875 831.561523438 56.03515625 822.568359375 c 0x00
55.529296875 100.638671875 m 1x40
 55.6083984375 100.638671875 l 1
 55.6083984375 100.638671875 55.6103515625 65.62890625 55.6103515625 50.447265625 c 0
 55.6103515625 41.23828125 61.3173828125 32.9931640625 69.9375 29.748046875 c 0
 76.853515625 27.14453125 84.486328125 28.2001953125 90.3681640625 32.296875 c 1
 91.1591796875 31.1240234375 l 1
 14.89453125 -81.9453125 l 2
 14.115234375 -83.09765625 12.67578125 -83.6083984375 11.345703125 -83.201171875 c 0
 10.0166015625 -82.794921875 9.107421875 -81.56640625 9.107421875 -80.1767578125 c 2
 9.095703125 -19.7060546875 l 1
 9.0166015625 -19.822265625 l 1
 9.0166015625 555.392578125 l 2x40
 9.0107421875 622.59375 3.125 644.8359375 0.099609375 651.7421875 c 0
 -0.85546875 653.477539062 -0.513671875 655.640625 0.9326171875 656.994140625 c 0
 9.0380859375 664.578125 35.3193359375 689.166992188 48.2275390625 701.244140625 c 0
 49.4873046875 702.424804688 51.3271484375 702.743164062 52.91015625 702.055664062 c 0
 54.4931640625 701.370117188 55.517578125 699.807617188 55.5185546875 698.083007812 c 0x80
 55.5234375 625.611328125 55.5498046875 180.806640625 55.529296875 100.638671875 c 1x40
EndSplineSet
EndChar

StartChar: questiondown
Encoding: 191 191 68
Width: 216
VWidth: 1125
Flags: W
VStem: 72.6572 46.4756<347.974 680.091> 133.867 46.5<6.12618 194.643>
LayerCount: 2
Fore
SplineSet
120.208984375 878.340820312 m 0
 120.935546875 877.296875 121.650390625 876.266601562 122.353515625 875.256835938 c 0
 130.331054688 863.780273438 130.331054688 848.551757812 122.353515625 837.07421875 c 0
 109.759765625 818.959960938 92.7470703125 794.485351562 92.7470703125 794.485351562 c 1
 92.7470703125 794.485351562 75.732421875 818.959960938 63.140625 837.07421875 c 0
 55.1611328125 848.551757812 55.1611328125 863.780273438 63.140625 875.256835938 c 0
 63.8427734375 876.266601562 64.5576171875 877.296875 65.2841796875 878.340820312 c 0
 71.5361328125 887.333984375 81.794921875 892.6953125 92.7470703125 892.6953125 c 0
 103.69921875 892.6953125 113.958007812 887.333984375 120.208984375 878.340820312 c 0
72.6572265625 598.213867188 m 1
 72.638671875 648.73828125 73.2578125 679.697265625 57.1572265625 680.133789062 c 1
 57.1572265625 680.133789062 96.427734375 738.354492188 112.4609375 762.125976562 c 0
 113.361328125 763.4609375 115.02734375 764.049804688 116.567382812 763.579101562 c 0
 118.107421875 763.108398438 119.158203125 761.6875 119.158203125 760.077148438 c 0
 119.158203125 734.92578125 119.138671875 499.938476562 119.1328125 480.16015625 c 0
 119.1328125 437.427734375 112.80859375 394.93359375 100.365234375 354.053710938 c 0
 60.0771484375 223.529296875 17.6201171875 146.645507812 51.90625 27.7900390625 c 0
 59.7373046875 0.638671875 87.9384765625 -15.3564453125 115.830078125 -10.8271484375 c 0
 118.595703125 -10.3837890625 121.107421875 -9.9130859375 123.41796875 -9.4033203125 c 0
 124.26953125 -7.7802734375 125.146484375 -6.1357421875 126.04296875 -4.498046875 c 0
 131.17578125 4.875 133.8671875 15.3896484375 133.8671875 26.0751953125 c 2
 133.8671875 139.0078125 l 2
 133.35546875 177.3046875 166.49609375 213.553710938 198.166015625 233.3671875 c 1
 201.208984375 228.623046875 l 1
 201.208984375 228.623046875 198.19921875 221.221679688 193.57421875 209.848632812 c 0
 184.71484375 188.061523438 180.174804688 168.196289062 180.3671875 139.0078125 c 2
 180.3671875 52.89453125 l 2
 180.3671875 34.642578125 172.3046875 17.322265625 158.338867188 5.5712890625 c 2
 158.19140625 5.4453125 l 2
 137.155273438 -12.251953125 112.563476562 -31.8486328125 112.563476562 -31.8486328125 c 1
 112.353515625 -31.9951171875 l 2
 94.41796875 -44.4814453125 67.62890625 -46.9189453125 44.888671875 -43.3134765625 c 0
 25.5771484375 -40.2138671875 10.1640625 -25.5537109375 6.099609375 -6.4228515625 c 0
 2.6064453125 10.3486328125 0.232421875 30.498046875 -1.384765625 50.4658203125 c 0
 -5.57421875 102.184570312 -0.4384765625 154.236328125 13.783203125 204.137695312 c 0
 23.03125 236.592773438 47.115234375 275.513671875 56.0751953125 306.958007812 c 0
 67.0771484375 345.563476562 72.6572265625 385.510742188 72.6572265625 425.653320312 c 2
 72.6572265625 598.213867188 l 1
EndSplineSet
EndChar

StartChar: bracketleft
Encoding: 91 91 69
Width: 203
VWidth: 1123
Flags: W
HStem: -76.9639 46.5<46.4486 161.617> 795.63 46.3457<48.8402 161.617>
VStem: -0.275391 46.502<-36.8135 758.474>
LayerCount: 2
Fore
SplineSet
8.3876953125 -76.9638671875 m 0
 6.08984375 -76.9638671875 3.88671875 -76.0517578125 2.26171875 -74.4267578125 c 0
 0.63671875 -72.8017578125 -0.275390625 -70.599609375 -0.275390625 -68.302734375 c 0
 -0.275390625 14.7236328125 -0.275390625 666.604492188 -0.275390625 666.604492188 c 2
 -0.2939453125 717.127929688 0.3251953125 758.087890625 -15.775390625 758.524414062 c 1
 -15.775390625 758.524414062 26.9150390625 821.815429688 37.9375 838.157226562 c 0
 39.544921875 840.541992188 42.2333984375 841.971679688 45.109375 841.975585938 c 0
 70.0771484375 842.002929688 188.212890625 842.129882812 188.212890625 842.129882812 c 1
 188.212890625 842.129882812 159.501953125 815.518554688 145.51953125 802.55859375 c 0
 140.715820312 798.104492188 134.405273438 795.629882812 127.854492188 795.629882812 c 2
 127.854492188 795.629882812 75.8984375 795.629882812 54.8876953125 795.629882812 c 0
 52.5908203125 795.629882812 50.3876953125 794.717773438 48.763671875 793.092773438 c 0
 47.1376953125 791.467773438 46.2265625 789.265625 46.2265625 786.967773438 c 0
 46.2265625 698.559570312 46.2265625 -36.8134765625 46.2265625 -36.8134765625 c 1
 50.943359375 -32.7236328125 56.984375 -30.4638671875 63.24609375 -30.4638671875 c 0
 94.7109375 -30.4638671875 188.212890625 -30.4638671875 188.212890625 -30.4638671875 c 1
 188.212890625 -30.4638671875 159.501953125 -57.076171875 145.51953125 -70.0361328125 c 0
 140.715820312 -74.4892578125 134.405273438 -76.9638671875 127.854492188 -76.9638671875 c 0
 102.127929688 -76.9638671875 32.8115234375 -76.9638671875 8.3876953125 -76.9638671875 c 0
EndSplineSet
EndChar

StartChar: bracketright
Encoding: 93 93 70
Width: 202
VWidth: 1123
Flags: W
HStem: -75.9639 46.5<17.4663 130.244> 796.63 46.5<17.4663 132.635>
VStem: 132.857 46.502<7.67465 802.98>
LayerCount: 2
Fore
SplineSet
170.696289062 843.129882812 m 0
 172.993164062 843.129882812 175.197265625 842.217773438 176.822265625 840.594726562 c 0
 178.446289062 838.96875 179.359375 836.765625 179.359375 834.467773438 c 0
 179.359375 749.836914062 179.359375 73.5751953125 179.359375 73.5751953125 c 2
 179.377929688 23.0517578125 178.7578125 8.078125 194.859375 7.6435546875 c 1
 194.859375 7.6435546875 152.168945312 -55.6484375 141.146484375 -71.990234375 c 0
 139.5390625 -74.375 136.850585938 -75.8046875 133.974609375 -75.80859375 c 0
 109.005859375 -75.8369140625 -9.12890625 -75.9638671875 -9.12890625 -75.9638671875 c 1
 -9.12890625 -75.9638671875 19.58203125 -49.3505859375 33.5634765625 -36.3916015625 c 0
 38.3681640625 -31.9384765625 44.677734375 -29.4638671875 51.228515625 -29.4638671875 c 2
 124.1953125 -29.4638671875 l 2
 126.493164062 -29.4638671875 128.696289062 -28.5517578125 130.3203125 -26.92578125 c 0
 131.946289062 -25.3017578125 132.857421875 -23.0986328125 132.857421875 -20.8017578125 c 0
 132.857421875 67.6064453125 132.857421875 802.98046875 132.857421875 802.98046875 c 1
 128.140625 798.890625 122.099609375 796.629882812 115.837890625 796.629882812 c 0
 84.373046875 796.629882812 -9.12890625 796.629882812 -9.12890625 796.629882812 c 1
 -9.12890625 796.629882812 19.58203125 823.243164062 33.5634765625 836.203125 c 0
 38.3681640625 840.65625 44.677734375 843.129882812 51.228515625 843.129882812 c 2
 170.696289062 843.129882812 l 0
EndSplineSet
EndChar

